<svg xmlns="http://www.w3.org/2000/svg" xmlns:xlink="http://www.w3.org/1999/xlink" width="2000" zoomAndPan="magnify" viewBox="0 0 1500 1499.999933" height="2000" preserveAspectRatio="xMidYMid meet" version="1.0"><defs><clipPath id="38124846ff"><path d="M 1198 258.75 L 1263 258.75 L 1263 310 L 1198 310 Z M 1198 258.75 " clip-rule="nonzero"/></clipPath><clipPath id="60b070815b"><path d="M 238 258.75 L 302 258.75 L 302 310 L 238 310 Z M 238 258.75 " clip-rule="nonzero"/></clipPath><clipPath id="014af3efa2"><path d="M 1198 258.75 L 1263 258.75 L 1263 310 L 1198 310 Z M 1198 258.75 " clip-rule="nonzero"/></clipPath><clipPath id="8703f958da"><path d="M 238 258.75 L 302 258.75 L 302 310 L 238 310 Z M 238 258.75 " clip-rule="nonzero"/></clipPath></defs><g clip-path="url(#38124846ff)"><path fill="#000000" d="M 1261.875 290.3125 C 1261.875 272.8125 1247.8125 258.75 1230.3125 258.75 C 1212.8125 258.75 1198.75 272.8125 1198.75 290.3125 L 1198.75 309.375 L 1262.1875 309.375 L 1262.1875 290.3125 Z M 1261.875 290.3125 " fill-opacity="1" fill-rule="nonzero"/></g><path fill="#000000" d="M 1198.4375 527.1875 L 1261.875 527.1875 L 1261.875 579.375 L 1198.4375 579.375 Z M 1198.4375 527.1875 " fill-opacity="1" fill-rule="nonzero"/><path fill="#000000" d="M 1198.4375 796.875 L 1261.875 796.875 L 1261.875 862.8125 L 1198.4375 862.8125 Z M 1198.4375 796.875 " fill-opacity="1" fill-rule="nonzero"/><path fill="#000000" d="M 1480.625 1311.25 L 1363.4375 1311.25 L 1279.6875 1052.8125 L 1213.125 1052.8125 L 1296.875 1311.25 L 203.125 1311.25 L 286.875 1052.8125 L 220.3125 1052.8125 L 136.5625 1311.25 L 19.375 1311.25 C 8.75 1311.25 0 1320 0 1330.625 C 0 1341.25 8.75 1350 19.375 1350 L 1480.625 1350 C 1491.25 1350 1500 1341.25 1500 1330.625 C 1500 1320 1491.25 1311.25 1480.625 1311.25 Z M 1480.625 1311.25 " fill-opacity="1" fill-rule="nonzero"/><g clip-path="url(#60b070815b)"><path fill="#000000" d="M 301.5625 290.3125 C 301.5625 272.8125 287.5 258.75 270 258.75 C 252.5 258.75 238.4375 272.8125 238.4375 290.3125 L 238.4375 309.375 L 301.875 309.375 L 301.875 290.3125 Z M 301.5625 290.3125 " fill-opacity="1" fill-rule="nonzero"/></g><path fill="#000000" d="M 238.125 527.1875 L 301.5625 527.1875 L 301.5625 579.375 L 238.125 579.375 Z M 238.125 527.1875 " fill-opacity="1" fill-rule="nonzero"/><path fill="#000000" d="M 238.125 796.875 L 301.5625 796.875 L 301.5625 862.8125 L 238.125 862.8125 Z M 238.125 796.875 " fill-opacity="1" fill-rule="nonzero"/><path fill="#000000" d="M 95 1014.0625 L 1405 1014.0625 C 1420 1014.0625 1434.0625 1008.125 1444.6875 997.5 C 1455.3125 986.875 1461.25 972.8125 1461.25 957.8125 C 1461.25 926.875 1435.9375 901.5625 1405 901.5625 L 95 901.5625 C 64.0625 901.5625 38.75 926.875 38.75 957.8125 C 38.75 972.8125 44.6875 986.875 55.3125 997.5 C 65.9375 1008.125 80 1014.0625 95 1014.0625 Z M 95 1014.0625 " fill-opacity="1" fill-rule="nonzero"/><path fill="#000000" d="M 119.6875 758.125 L 1380 758.125 C 1394.375 758.125 1405.9375 746.5625 1405.9375 732.1875 L 1405.9375 644.0625 C 1405.9375 629.6875 1394.375 618.125 1380 618.125 L 119.6875 618.125 C 105.3125 618.125 93.75 629.6875 93.75 644.0625 L 93.75 732.1875 C 93.75 746.5625 105.3125 758.125 119.6875 758.125 Z M 119.6875 758.125 " fill-opacity="1" fill-rule="nonzero"/><path fill="#000000" d="M 119.6875 488.4375 L 1380 488.4375 C 1394.375 488.4375 1405.9375 476.875 1405.9375 462.5 L 1405.9375 374.375 C 1405.9375 360 1394.375 348.4375 1380 348.4375 L 119.6875 348.4375 C 105.3125 348.4375 93.75 360 93.75 374.375 L 93.75 462.5 C 93.75 476.875 105.3125 488.4375 119.6875 488.4375 Z M 119.6875 488.4375 " fill-opacity="1" fill-rule="nonzero"/><g clip-path="url(#014af3efa2)"><path fill="#000000" d="M 1261.875 290.3125 C 1261.875 272.8125 1247.8125 258.75 1230.3125 258.75 C 1212.8125 258.75 1198.75 272.8125 1198.75 290.3125 L 1198.75 309.375 L 1262.1875 309.375 L 1262.1875 290.3125 Z M 1261.875 290.3125 " fill-opacity="1" fill-rule="nonzero"/></g><path fill="#000000" d="M 1198.4375 527.1875 L 1261.875 527.1875 L 1261.875 579.375 L 1198.4375 579.375 Z M 1198.4375 527.1875 " fill-opacity="1" fill-rule="nonzero"/><path fill="#000000" d="M 1198.4375 796.875 L 1261.875 796.875 L 1261.875 862.8125 L 1198.4375 862.8125 Z M 1198.4375 796.875 " fill-opacity="1" fill-rule="nonzero"/><path fill="#000000" d="M 1480.625 1311.25 L 1363.4375 1311.25 L 1279.6875 1052.8125 L 1213.125 1052.8125 L 1296.875 1311.25 L 203.125 1311.25 L 286.875 1052.8125 L 220.3125 1052.8125 L 136.5625 1311.25 L 19.375 1311.25 C 8.75 1311.25 0 1320 0 1330.625 C 0 1341.25 8.75 1350 19.375 1350 L 1480.625 1350 C 1491.25 1350 1500 1341.25 1500 1330.625 C 1500 1320 1491.25 1311.25 1480.625 1311.25 Z M 1480.625 1311.25 " fill-opacity="1" fill-rule="nonzero"/><g clip-path="url(#8703f958da)"><path fill="#000000" d="M 301.5625 290.3125 C 301.5625 272.8125 287.5 258.75 270 258.75 C 252.5 258.75 238.4375 272.8125 238.4375 290.3125 L 238.4375 309.375 L 301.875 309.375 L 301.875 290.3125 Z M 301.5625 290.3125 " fill-opacity="1" fill-rule="nonzero"/></g><path fill="#000000" d="M 238.125 527.1875 L 301.5625 527.1875 L 301.5625 579.375 L 238.125 579.375 Z M 238.125 527.1875 " fill-opacity="1" fill-rule="nonzero"/><path fill="#000000" d="M 238.125 796.875 L 301.5625 796.875 L 301.5625 862.8125 L 238.125 862.8125 Z M 238.125 796.875 " fill-opacity="1" fill-rule="nonzero"/><path fill="#000000" d="M 95 1014.0625 L 1405 1014.0625 C 1420 1014.0625 1434.0625 1008.125 1444.6875 997.5 C 1455.3125 986.875 1461.25 972.8125 1461.25 957.8125 C 1461.25 926.875 1435.9375 901.5625 1405 901.5625 L 95 901.5625 C 64.0625 901.5625 38.75 926.875 38.75 957.8125 C 38.75 972.8125 44.6875 986.875 55.3125 997.5 C 65.9375 1008.125 80 1014.0625 95 1014.0625 Z M 95 1014.0625 " fill-opacity="1" fill-rule="nonzero"/><path fill="#000000" d="M 119.6875 758.125 L 1380 758.125 C 1394.375 758.125 1405.9375 746.5625 1405.9375 732.1875 L 1405.9375 644.0625 C 1405.9375 629.6875 1394.375 618.125 1380 618.125 L 119.6875 618.125 C 105.3125 618.125 93.75 629.6875 93.75 644.0625 L 93.75 732.1875 C 93.75 746.5625 105.3125 758.125 119.6875 758.125 Z M 119.6875 758.125 " fill-opacity="1" fill-rule="nonzero"/><path fill="#000000" d="M 119.6875 488.4375 L 1380 488.4375 C 1394.375 488.4375 1405.9375 476.875 1405.9375 462.5 L 1405.9375 374.375 C 1405.9375 360 1394.375 348.4375 1380 348.4375 L 119.6875 348.4375 C 105.3125 348.4375 93.75 360 93.75 374.375 L 93.75 462.5 C 93.75 476.875 105.3125 488.4375 119.6875 488.4375 Z M 119.6875 488.4375 " fill-opacity="1" fill-rule="nonzero"/></svg>