<svg xmlns="http://www.w3.org/2000/svg" xmlns:xlink="http://www.w3.org/1999/xlink" width="2000" zoomAndPan="magnify" viewBox="0 0 1500 1499.999933" height="2000" preserveAspectRatio="xMidYMid meet" version="1.0"><path fill="#000000" d="M 750 0 C 335.800781 0 0 335.800781 0 750 C 0 1164.199219 335.800781 1500 750 1500 C 1164.199219 1500 1500 1164.199219 1500 750 C 1500 335.800781 1164.199219 0 750 0 Z M 1062.5 932.5 C 1044.699219 975.699219 1019.601562 1012.300781 988 1041.398438 C 956.5 1070.398438 922.398438 1089.898438 886.5 1099.5 C 836.101562 1113 789.898438 1119.898438 749.199219 1119.898438 L 410.5 1119.898438 L 410.5 380.199219 L 749.199219 380.199219 C 816.199219 380.199219 870.898438 389.300781 911.800781 407.300781 C 952.398438 425.199219 986.398438 451.199219 1012.898438 484.699219 C 1039.601562 518.398438 1059.199219 558.101562 1071.199219 602.800781 C 1083.398438 648 1089.5 696.699219 1089.5 747.398438 C 1089.5 826.898438 1080.398438 889.101562 1062.5 932.5 Z M 831.800781 580.199219 C 860 612.101562 873.699219 668.300781 873.699219 752.101562 C 873.699219 814.800781 867.699219 859.300781 855.300781 887.898438 C 842.699219 917 824.800781 937.898438 802.101562 949.800781 C 779.699219 961.601562 744 967.300781 692.800781 967.300781 L 625.300781 967.300781 L 625.300781 532.199219 L 693.898438 532.199219 C 757.398438 532.199219 803.898438 548.300781 832 580.101562 Z M 831.800781 580.199219 " fill-opacity="1" fill-rule="nonzero"/><path fill="#000000" d="M 750 0 C 335.800781 0 0 335.800781 0 750 C 0 1164.199219 335.800781 1500 750 1500 C 1164.199219 1500 1500 1164.199219 1500 750 C 1500 335.800781 1164.199219 0 750 0 Z M 1062.5 932.5 C 1044.699219 975.699219 1019.601562 1012.300781 988 1041.398438 C 956.5 1070.398438 922.398438 1089.898438 886.5 1099.5 C 836.101562 1113 789.898438 1119.898438 749.199219 1119.898438 L 410.5 1119.898438 L 410.5 380.199219 L 749.199219 380.199219 C 816.199219 380.199219 870.898438 389.300781 911.800781 407.300781 C 952.398438 425.199219 986.398438 451.199219 1012.898438 484.699219 C 1039.601562 518.398438 1059.199219 558.101562 1071.199219 602.800781 C 1083.398438 648 1089.5 696.699219 1089.5 747.398438 C 1089.5 826.898438 1080.398438 889.101562 1062.5 932.5 Z M 831.800781 580.199219 C 860 612.101562 873.699219 668.300781 873.699219 752.101562 C 873.699219 814.800781 867.699219 859.300781 855.300781 887.898438 C 842.699219 917 824.800781 937.898438 802.101562 949.800781 C 779.699219 961.601562 744 967.300781 692.800781 967.300781 L 625.300781 967.300781 L 625.300781 532.199219 L 693.898438 532.199219 C 757.398438 532.199219 803.898438 548.300781 832 580.101562 Z M 831.800781 580.199219 " fill-opacity="1" fill-rule="nonzero"/></svg>