<svg xmlns="http://www.w3.org/2000/svg" xmlns:xlink="http://www.w3.org/1999/xlink" width="2000" zoomAndPan="magnify" viewBox="0 0 1500 1499.999933" height="2000" preserveAspectRatio="xMidYMid meet" version="1.0"><path fill="#000000" d="M 750 370.785156 C 690.839844 370.785156 642.882812 418.746094 642.882812 477.902344 L 642.882812 570.738281 L 857.117188 570.738281 L 857.117188 477.902344 C 857.113281 418.746094 809.160156 370.785156 750 370.785156 Z M 750 370.785156 " fill-opacity="1" fill-rule="nonzero"/><path fill="#000000" d="M 748.421875 713.570312 C 691.164062 714.394531 644.160156 761.03125 642.90625 818.28125 C 642.019531 858.921875 663.789062 894.53125 696.4375 913.429688 L 696.4375 981.355469 C 696.4375 1010.933594 720.417969 1034.910156 749.996094 1034.910156 C 779.574219 1034.910156 803.554688 1010.933594 803.554688 981.355469 L 803.554688 913.429688 C 835.5625 894.90625 857.113281 860.320312 857.113281 820.679688 C 857.113281 760.996094 808.304688 712.710938 748.421875 713.570312 Z M 748.421875 713.570312 " fill-opacity="1" fill-rule="nonzero"/><path fill="#000000" d="M 750 0 C 335.785156 0 0 335.785156 0 750 C 0 1164.214844 335.785156 1500 750 1500 C 1164.214844 1500 1500 1164.214844 1500 750 C 1500 335.785156 1164.214844 0 750 0 Z M 1142.757812 1070.617188 C 1142.757812 1129.777344 1094.800781 1177.734375 1035.644531 1177.734375 L 464.355469 1177.734375 C 405.195312 1177.734375 357.242188 1129.773438 357.242188 1070.617188 L 357.242188 677.855469 C 357.242188 618.695312 405.199219 570.742188 464.355469 570.742188 L 535.765625 570.742188 L 535.765625 477.90625 C 535.765625 359.585938 631.679688 263.671875 750 263.671875 C 868.316406 263.671875 964.234375 359.585938 964.234375 477.90625 L 964.234375 570.742188 L 1035.644531 570.742188 C 1094.804688 570.742188 1142.757812 618.699219 1142.757812 677.855469 Z M 1142.757812 1070.617188 " fill-opacity="1" fill-rule="nonzero"/><path fill="#000000" d="M 750 370.785156 C 690.839844 370.785156 642.882812 418.746094 642.882812 477.902344 L 642.882812 570.738281 L 857.117188 570.738281 L 857.117188 477.902344 C 857.113281 418.746094 809.160156 370.785156 750 370.785156 Z M 750 370.785156 " fill-opacity="1" fill-rule="nonzero"/><path fill="#000000" d="M 748.421875 713.570312 C 691.164062 714.394531 644.160156 761.03125 642.90625 818.28125 C 642.019531 858.921875 663.789062 894.53125 696.4375 913.429688 L 696.4375 981.355469 C 696.4375 1010.933594 720.417969 1034.910156 749.996094 1034.910156 C 779.574219 1034.910156 803.554688 1010.933594 803.554688 981.355469 L 803.554688 913.429688 C 835.5625 894.90625 857.113281 860.320312 857.113281 820.679688 C 857.113281 760.996094 808.304688 712.710938 748.421875 713.570312 Z M 748.421875 713.570312 " fill-opacity="1" fill-rule="nonzero"/><path fill="#000000" d="M 750 0 C 335.785156 0 0 335.785156 0 750 C 0 1164.214844 335.785156 1500 750 1500 C 1164.214844 1500 1500 1164.214844 1500 750 C 1500 335.785156 1164.214844 0 750 0 Z M 1142.757812 1070.617188 C 1142.757812 1129.777344 1094.800781 1177.734375 1035.644531 1177.734375 L 464.355469 1177.734375 C 405.195312 1177.734375 357.242188 1129.773438 357.242188 1070.617188 L 357.242188 677.855469 C 357.242188 618.695312 405.199219 570.742188 464.355469 570.742188 L 535.765625 570.742188 L 535.765625 477.90625 C 535.765625 359.585938 631.679688 263.671875 750 263.671875 C 868.316406 263.671875 964.234375 359.585938 964.234375 477.90625 L 964.234375 570.742188 L 1035.644531 570.742188 C 1094.804688 570.742188 1142.757812 618.699219 1142.757812 677.855469 Z M 1142.757812 1070.617188 " fill-opacity="1" fill-rule="nonzero"/></svg>