<svg xmlns="http://www.w3.org/2000/svg" xmlns:xlink="http://www.w3.org/1999/xlink" width="2000" zoomAndPan="magnify" viewBox="0 0 1500 1499.999933" height="2000" preserveAspectRatio="xMidYMid meet" version="1.0"><defs><clipPath id="6a3c500422"><path d="M 196.363281 0 L 1303.363281 0 L 1303.363281 1500 L 196.363281 1500 Z M 196.363281 0 " clip-rule="nonzero"/></clipPath></defs><g clip-path="url(#6a3c500422)"><path fill="#000000" d="M 1247.890625 608.101562 L 1171.410156 608.101562 L 1171.410156 422.101562 C 1171.710938 189.300781 982.457031 0 749.714844 0 C 516.96875 0 327.714844 189.300781 327.714844 422.101562 L 327.714844 608.101562 L 251.535156 608.101562 C 221.242188 608.101562 196.648438 632.699219 196.648438 663 L 196.648438 1445.398438 C 196.648438 1475.398438 221.242188 1500 251.535156 1500 L 1248.191406 1500 C 1278.484375 1500 1303.078125 1475.398438 1303.078125 1445.101562 L 1303.078125 663 C 1302.777344 632.699219 1278.183594 608.101562 1247.890625 608.101562 Z M 437.488281 422.101562 C 437.488281 249.898438 577.554688 109.800781 749.714844 109.800781 C 921.871094 109.800781 1061.9375 249.898438 1061.9375 422.101562 L 1061.9375 608.101562 L 437.488281 608.101562 Z M 804.601562 1093.5 L 804.601562 1237.800781 C 804.601562 1268.101562 780.007812 1292.699219 749.714844 1292.699219 C 719.421875 1292.699219 694.828125 1268.101562 694.828125 1237.800781 L 694.828125 1093.5 C 657.035156 1073.699219 631.242188 1034.101562 631.242188 988.800781 C 631.242188 923.398438 684.328125 870.601562 749.414062 870.601562 C 814.796875 870.601562 867.585938 923.699219 867.585938 988.800781 C 868.183594 1034.101562 842.390625 1073.699219 804.601562 1093.5 Z M 804.601562 1093.5 " fill-opacity="1" fill-rule="nonzero"/><path fill="#000000" d="M 1247.890625 608.101562 L 1171.410156 608.101562 L 1171.410156 422.101562 C 1171.710938 189.300781 982.457031 0 749.714844 0 C 516.96875 0 327.714844 189.300781 327.714844 422.101562 L 327.714844 608.101562 L 251.535156 608.101562 C 221.242188 608.101562 196.648438 632.699219 196.648438 663 L 196.648438 1445.398438 C 196.648438 1475.398438 221.242188 1500 251.535156 1500 L 1248.191406 1500 C 1278.484375 1500 1303.078125 1475.398438 1303.078125 1445.101562 L 1303.078125 663 C 1302.777344 632.699219 1278.183594 608.101562 1247.890625 608.101562 Z M 437.488281 422.101562 C 437.488281 249.898438 577.554688 109.800781 749.714844 109.800781 C 921.871094 109.800781 1061.9375 249.898438 1061.9375 422.101562 L 1061.9375 608.101562 L 437.488281 608.101562 Z M 804.601562 1093.5 L 804.601562 1237.800781 C 804.601562 1268.101562 780.007812 1292.699219 749.714844 1292.699219 C 719.421875 1292.699219 694.828125 1268.101562 694.828125 1237.800781 L 694.828125 1093.5 C 657.035156 1073.699219 631.242188 1034.101562 631.242188 988.800781 C 631.242188 923.398438 684.328125 870.601562 749.414062 870.601562 C 814.796875 870.601562 867.585938 923.699219 867.585938 988.800781 C 868.183594 1034.101562 842.390625 1073.699219 804.601562 1093.5 Z M 804.601562 1093.5 " fill-opacity="1" fill-rule="nonzero"/></g></svg>