<svg xmlns="http://www.w3.org/2000/svg" xmlns:xlink="http://www.w3.org/1999/xlink" width="2000" zoomAndPan="magnify" viewBox="0 0 1500 1499.999933" height="2000" preserveAspectRatio="xMidYMid meet" version="1.0"><defs><clipPath id="af7bc72262"><path d="M 0 17.089844 L 1482.75 17.089844 L 1482.75 1499.839844 L 0 1499.839844 Z M 0 17.089844 " clip-rule="nonzero"/></clipPath></defs><g clip-path="url(#af7bc72262)"><path fill="#000000" d="M 741.375 17.089844 C 331.9375 17.089844 0 349.027344 0 758.464844 C 0 1167.902344 331.9375 1499.839844 741.375 1499.839844 C 1150.8125 1499.839844 1482.75 1167.902344 1482.75 758.464844 C 1482.75 349.027344 1150.8125 17.089844 741.375 17.089844 Z M 1077.367188 964.171875 C 1048.898438 1018.339844 1007.082031 1061.144531 953.210938 1091.292969 C 899.140625 1121.539062 830.539062 1136.863281 749.28125 1136.863281 C 668.027344 1136.863281 597.25 1123.617188 543.378906 1097.421875 C 489.902344 1071.421875 445.914062 1029.609375 412.601562 973.265625 C 379.1875 916.722656 362.285156 844.660156 362.285156 759.058594 C 362.285156 639.746094 395.796875 545.738281 461.828125 479.707031 C 527.859375 413.675781 621.570312 380.164062 740.1875 380.164062 C 858.808594 380.164062 956.769531 413.082031 1022.109375 477.929688 C 1087.449219 542.773438 1120.5625 635.296875 1120.5625 752.929688 C 1120.5625 838.632812 1106.03125 909.703125 1077.367188 964.269531 Z M 863.058594 588.34375 C 893.109375 622.644531 908.234375 677.011719 908.234375 749.765625 C 908.234375 836.949219 894.097656 896.160156 864.9375 930.757812 C 835.777344 965.355469 794.257812 982.953125 741.574219 982.953125 C 688.886719 982.953125 649.050781 965.058594 619.097656 929.769531 C 589.441406 894.976562 574.515625 837.839844 574.515625 759.945312 C 574.515625 682.054688 589.640625 623.929688 619.394531 589.132812 C 649.542969 553.84375 689.972656 535.953125 739.59375 535.953125 C 789.21875 535.953125 832.710938 553.546875 863.058594 588.246094 Z M 863.058594 588.34375 " fill-opacity="1" fill-rule="nonzero"/><path fill="#000000" d="M 741.375 17.089844 C 331.9375 17.089844 0 349.027344 0 758.464844 C 0 1167.902344 331.9375 1499.839844 741.375 1499.839844 C 1150.8125 1499.839844 1482.75 1167.902344 1482.75 758.464844 C 1482.75 349.027344 1150.8125 17.089844 741.375 17.089844 Z M 1077.367188 964.171875 C 1048.898438 1018.339844 1007.082031 1061.144531 953.210938 1091.292969 C 899.140625 1121.539062 830.539062 1136.863281 749.28125 1136.863281 C 668.027344 1136.863281 597.25 1123.617188 543.378906 1097.421875 C 489.902344 1071.421875 445.914062 1029.609375 412.601562 973.265625 C 379.1875 916.722656 362.285156 844.660156 362.285156 759.058594 C 362.285156 639.746094 395.796875 545.738281 461.828125 479.707031 C 527.859375 413.675781 621.570312 380.164062 740.1875 380.164062 C 858.808594 380.164062 956.769531 413.082031 1022.109375 477.929688 C 1087.449219 542.773438 1120.5625 635.296875 1120.5625 752.929688 C 1120.5625 838.632812 1106.03125 909.703125 1077.367188 964.269531 Z M 863.058594 588.34375 C 893.109375 622.644531 908.234375 677.011719 908.234375 749.765625 C 908.234375 836.949219 894.097656 896.160156 864.9375 930.757812 C 835.777344 965.355469 794.257812 982.953125 741.574219 982.953125 C 688.886719 982.953125 649.050781 965.058594 619.097656 929.769531 C 589.441406 894.976562 574.515625 837.839844 574.515625 759.945312 C 574.515625 682.054688 589.640625 623.929688 619.394531 589.132812 C 649.542969 553.84375 689.972656 535.953125 739.59375 535.953125 C 789.21875 535.953125 832.710938 553.546875 863.058594 588.246094 Z M 863.058594 588.34375 " fill-opacity="1" fill-rule="nonzero"/></g></svg>