<svg xmlns="http://www.w3.org/2000/svg" xmlns:xlink="http://www.w3.org/1999/xlink" width="2000" zoomAndPan="magnify" viewBox="0 0 1500 1499.999933" height="2000" preserveAspectRatio="xMidYMid meet" version="1.0"><path fill="#000000" d="M 750 0 C 335.800781 0 0 335.800781 0 750 C 0 1164.199219 335.800781 1500 750 1500 C 1164.199219 1500 1500 1164.199219 1500 750 C 1500 335.800781 1164.199219 0 750 0 Z M 1108.199219 1167.398438 C 1078.898438 1152.699219 1049.601562 1135.398438 1020.898438 1115.800781 C 989.199219 1094.101562 966.800781 1077.699219 954.398438 1067 L 949.699219 1062.898438 L 943.898438 1065.398438 C 893.601562 1087.199219 829.398438 1098.300781 753 1098.300781 C 640.699219 1098.300781 551.101562 1068.800781 486.601562 1010.699219 C 410.398438 941.898438 371.800781 843.398438 371.800781 718.101562 C 371.800781 592.800781 405.601562 500.699219 472.300781 433.699219 C 539 366.699219 633.800781 332.699219 754.101562 332.699219 C 874.398438 332.699219 972.699219 365.898438 1039.101562 431.398438 C 1105.398438 496.800781 1139 592.300781 1139 715 C 1139 824.398438 1111.898438 912.898438 1058.398438 978.101562 L 1051.5 986.5 L 1060.398438 992.699219 C 1090.199219 1013.398438 1109.300781 1026.101562 1118.601562 1031.5 C 1130.398438 1038.199219 1145.800781 1045.800781 1164.398438 1054.199219 L 1108.199219 1167.5 Z M 879.101562 543.101562 C 909.101562 577.699219 924.300781 635.101562 924.300781 713.898438 C 924.300781 782 914.5 834.199219 895.101562 869 L 890 878.199219 L 881.101562 872.601562 C 871.699219 866.699219 862.898438 860.800781 854.800781 855.199219 C 821.898438 832.101562 799.601562 817.800781 788.601562 812.5 C 779.300781 808.101562 766.5 804.199219 750.398438 800.800781 L 720.898438 868.5 C 759.601562 884.699219 788.800781 902.199219 807.898438 920.601562 L 821.300781 933.601562 L 803.101562 937.601562 C 788.300781 940.800781 772.398438 942.5 755.898438 942.5 C 703.601562 942.5 661.800781 924.398438 631.699219 888.699219 C 601.5 853 586.800781 793.800781 586.800781 707.601562 C 586.800781 634.300781 602.300781 579.300781 632.800781 544 C 663.699219 508.398438 704.398438 490.300781 753.800781 490.300781 C 806.699219 490.300781 848.898438 508 879.199219 543 Z M 879.101562 543.101562 " fill-opacity="1" fill-rule="nonzero"/><path fill="#000000" d="M 750 0 C 335.800781 0 0 335.800781 0 750 C 0 1164.199219 335.800781 1500 750 1500 C 1164.199219 1500 1500 1164.199219 1500 750 C 1500 335.800781 1164.199219 0 750 0 Z M 1108.199219 1167.398438 C 1078.898438 1152.699219 1049.601562 1135.398438 1020.898438 1115.800781 C 989.199219 1094.101562 966.800781 1077.699219 954.398438 1067 L 949.699219 1062.898438 L 943.898438 1065.398438 C 893.601562 1087.199219 829.398438 1098.300781 753 1098.300781 C 640.699219 1098.300781 551.101562 1068.800781 486.601562 1010.699219 C 410.398438 941.898438 371.800781 843.398438 371.800781 718.101562 C 371.800781 592.800781 405.601562 500.699219 472.300781 433.699219 C 539 366.699219 633.800781 332.699219 754.101562 332.699219 C 874.398438 332.699219 972.699219 365.898438 1039.101562 431.398438 C 1105.398438 496.800781 1139 592.300781 1139 715 C 1139 824.398438 1111.898438 912.898438 1058.398438 978.101562 L 1051.5 986.5 L 1060.398438 992.699219 C 1090.199219 1013.398438 1109.300781 1026.101562 1118.601562 1031.5 C 1130.398438 1038.199219 1145.800781 1045.800781 1164.398438 1054.199219 L 1108.199219 1167.5 Z M 879.101562 543.101562 C 909.101562 577.699219 924.300781 635.101562 924.300781 713.898438 C 924.300781 782 914.5 834.199219 895.101562 869 L 890 878.199219 L 881.101562 872.601562 C 871.699219 866.699219 862.898438 860.800781 854.800781 855.199219 C 821.898438 832.101562 799.601562 817.800781 788.601562 812.5 C 779.300781 808.101562 766.5 804.199219 750.398438 800.800781 L 720.898438 868.5 C 759.601562 884.699219 788.800781 902.199219 807.898438 920.601562 L 821.300781 933.601562 L 803.101562 937.601562 C 788.300781 940.800781 772.398438 942.5 755.898438 942.5 C 703.601562 942.5 661.800781 924.398438 631.699219 888.699219 C 601.5 853 586.800781 793.800781 586.800781 707.601562 C 586.800781 634.300781 602.300781 579.300781 632.800781 544 C 663.699219 508.398438 704.398438 490.300781 753.800781 490.300781 C 806.699219 490.300781 848.898438 508 879.199219 543 Z M 879.101562 543.101562 " fill-opacity="1" fill-rule="nonzero"/></svg>