<svg xmlns="http://www.w3.org/2000/svg" xmlns:xlink="http://www.w3.org/1999/xlink" width="2000" zoomAndPan="magnify" viewBox="0 0 1500 1499.999933" height="2000" preserveAspectRatio="xMidYMid meet" version="1.0"><defs><clipPath id="6a299e6b6c"><path d="M 150 0 L 1236 0 L 1236 1500 L 150 1500 Z M 150 0 " clip-rule="nonzero"/></clipPath></defs><g clip-path="url(#6a299e6b6c)"><path fill="#000000" d="M 479.804688 435.515625 C 490.898438 437.054688 500.804688 440.457031 509.527344 446.820312 C 525 458.109375 531.34375 474.386719 534.054688 492.46875 C 536.816406 510.90625 534.679688 528.84375 527.773438 546.222656 C 522.800781 558.738281 515.109375 560.757812 504.664062 552.101562 C 504.269531 551.835938 503.859375 551.605469 503.429688 551.410156 C 504.347656 564.101562 514.148438 570.675781 525.523438 565.734375 C 534.453125 561.855469 542.800781 556.648438 551.691406 552.671875 C 561.132812 548.445312 570.730469 544.351562 580.628906 541.460938 C 585.003906 540.183594 590.445312 541.410156 595.128906 542.585938 C 601.457031 544.183594 607.453125 547.0625 613.734375 548.917969 C 616.984375 549.878906 617.289062 551.324219 616.363281 554.136719 C 614.347656 560.257812 610.40625 564.429688 604.15625 565.886719 C 599.984375 566.863281 595.648438 567.285156 591.363281 567.597656 C 582.675781 568.226562 574.59375 570.113281 568.328125 576.78125 C 559.648438 586.023438 561.289062 597.867188 573.570312 604.449219 C 589.503906 612.988281 606.527344 618.277344 624.394531 621.085938 C 631.582031 622.21875 636.75 619.96875 640.945312 614.128906 C 653.9375 596.0625 654.34375 568.871094 640.925781 552.699219 C 636.796875 547.71875 631.820312 543.832031 625.988281 541.027344 C 607.714844 532.566406 588.425781 529.644531 568.421875 533.558594 C 558.425781 535.511719 549.742188 539.992188 542.597656 547.445312 C 546.519531 539.339844 552.304688 532.820312 559.355469 527.355469 C 575.542969 514.808594 594.234375 511.347656 613.894531 513.984375 C 644.0625 518.027344 671.300781 529.527344 694.363281 549.679688 C 721.023438 572.980469 732.039062 603.101562 730.855469 637.917969 C 730.507812 648.066406 728.652344 658.15625 727.488281 668.273438 L 725.953125 668.484375 C 722.191406 664.667969 718.265625 660.992188 714.789062 656.929688 C 713.980469 655.984375 714.417969 653.65625 714.777344 652.074219 C 720.394531 627.3125 716.625 603.828125 705.175781 581.324219 C 713.582031 603.75 715.621094 626.253906 706.347656 649.738281 C 690.414062 635.40625 673.605469 623.207031 654.273438 614.683594 C 658.816406 618.246094 663.488281 621.652344 667.875 625.398438 C 677.011719 633.191406 686.199219 640.945312 694.972656 649.140625 C 701.382812 655.128906 701.335938 657.894531 695.761719 664.675781 C 688.347656 673.703125 678.769531 679.609375 667.691406 683.183594 L 668.003906 684.351562 C 673.308594 683.054688 678.90625 682.433594 683.851562 680.300781 C 691.445312 677.03125 698.691406 672.894531 705.886719 668.78125 C 709.816406 666.53125 714.492188 667.023438 718.03125 670.945312 C 721.609375 674.914062 718.144531 677.550781 715.863281 679.882812 C 707.957031 687.96875 697.78125 691.832031 687.015625 694.152344 C 674.554688 696.835938 661.960938 697.078125 648.820312 695.597656 C 658.792969 673.160156 661.742188 651.40625 646.542969 630.128906 C 646.125 630.707031 645.8125 630.949219 645.847656 631.121094 C 648.0625 642.082031 644.597656 646.574219 633.324219 646.28125 C 616.726562 645.855469 600.078125 645.550781 583.816406 641.082031 C 596.875 652.121094 610.472656 661.917969 628.480469 662.894531 C 635.054688 663.246094 641.132812 665.183594 645.539062 670.484375 C 648.460938 674.003906 649.9375 678.019531 647.921875 682.492188 C 645.933594 686.902344 641.949219 688.570312 637.578125 687.773438 C 625.347656 685.542969 613.207031 682.863281 601.035156 680.332031 C 599.375 679.988281 597.75 679.480469 596.113281 679.050781 L 595.699219 680.53125 L 638.894531 692.96875 C 640.582031 698.109375 637.96875 703.265625 630.9375 703.667969 C 623.597656 704.082031 616.046875 702.925781 608.777344 701.5 C 604.691406 700.699219 601.398438 699.167969 597.34375 702.160156 C 592.605469 705.660156 587.476562 704.015625 583.097656 700.730469 C 576.4375 695.738281 569.488281 691.003906 563.484375 685.292969 C 554.554688 676.800781 544.265625 670.542969 533.785156 664.3125 C 516.621094 654.109375 499.582031 643.671875 482.921875 632.671875 C 476.316406 628.3125 470.675781 622.394531 464.960938 616.808594 C 459.867188 611.824219 458.246094 605.164062 458.375 598.273438 C 458.507812 591.203125 456.640625 585.234375 452.035156 579.695312 C 449.28125 576.3125 447.375 572.503906 446.316406 568.273438 C 442.78125 553.835938 439.632812 539.300781 436.753906 524.71875 C 435.949219 520.429688 435.886719 516.132812 436.566406 511.824219 C 438.660156 498.308594 446.976562 491.855469 463.203125 490.640625 C 473.628906 489.855469 484.015625 489.765625 494.0625 493.390625 C 494.425781 493.519531 494.921875 493.277344 496.171875 493.078125 C 473.328125 480.800781 451.679688 482.488281 429.472656 495.628906 C 429.472656 488.675781 429.171875 482.515625 429.539062 476.394531 C 430.15625 466.152344 431.3125 456.003906 436.476562 446.738281 C 439.9375 440.523438 444.957031 437.578125 452.019531 437.304688 C 454.0625 437.226562 456.464844 436.050781 457.988281 434.617188 C 470.675781 422.664062 482.996094 410.3125 495.890625 398.589844 C 499.59375 395.226562 504.8125 393.527344 510.007812 390.695312 C 514.84375 406.695312 518.9375 421.464844 528.304688 433.996094 C 526.667969 428.386719 524.886719 422.816406 523.445312 417.160156 C 522.339844 412.835938 521.605469 408.410156 520.804688 404.011719 C 518.125 389.261719 525.628906 378.542969 535.585938 369.4375 C 542.136719 363.550781 549.25 358.445312 556.929688 354.121094 C 563.042969 350.625 570.117188 348.808594 577.03125 346.144531 C 587.121094 369.46875 594.023438 394.035156 615.113281 410.253906 C 612.695312 405.113281 610.222656 400 607.863281 394.832031 C 599.605469 376.761719 592.085938 358.429688 588.746094 338.691406 C 586.328125 324.382812 588.5 310.257812 590.976562 296.210938 C 594.464844 276.449219 599.636719 257.175781 608.613281 239.085938 C 613.980469 228.265625 621.519531 220.773438 633.996094 217.730469 C 666.285156 209.851562 698.78125 204.914062 732.003906 208.898438 C 757.003906 211.894531 780.554688 220.199219 803.199219 230.988281 C 804.835938 231.769531 805.667969 235 806.183594 237.25 C 809.929688 253.582031 812.75 270.171875 817.324219 286.261719 C 819.820312 295.167969 823.269531 303.691406 827.667969 311.828125 C 832.066406 319.964844 837.308594 327.519531 843.394531 334.484375 C 845.492188 336.886719 847.875 339.039062 850.164062 341.269531 C 853.636719 344.660156 857.035156 347.941406 862.660156 345.410156 C 863.570312 345.058594 864.515625 344.882812 865.492188 344.882812 C 866.472656 344.882812 867.417969 345.058594 868.328125 345.410156 C 873.046875 347.378906 874.902344 344.753906 877.277344 341.339844 C 886.019531 328.78125 897.375 319.664062 912.28125 315 C 930.816406 309.199219 947.140625 299.691406 959.679688 284.460938 C 960.695312 283.230469 961.613281 281.910156 962.515625 280.589844 C 962.699219 280.230469 962.8125 279.851562 962.859375 279.453125 C 958.082031 279.453125 953.320312 279.269531 948.585938 279.574219 C 947.34375 279.65625 945.980469 281.0625 945.042969 282.171875 C 935.882812 292.984375 924.839844 299.789062 910.105469 299.140625 C 907.972656 299.058594 905.867188 298.785156 903.785156 298.324219 C 901.703125 297.863281 899.675781 297.21875 897.710938 296.394531 C 895.742188 295.574219 893.863281 294.582031 892.074219 293.421875 C 890.28125 292.261719 888.609375 290.953125 887.054688 289.492188 C 879.457031 282.472656 872.878906 274.363281 865.714844 266.863281 C 863.820312 264.878906 861.640625 262.839844 859.179688 261.773438 C 842.160156 254.390625 825.796875 246.042969 813.5625 231.550781 C 810.707031 228.167969 808.421875 224.21875 806.347656 220.28125 C 802.550781 213.082031 797.945312 206.570312 791.234375 201.90625 C 786.371094 198.523438 785.453125 194.128906 786.746094 188.871094 C 787.355469 186.390625 787.914062 183.796875 789.125 181.605469 C 790.347656 179.398438 792.351562 177.625 794.503906 175.082031 C 793.339844 165.066406 791.632812 153.832031 790.804688 142.535156 C 789.195312 120.527344 789.230469 98.488281 797.960938 77.722656 C 804.472656 62.234375 815.011719 49.371094 826.941406 37.539062 C 850.769531 13.914062 879.144531 1.25 912.796875 0.398438 C 916.613281 0.300781 919.222656 1.632812 921.609375 4.183594 C 928.679688 11.738281 932.738281 20.910156 935.792969 30.609375 C 939.75 43.183594 941.425781 56.113281 942.101562 69.285156 L 917.933594 72.109375 C 917.453125 72.164062 916.972656 72.191406 916.5 72.277344 C 908.285156 73.804688 908.003906 74.160156 909.011719 82.558594 C 909.742188 88.652344 910.566406 94.734375 912.144531 100.699219 C 912.460938 95.613281 912.761719 90.527344 913.097656 85.4375 C 913.398438 80.921875 915.941406 78.925781 920.359375 79.066406 C 933.808594 79.496094 947.304688 79.359375 960.691406 80.519531 C 971.480469 81.453125 982.242188 83.492188 992.816406 85.910156 C 1001.03125 87.789062 1001.019531 88.566406 1000.265625 96.875 C 999.199219 108.671875 998.191406 120.480469 997.003906 132.265625 C 996.761719 134.699219 995.855469 137.0625 995.070312 140.195312 C 985.089844 130.433594 972.757812 130.6875 961.167969 129.238281 C 936.523438 126.160156 911.738281 122.890625 886.921875 125.335938 C 876.203125 126.394531 868.695312 123.277344 861.832031 115.988281 C 860.90625 115.003906 858.859375 114.175781 857.65625 114.496094 C 850.289062 116.449219 842.863281 118.351562 835.769531 121.085938 C 831.125 122.875 829.207031 126.964844 829.210938 132.324219 C 829.210938 136.34375 828.078125 140.546875 826.613281 144.34375 C 825.171875 148.085938 825.675781 150.058594 829.273438 152.066406 C 834.140625 154.777344 838.554688 158.289062 843.273438 161.285156 C 846.441406 163.296875 846.882812 165.925781 846.570312 169.472656 C 844.925781 187.964844 843.585938 206.484375 842.078125 224.992188 C 841.539062 231.617188 843.8125 236.335938 849.496094 240.351562 C 863.828125 250.472656 879.109375 258.53125 895.828125 263.941406 C 887.996094 259.480469 879.984375 255.292969 872.378906 250.46875 C 865.238281 245.9375 858.410156 240.878906 851.707031 235.710938 C 850.183594 234.53125 848.847656 231.917969 848.933594 230.035156 C 849.484375 217.96875 850.457031 205.921875 851.234375 194.617188 L 890.433594 208.730469 L 891.078125 207.003906 C 889.023438 206.246094 886.957031 205.511719 884.917969 204.714844 C 882.679688 203.847656 880.40625 203.042969 878.25 201.992188 C 871.925781 198.921875 865.636719 195.769531 859.363281 192.59375 C 853.28125 189.515625 851.792969 184.347656 852.957031 178.058594 C 853.269531 176.367188 853.695312 174.695312 854.191406 172.484375 C 863.421875 178.746094 873.394531 182.390625 884.0625 184.101562 C 887.851562 184.710938 891.679688 185.402344 895.496094 185.441406 C 898.976562 185.476562 900.511719 186.980469 900.8125 190.15625 C 901.464844 197.003906 902.136719 203.855469 902.660156 210.71875 C 903.785156 225.566406 904.714844 240.429688 905.976562 255.265625 C 906.289062 258.984375 907.554688 262.617188 908.648438 267.464844 L 908.648438 215.625 C 938.390625 222.082031 967.78125 223.90625 997.355469 217.441406 C 995.71875 217.441406 994.074219 217.523438 992.441406 217.429688 C 970.703125 216.15625 948.964844 214.910156 927.234375 213.496094 C 924.242188 213.300781 921.265625 212.367188 918.355469 211.527344 C 910.714844 209.316406 907.058594 200.121094 911.203125 193.214844 C 911.730469 192.339844 913.820312 191.890625 915.085938 192.046875 C 932.085938 194.105469 949.042969 196.554688 966.066406 198.410156 C 981.007812 200.039062 995.816406 198.855469 1010.269531 194.417969 C 1010.832031 194.242188 1011.453125 194.269531 1013.25 194.0625 C 1009.113281 208.460938 1005.542969 222.347656 1001.0625 235.933594 C 998.40625 243.816406 994.988281 251.359375 990.808594 258.550781 C 989.046875 261.621094 985.09375 264.316406 981.59375 265.339844 C 970.125 268.703125 958.410156 271.21875 946.109375 274.226562 C 960.28125 274.140625 974.039062 274.492188 986.570312 268.449219 C 990.585938 266.511719 993.828125 261.726562 996.03125 257.519531 C 1005.128906 240.125 1010.339844 221.273438 1015.378906 202.425781 C 1019.382812 187.449219 1023.0625 172.378906 1026.636719 157.292969 C 1029.351562 145.828125 1024.757812 134.144531 1015.78125 128.652344 C 1015.171875 128.28125 1014.480469 128.046875 1012.691406 127.230469 C 1014.617188 130.179688 1015.957031 132.054688 1017.117188 134.039062 C 1022.128906 142.59375 1022.863281 151.492188 1017.503906 159.953125 C 1009.644531 172.363281 998.539062 181.417969 985.09375 189.242188 C 987.128906 182.820312 989.386719 177.40625 990.496094 171.769531 C 991.90625 164.601562 992.570312 157.265625 993.15625 149.96875 C 993.335938 147.726562 994.214844 146.621094 995.507812 144.929688 C 997.9375 141.738281 1000.199219 137.796875 1000.757812 133.910156 C 1002.957031 118.566406 1004.515625 103.128906 1006.144531 87.710938 C 1006.257812 86.648438 1005.265625 84.820312 1004.320312 84.398438 C 994.566406 80.070312 984.710938 75.957031 973.992188 71.40625 C 972.714844 50.140625 972.582031 26.921875 955.945312 7.699219 C 961.75 10.195312 967.796875 12.25 973.316406 15.265625 C 1000.863281 30.300781 1017.125 54.179688 1024.683594 83.957031 C 1027.929688 96.738281 1028.722656 110.132812 1030.730469 123.234375 C 1031.019531 125.089844 1031.605469 126.84375 1032.496094 128.496094 C 1036.5 135.832031 1038.511719 143.246094 1034.695312 151.367188 C 1034.113281 152.601562 1034.3125 154.46875 1034.738281 155.867188 C 1037.574219 165.148438 1037.339844 173.820312 1030.707031 181.667969 C 1029.5625 183.019531 1029.203125 185.136719 1028.777344 186.972656 C 1023.78125 208.492188 1018.441406 229.921875 1009.523438 250.21875 C 1006.714844 256.507812 1003.402344 262.523438 999.59375 268.261719 C 997.558594 271.359375 994.574219 274.652344 991.273438 275.90625 C 986.800781 277.609375 984.867188 280.789062 982.984375 284.429688 C 972.660156 304.386719 957.527344 318.769531 936.417969 327.398438 C 921.558594 333.46875 907.925781 342.109375 896.910156 354.164062 C 887.589844 364.367188 881.636719 376.1875 880.46875 390.15625 C 880.359375 391.273438 880.195312 392.382812 879.972656 393.480469 C 879.917969 393.753906 879.640625 393.988281 879.121094 394.746094 C 846.488281 380.441406 828.253906 353.132812 813.574219 322.53125 C 824.429688 370.265625 850.808594 406.472656 894.042969 431.308594 C 894.042969 421.042969 893.144531 411.554688 894.207031 402.289062 C 897.605469 372.667969 912.269531 351.628906 941.707031 342.226562 C 974.382812 331.792969 996.296875 309.28125 1011.277344 279.222656 C 1011.847656 278.078125 1012.714844 277.003906 1012.96875 275.792969 C 1014.976562 266.320312 1021.296875 264.648438 1029.890625 265.445312 C 1046.453125 266.980469 1063.09375 267.636719 1079.65625 269.191406 C 1094.554688 270.589844 1106.371094 278.46875 1116.757812 288.6875 C 1132.550781 304.230469 1146.785156 321.0625 1158.621094 339.851562 C 1160.066406 342.144531 1161.707031 344.3125 1163.269531 346.53125 C 1169.820312 355.839844 1171.382812 366.328125 1171.667969 377.476562 C 1172.082031 393.832031 1172.957031 410.132812 1169.410156 426.285156 C 1167.597656 434.519531 1163.21875 439.859375 1155.121094 443.40625 C 1131.246094 453.859375 1107.632812 464.921875 1084.148438 476.222656 C 1078.320312 479.027344 1073.253906 483.496094 1068.050781 487.476562 C 1066.03125 489.09375 1064.375 491.023438 1063.074219 493.261719 C 1059.316406 499.523438 1062.363281 505.371094 1069.4375 504.164062 C 1078.261719 502.691406 1086.785156 500.183594 1095.003906 496.644531 C 1119.167969 486.074219 1141.027344 471.472656 1162.527344 456.351562 C 1163.699219 455.53125 1164.878906 454.722656 1166.769531 453.410156 C 1169.558594 457.765625 1172.769531 461.765625 1174.886719 466.28125 C 1179.695312 476.542969 1184.25 486.945312 1188.363281 497.503906 C 1191.460938 505.457031 1188.953125 512.992188 1184.671875 519.90625 C 1176.679688 532.828125 1165.304688 542.460938 1153.300781 551.382812 C 1146.386719 556.523438 1139.164062 561.253906 1132.320312 566.515625 C 1159.933594 554.59375 1185.199219 539.324219 1204.261719 515.363281 C 1214.585938 522.25 1216.035156 535.894531 1206.371094 545.347656 C 1199.453125 552.050781 1191.761719 557.691406 1183.289062 562.273438 C 1166.101562 571.605469 1147.566406 577.832031 1128.703125 582.984375 C 1127.636719 583.273438 1126.675781 583.777344 1125.832031 584.488281 C 1160.964844 583.042969 1193.882812 573.480469 1225.464844 556.949219 C 1234.566406 582.730469 1242.558594 607.863281 1227.875 634.160156 C 1200.171875 623.617188 1172.796875 619.039062 1144.820312 630.113281 C 1144.804688 630.660156 1144.789062 631.207031 1144.777344 631.753906 C 1150.875 631.753906 1157.039062 631.1875 1163.058594 631.867188 C 1177.34375 633.480469 1191.570312 635.632812 1205.796875 637.707031 C 1207.976562 638.027344 1210.09375 638.988281 1212.160156 639.84375 C 1223.703125 644.617188 1227.03125 648.5 1226.113281 660.890625 C 1224.804688 678.578125 1223.140625 696.339844 1219.917969 713.753906 C 1215.324219 738.601562 1214.886719 763.246094 1217.652344 788.300781 C 1220.285156 812.164062 1222.777344 836.183594 1222.875 860.148438 C 1223.027344 898.414062 1198.035156 942.226562 1153.308594 953.984375 C 1150.214844 954.796875 1146.972656 955.175781 1143.996094 956.285156 C 1138.570312 958.308594 1135.347656 955.15625 1132.613281 951.554688 C 1129.425781 947.347656 1132.320312 944.464844 1136.011719 941.996094 C 1134.773438 939.6875 1133.648438 937.601562 1132.53125 935.511719 C 1129.507812 929.851562 1131.042969 926.015625 1136.765625 923.105469 C 1141.960938 920.464844 1147.222656 917.703125 1151.804688 914.15625 C 1162.445312 905.910156 1163.738281 893.988281 1163.273438 881.664062 C 1163.128906 880.355469 1162.554688 879.28125 1161.546875 878.4375 C 1157.136719 874.980469 1153.3125 871.300781 1153.316406 865.09375 C 1153.316406 864.15625 1152.320312 863.21875 1150.988281 860.886719 C 1148.808594 864.40625 1146.8125 866.929688 1145.5625 869.789062 C 1142.492188 876.792969 1139.621094 883.886719 1136.945312 891.0625 C 1133.75 899.625 1118.269531 903.121094 1112.039062 901.699219 C 1110.65625 901.269531 1109.605469 900.421875 1108.890625 899.164062 C 1106.453125 894.667969 1107.554688 885.402344 1111.179688 881.941406 C 1118 875.425781 1120.203125 867.257812 1121.210938 858.222656 C 1122.945312 842.664062 1127.253906 827.800781 1135.429688 814.285156 C 1140.875 805.289062 1148.007812 803.503906 1156.957031 808.9375 C 1165.617188 814.199219 1170.933594 821.582031 1170.285156 832.21875 C 1169.773438 840.648438 1169.132812 849.070312 1168.550781 857.398438 C 1176.417969 843.746094 1178.816406 818.445312 1167.632812 804.273438 C 1162.996094 798.394531 1157.628906 795.542969 1150.167969 797.140625 C 1148.644531 797.46875 1147.089844 797.621094 1145.515625 797.859375 C 1147.890625 791.449219 1150.460938 785.296875 1152.4375 778.957031 C 1154.816406 771.320312 1154.308594 763.730469 1152.582031 755.792969 C 1150.207031 744.890625 1148.378906 733.691406 1148.019531 722.566406 C 1147.304688 700.355469 1140.695312 679.519531 1135.535156 658.234375 C 1130.917969 639.171875 1128.433594 619.601562 1124.808594 600.292969 C 1124.292969 597.488281 1123.175781 594.953125 1121.449219 592.683594 C 1116.679688 586.695312 1113.769531 580.03125 1113.691406 572.453125 C 1113.65625 569.03125 1112.152344 567.328125 1109.773438 565.449219 C 1086.15625 546.796875 1064.484375 526.214844 1047.324219 501.292969 C 1038.921875 489.085938 1032.261719 476.03125 1029.058594 461.375 C 1028.765625 480.726562 1032.09375 499.285156 1042.058594 517.230469 C 1014.035156 520.953125 988.367188 518.910156 967.355469 497.976562 C 980.402344 518.703125 1001.332031 528.273438 1024.054688 537.378906 C 972.195312 610.246094 903.996094 654.382812 814.257812 663.566406 C 817.894531 663.964844 821.527344 664.453125 825.175781 664.742188 C 828.851562 665.035156 832.539062 665.3125 836.222656 665.292969 C 871.796875 665.101562 905.707031 656.769531 938.414062 643.429688 C 954.835938 636.734375 970.753906 628.796875 987.355469 621.210938 C 986.097656 625.417969 984.957031 629.734375 983.523438 633.949219 C 969.464844 675.273438 955.351562 716.578125 941.183594 757.859375 C 939.105469 763.875 935.902344 769.5 933.261719 775.328125 C 931.871094 778.402344 929.574219 780.023438 926.179688 780.179688 C 911.308594 780.867188 896.429688 782.390625 881.574219 782.148438 C 824.667969 781.210938 769.589844 770.875 717.035156 748.449219 C 715.320312 747.71875 713.582031 747.027344 711.855469 746.320312 L 710.832031 747.480469 C 711.835938 748.046875 712.804688 748.664062 713.742188 749.339844 C 729.886719 762.328125 748.6875 770 768.171875 776.105469 C 801.199219 786.460938 835.203125 791.5625 869.65625 793.605469 C 888.851562 794.746094 908.09375 795.222656 927.320312 795.472656 C 932.050781 795.53125 933.667969 797.007812 934.472656 801.335938 C 939.429688 827.863281 936.503906 853.398438 924.375 877.53125 C 920.066406 886.140625 914.980469 894.265625 909.125 901.90625 C 880.078125 939.582031 850.949219 977.195312 821.265625 1014.367188 C 808.582031 1030.253906 794.722656 1045.390625 777.933594 1057.105469 C 768.421875 1063.746094 757.117188 1067.808594 747.585938 1074.425781 C 728.800781 1087.46875 710.691406 1101.484375 692.292969 1115.085938 C 691.519531 1115.597656 690.722656 1116.070312 689.898438 1116.5 L 690.792969 1117.507812 C 699.886719 1111.4375 708.703125 1104.894531 718.132812 1099.402344 C 734.421875 1089.917969 751.042969 1080.996094 767.648438 1072.074219 C 770.378906 1070.605469 773.71875 1070.203125 776.828125 1069.539062 C 786.324219 1067.511719 794.050781 1062.152344 800.285156 1055.273438 C 811.773438 1042.601562 822.589844 1029.3125 833.460938 1016.097656 C 836.128906 1012.855469 838.15625 1010.15625 843.132812 1009.730469 C 849.710938 1009.164062 855.953125 1006.679688 857.738281 998.773438 C 858.070312 997.304688 859.613281 995.546875 861.023438 994.96875 C 873.574219 989.820312 885.957031 984.019531 898.90625 980.152344 C 914.402344 975.527344 930.121094 987.414062 931.261719 1003.515625 C 931.484375 1006.664062 932.203125 1008.636719 935.402344 1009.410156 C 936.457031 1009.664062 937.667969 1010.175781 938.339844 1010.964844 C 939.894531 1012.785156 942.160156 1014.816406 942.234375 1016.828125 C 942.289062 1018.417969 939.808594 1020.730469 937.933594 1021.640625 C 930.269531 1025.359375 930.195312 1025.207031 926.75 1034.160156 C 928.171875 1035.15625 929.957031 1036.003906 931.148438 1037.367188 C 932.28125 1038.664062 933.691406 1040.75 933.339844 1042.042969 C 932.953125 1043.457031 930.734375 1044.429688 929.21875 1045.449219 C 928.613281 1045.746094 927.988281 1045.804688 927.339844 1045.617188 C 920.5 1043.894531 917.246094 1048.207031 914.050781 1053.113281 C 903.851562 1068.753906 898.46875 1091.550781 901.097656 1109.277344 C 902.132812 1109.199219 903.359375 1108.746094 904.222656 1109.121094 C 906.226562 1109.988281 909.226562 1110.914062 909.667969 1112.441406 C 910.234375 1114.386719 908.71875 1116.960938 907.996094 1119.230469 C 907.886719 1119.582031 907.257812 1119.925781 906.824219 1119.996094 C 899.316406 1121.210938 900.460938 1126.417969 902.410156 1130.902344 C 903.769531 1132.828125 906.574219 1135.179688 906.160156 1136.578125 C 905.496094 1138.828125 902.703125 1140.449219 900.203125 1141.5625 L 890.988281 1160.722656 C 893.78125 1165.070312 893.171875 1166.320312 887.699219 1167.863281 C 886.152344 1168.300781 884.707031 1170.019531 883.75 1171.496094 C 874.070312 1186.453125 849.820312 1189.171875 837.964844 1183 C 830.8125 1179.273438 824.265625 1170.8125 827.320312 1160.277344 C 830.253906 1150.15625 832.757812 1139.875 834.785156 1129.535156 C 835.679688 1124.988281 834.9375 1120.117188 834.9375 1114.949219 C 837.296875 1114.546875 840.578125 1114.191406 843.757812 1113.417969 C 856.628906 1110.273438 865.917969 1102.144531 872.964844 1091.394531 C 885.398438 1072.425781 888.785156 1051.472656 885.332031 1029.332031 C 884.484375 1023.898438 882.453125 1018.664062 875.886719 1016.613281 C 877.558594 1022.253906 879.371094 1027.3125 880.546875 1032.519531 C 883.925781 1047.476562 879.277344 1061.335938 874.164062 1075.050781 C 872.667969 1078.933594 870.96875 1082.722656 869.074219 1086.425781 C 862.878906 1098.886719 852.714844 1105.738281 838.976562 1107.523438 C 828.855469 1108.835938 819.007812 1107.425781 809.203125 1104.976562 C 827.546875 1103.996094 844.460938 1100.617188 853.285156 1081.695312 C 845.46875 1090.382812 835.515625 1095.03125 824.132812 1096.011719 C 816.027344 1096.710938 807.792969 1096.511719 799.648438 1096.105469 C 782.808594 1095.261719 765.835938 1093.8125 749.855469 1100.566406 C 738.984375 1105.164062 728.804688 1111.382812 718.054688 1116.3125 C 700.929688 1124.160156 683.585938 1131.539062 666.332031 1139.113281 C 666.109375 1138.773438 665.886719 1138.433594 665.664062 1138.09375 C 669.8125 1132.800781 674.128906 1127.632812 678.078125 1122.195312 C 686.851562 1110.105469 695 1097.621094 698.210938 1082.714844 C 700.703125 1071.136719 698.167969 1061.394531 688.210938 1053.773438 C 670.59375 1040.289062 650.753906 1031.914062 628.128906 1026.308594 C 629.632812 1027.421875 630.113281 1027.851562 630.660156 1028.15625 C 631.355469 1028.546875 632.113281 1028.824219 632.828125 1029.175781 C 662.730469 1043.84375 675.734375 1071.964844 667.632812 1104.265625 C 663.488281 1120.78125 656.214844 1135.96875 646.558594 1149.777344 C 637.03125 1163.398438 626.15625 1176.074219 616.074219 1189.316406 C 613.394531 1192.835938 610.1875 1193.5 606.417969 1192.46875 C 600.910156 1190.960938 595.492188 1189.144531 589.734375 1187.371094 C 586.351562 1200.375 580.738281 1212.5625 573.488281 1224.191406 C 570.210938 1229.445312 565.953125 1230.5625 560.828125 1231.140625 C 534.222656 1234.148438 509.980469 1228 488.222656 1212.304688 C 487.394531 1211.644531 486.457031 1211.402344 485.410156 1211.574219 C 486.917969 1213.054688 488.382812 1214.582031 489.941406 1216 C 506.367188 1230.910156 526.273438 1238.070312 547.691406 1241.804688 C 551.789062 1242.519531 555.917969 1243.160156 560.058594 1243.492188 C 562.699219 1243.703125 563.792969 1245.164062 562.988281 1247.199219 C 561.621094 1250.648438 560.445312 1255.390625 557.714844 1256.878906 C 545.933594 1263.292969 538.734375 1274.304688 529.488281 1283.214844 C 504.195312 1307.601562 475.117188 1326.214844 443.382812 1341.101562 C 420.605469 1351.789062 398.472656 1363.75 378.667969 1379.519531 C 375.671875 1381.90625 372.894531 1384.5625 368.660156 1388.285156 C 368.472656 1383.410156 367.691406 1379.570312 368.304688 1375.960938 C 370.261719 1364.386719 376.292969 1354.496094 384.0625 1346.191406 C 396.289062 1333.121094 409.492188 1320.964844 422.316406 1308.457031 C 423.945312 1306.867188 425.789062 1305.496094 426.851562 1303.109375 C 420.753906 1306.75 414.855469 1310.785156 408.523438 1313.953125 C 391.800781 1322.324219 374.960938 1330.460938 358.003906 1338.355469 C 354.316406 1340.078125 350.019531 1340.972656 345.933594 1341.238281 C 341.648438 1341.523438 337.277344 1340.597656 332.542969 1340.160156 C 335.761719 1361.027344 349.757812 1376.117188 364.085938 1391.378906 C 334.523438 1400.210938 311.742188 1418.167969 292.074219 1442.441406 C 292.613281 1438.503906 293.070312 1435.679688 293.367188 1432.832031 C 293.6875 1429.808594 294.136719 1426.757812 294.042969 1423.734375 C 293.8125 1416.398438 294.003906 1408.953125 292.75 1401.777344 C 290.421875 1388.414062 284.785156 1383.351562 271.417969 1381.648438 C 261.472656 1380.378906 252.558594 1383.328125 243.59375 1389.898438 C 250.199219 1389.230469 255.648438 1388.527344 261.121094 1388.160156 C 271.070312 1387.496094 277.996094 1391.800781 281.894531 1401.074219 C 289.609375 1419.363281 291.191406 1437.730469 281.59375 1455.714844 C 278.175781 1462.125 273.335938 1467.878906 268.570312 1473.4375 C 264.269531 1478.453125 259.285156 1482.910156 254.414062 1487.410156 C 246.203125 1494.992188 236.34375 1494.386719 226.328125 1492.699219 C 211.851562 1490.261719 200.765625 1483.757812 194.804688 1469.324219 C 190.375 1458.601562 174.011719 1454.015625 163.789062 1459.597656 C 160.496094 1461.394531 159.359375 1464.808594 162.347656 1468.101562 C 167.351562 1473.613281 172.789062 1478.953125 178.839844 1483.253906 C 184.636719 1487.410156 190.835938 1490.847656 197.433594 1493.566406 C 204.03125 1496.285156 210.851562 1498.210938 217.898438 1499.34375 C 191.828125 1501.1875 169.8125 1493.988281 155.183594 1470.757812 C 146.085938 1456.308594 148.851562 1446.359375 164.222656 1438.898438 C 168.753906 1436.699219 173.871094 1435.6875 178.746094 1434.210938 C 189.636719 1430.910156 198.3125 1436.324219 207.066406 1441.457031 C 219.9375 1449.011719 230.792969 1458.859375 240.316406 1470.839844 C 237.207031 1459.910156 217.949219 1440.664062 197.730469 1428.0625 C 206.914062 1423.023438 212.054688 1414.980469 216.042969 1405.703125 C 218.515625 1400.136719 221.667969 1394.984375 225.492188 1390.246094 C 227.503906 1387.703125 231.1875 1386.429688 234.214844 1384.769531 C 238.195312 1382.59375 242.457031 1380.882812 246.25 1378.4375 C 249.179688 1376.550781 251.609375 1373.878906 254.199219 1371.488281 C 259.042969 1367.023438 264.175781 1363.757812 270.953125 1362.066406 C 293.492188 1356.441406 311.855469 1343.3125 326.070312 1325.53125 C 338.824219 1309.582031 349.691406 1292.09375 360.894531 1274.957031 C 378.421875 1248.144531 397.542969 1222.769531 422.636719 1202.421875 C 436.007812 1191.578125 450.546875 1182.628906 465.878906 1174.828125 C 470.007812 1172.730469 474.101562 1169.742188 476.976562 1166.171875 C 482.761719 1159 487.703125 1151.140625 492.960938 1143.609375 C 499.285156 1176.898438 525.039062 1191.5 553.070312 1203.777344 L 554.523438 1202.351562 C 553.90625 1202.085938 553.273438 1201.847656 552.679688 1201.539062 C 552.117188 1201.230469 551.570312 1200.894531 551.042969 1200.527344 C 535.949219 1190.332031 521.886719 1178.964844 511.277344 1163.957031 C 504.710938 1154.667969 499.878906 1144.589844 500.632812 1132.765625 C 500.78125 1130.441406 501.214844 1127.859375 502.382812 1125.921875 C 521.78125 1093.773438 544.109375 1064.015625 573.589844 1040.246094 C 585.507812 1030.636719 598.445312 1022.804688 613.125 1017.972656 C 614.878906 1017.394531 616.546875 1014.976562 617.257812 1013.046875 C 625.253906 991.304688 632.679688 969.34375 641.011719 947.738281 C 650.289062 923.691406 666.03125 905.089844 688.417969 891.597656 C 710.023438 878.574219 731.394531 865.285156 756.601562 860.675781 C 766.539062 858.859375 776.851562 859.082031 786.820312 858.386719 C 781.753906 857.65625 776.277344 856.464844 770.746094 856.136719 C 745.929688 854.65625 723.289062 862.191406 701.828125 873.757812 C 671.84375 889.921875 646.6875 912.128906 623.976562 937.230469 C 579.195312 986.722656 541.164062 1041.171875 506.300781 1097.929688 C 503.394531 1102.660156 500.476562 1107.382812 496.847656 1113.265625 C 496.242188 1106.828125 495.558594 1101.558594 495.269531 1096.269531 C 494.320312 1078.824219 493.0625 1061.292969 496.804688 1044.066406 C 498.246094 1037.839844 500.726562 1032.058594 504.242188 1026.722656 C 511.273438 1015.914062 515.671875 1004.527344 514.964844 991.566406 C 514.808594 988.695312 513.546875 985.738281 512.214844 983.117188 C 510.554688 979.851562 508.15625 976.972656 506.320312 973.789062 C 502.847656 967.769531 501.359375 961.484375 503.34375 954.480469 C 508.394531 936.640625 513.308594 918.761719 518.085938 900.847656 C 524.34375 877.332031 532.117188 854.332031 542.183594 832.191406 C 545.914062 824.039062 550.351562 816.285156 555.492188 808.9375 C 561.667969 800.078125 565.933594 799.464844 575.566406 804.089844 C 594.492188 813.179688 603.234375 833.46875 601.039062 855.226562 C 600.179688 863.742188 598.03125 872.125 596.464844 880.613281 C 604.605469 868.234375 613.636719 856.742188 630.832031 857.472656 C 625.6875 848.945312 620.324219 840.6875 615.601562 832.085938 C 605.617188 813.902344 598.96875 794.660156 598.90625 773.632812 C 598.875 768.488281 599.425781 763.40625 600.558594 758.386719 C 601.691406 753.367188 603.378906 748.542969 605.617188 743.90625 C 615.125 724.171875 631.910156 718.285156 652.472656 726.851562 C 670.527344 734.375 685.296875 746.640625 700.300781 758.667969 C 712.242188 768.238281 725.855469 774.175781 741 776.820312 C 709.242188 763.347656 685.421875 741.527344 670.378906 711.074219 C 682.019531 707.101562 693.683594 703.742188 704.839844 699.144531 C 717.316406 694.003906 728.351562 686.480469 734.730469 673.953125 C 739.605469 664.378906 741.597656 653.90625 741.933594 643.320312 C 743.515625 592.894531 723.734375 553.222656 681.398438 525.28125 C 677.773438 522.890625 675.832031 520.441406 675.253906 515.957031 C 672.777344 496.828125 671.78125 477.71875 673.394531 458.449219 C 674.957031 439.777344 683.328125 424.433594 696.207031 411.503906 C 706.902344 400.761719 718.347656 390.761719 728.363281 381.457031 C 720.414062 382.832031 694.042969 402.855469 677.164062 421.621094 C 680.320312 413.859375 683.289062 407.113281 685.824219 400.210938 C 690.140625 388.460938 694.160156 376.542969 693.015625 363.78125 C 692.65625 359.9375 691.425781 356.398438 689.328125 353.160156 C 685.660156 347.679688 680.132812 347.976562 677.96875 354.101562 C 675.070312 362.234375 673.082031 370.582031 672.011719 379.148438 C 670.480469 391.84375 670.160156 404.683594 669.367188 416.8125 C 667.191406 410.742188 665.304688 403.710938 662.1875 397.277344 C 659.277344 391.214844 655.652344 385.613281 651.3125 380.476562 C 644.972656 373.078125 634.804688 371.566406 626.289062 375.664062 C 621.050781 378.1875 618.613281 382.496094 620.878906 387.8125 C 623.160156 393.167969 625.9375 398.78125 629.964844 402.828125 C 639.988281 412.910156 650.839844 422.167969 661.378906 431.738281 C 662.53125 432.785156 663.792969 433.710938 665.859375 435.390625 C 650.210938 446.132812 635.414062 457.082031 619.820312 466.75 C 607.226562 474.558594 593.824219 481.128906 580.503906 487.6875 C 567.429688 494.128906 555.707031 490.652344 546.070312 480.53125 C 540.371094 474.542969 535.417969 467.796875 530.535156 461.09375 C 522.03125 449.433594 511.695312 440.1875 497.992188 435.179688 C 491.851562 432.917969 485.175781 433.144531 479.804688 435.515625 Z M 479.804688 435.515625 " fill-opacity="1" fill-rule="nonzero"/><path fill="#000000" d="M 479.804688 435.515625 C 490.898438 437.054688 500.804688 440.457031 509.527344 446.820312 C 525 458.109375 531.34375 474.386719 534.054688 492.46875 C 536.816406 510.90625 534.679688 528.84375 527.773438 546.222656 C 522.800781 558.738281 515.109375 560.757812 504.664062 552.101562 C 504.269531 551.835938 503.859375 551.605469 503.429688 551.410156 C 504.347656 564.101562 514.148438 570.675781 525.523438 565.734375 C 534.453125 561.855469 542.800781 556.648438 551.691406 552.671875 C 561.132812 548.445312 570.730469 544.351562 580.628906 541.460938 C 585.003906 540.183594 590.445312 541.410156 595.128906 542.585938 C 601.457031 544.183594 607.453125 547.0625 613.734375 548.917969 C 616.984375 549.878906 617.289062 551.324219 616.363281 554.136719 C 614.347656 560.257812 610.40625 564.429688 604.15625 565.886719 C 599.984375 566.863281 595.648438 567.285156 591.363281 567.597656 C 582.675781 568.226562 574.59375 570.113281 568.328125 576.78125 C 559.648438 586.023438 561.289062 597.867188 573.570312 604.449219 C 589.503906 612.988281 606.527344 618.277344 624.394531 621.085938 C 631.582031 622.21875 636.75 619.96875 640.945312 614.128906 C 653.9375 596.0625 654.34375 568.871094 640.925781 552.699219 C 636.796875 547.71875 631.820312 543.832031 625.988281 541.027344 C 607.714844 532.566406 588.425781 529.644531 568.421875 533.558594 C 558.425781 535.511719 549.742188 539.992188 542.597656 547.445312 C 546.519531 539.339844 552.304688 532.820312 559.355469 527.355469 C 575.542969 514.808594 594.234375 511.347656 613.894531 513.984375 C 644.0625 518.027344 671.300781 529.527344 694.363281 549.679688 C 721.023438 572.980469 732.039062 603.101562 730.855469 637.917969 C 730.507812 648.066406 728.652344 658.15625 727.488281 668.273438 L 725.953125 668.484375 C 722.191406 664.667969 718.265625 660.992188 714.789062 656.929688 C 713.980469 655.984375 714.417969 653.65625 714.777344 652.074219 C 720.394531 627.3125 716.625 603.828125 705.175781 581.324219 C 713.582031 603.75 715.621094 626.253906 706.347656 649.738281 C 690.414062 635.40625 673.605469 623.207031 654.273438 614.683594 C 658.816406 618.246094 663.488281 621.652344 667.875 625.398438 C 677.011719 633.191406 686.199219 640.945312 694.972656 649.140625 C 701.382812 655.128906 701.335938 657.894531 695.761719 664.675781 C 688.347656 673.703125 678.769531 679.609375 667.691406 683.183594 L 668.003906 684.351562 C 673.308594 683.054688 678.90625 682.433594 683.851562 680.300781 C 691.445312 677.03125 698.691406 672.894531 705.886719 668.78125 C 709.816406 666.53125 714.492188 667.023438 718.03125 670.945312 C 721.609375 674.914062 718.144531 677.550781 715.863281 679.882812 C 707.957031 687.96875 697.78125 691.832031 687.015625 694.152344 C 674.554688 696.835938 661.960938 697.078125 648.820312 695.597656 C 658.792969 673.160156 661.742188 651.40625 646.542969 630.128906 C 646.125 630.707031 645.8125 630.949219 645.847656 631.121094 C 648.0625 642.082031 644.597656 646.574219 633.324219 646.28125 C 616.726562 645.855469 600.078125 645.550781 583.816406 641.082031 C 596.875 652.121094 610.472656 661.917969 628.480469 662.894531 C 635.054688 663.246094 641.132812 665.183594 645.539062 670.484375 C 648.460938 674.003906 649.9375 678.019531 647.921875 682.492188 C 645.933594 686.902344 641.949219 688.570312 637.578125 687.773438 C 625.347656 685.542969 613.207031 682.863281 601.035156 680.332031 C 599.375 679.988281 597.75 679.480469 596.113281 679.050781 L 595.699219 680.53125 L 638.894531 692.96875 C 640.582031 698.109375 637.96875 703.265625 630.9375 703.667969 C 623.597656 704.082031 616.046875 702.925781 608.777344 701.5 C 604.691406 700.699219 601.398438 699.167969 597.34375 702.160156 C 592.605469 705.660156 587.476562 704.015625 583.097656 700.730469 C 576.4375 695.738281 569.488281 691.003906 563.484375 685.292969 C 554.554688 676.800781 544.265625 670.542969 533.785156 664.3125 C 516.621094 654.109375 499.582031 643.671875 482.921875 632.671875 C 476.316406 628.3125 470.675781 622.394531 464.960938 616.808594 C 459.867188 611.824219 458.246094 605.164062 458.375 598.273438 C 458.507812 591.203125 456.640625 585.234375 452.035156 579.695312 C 449.28125 576.3125 447.375 572.503906 446.316406 568.273438 C 442.78125 553.835938 439.632812 539.300781 436.753906 524.71875 C 435.949219 520.429688 435.886719 516.132812 436.566406 511.824219 C 438.660156 498.308594 446.976562 491.855469 463.203125 490.640625 C 473.628906 489.855469 484.015625 489.765625 494.0625 493.390625 C 494.425781 493.519531 494.921875 493.277344 496.171875 493.078125 C 473.328125 480.800781 451.679688 482.488281 429.472656 495.628906 C 429.472656 488.675781 429.171875 482.515625 429.539062 476.394531 C 430.15625 466.152344 431.3125 456.003906 436.476562 446.738281 C 439.9375 440.523438 444.957031 437.578125 452.019531 437.304688 C 454.0625 437.226562 456.464844 436.050781 457.988281 434.617188 C 470.675781 422.664062 482.996094 410.3125 495.890625 398.589844 C 499.59375 395.226562 504.8125 393.527344 510.007812 390.695312 C 514.84375 406.695312 518.9375 421.464844 528.304688 433.996094 C 526.667969 428.386719 524.886719 422.816406 523.445312 417.160156 C 522.339844 412.835938 521.605469 408.410156 520.804688 404.011719 C 518.125 389.261719 525.628906 378.542969 535.585938 369.4375 C 542.136719 363.550781 549.25 358.445312 556.929688 354.121094 C 563.042969 350.625 570.117188 348.808594 577.03125 346.144531 C 587.121094 369.46875 594.023438 394.035156 615.113281 410.253906 C 612.695312 405.113281 610.222656 400 607.863281 394.832031 C 599.605469 376.761719 592.085938 358.429688 588.746094 338.691406 C 586.328125 324.382812 588.5 310.257812 590.976562 296.210938 C 594.464844 276.449219 599.636719 257.175781 608.613281 239.085938 C 613.980469 228.265625 621.519531 220.773438 633.996094 217.730469 C 666.285156 209.851562 698.78125 204.914062 732.003906 208.898438 C 757.003906 211.894531 780.554688 220.199219 803.199219 230.988281 C 804.835938 231.769531 805.667969 235 806.183594 237.25 C 809.929688 253.582031 812.75 270.171875 817.324219 286.261719 C 819.820312 295.167969 823.269531 303.691406 827.667969 311.828125 C 832.066406 319.964844 837.308594 327.519531 843.394531 334.484375 C 845.492188 336.886719 847.875 339.039062 850.164062 341.269531 C 853.636719 344.660156 857.035156 347.941406 862.660156 345.410156 C 863.570312 345.058594 864.515625 344.882812 865.492188 344.882812 C 866.472656 344.882812 867.417969 345.058594 868.328125 345.410156 C 873.046875 347.378906 874.902344 344.753906 877.277344 341.339844 C 886.019531 328.78125 897.375 319.664062 912.28125 315 C 930.816406 309.199219 947.140625 299.691406 959.679688 284.460938 C 960.695312 283.230469 961.613281 281.910156 962.515625 280.589844 C 962.699219 280.230469 962.8125 279.851562 962.859375 279.453125 C 958.082031 279.453125 953.320312 279.269531 948.585938 279.574219 C 947.34375 279.65625 945.980469 281.0625 945.042969 282.171875 C 935.882812 292.984375 924.839844 299.789062 910.105469 299.140625 C 907.972656 299.058594 905.867188 298.785156 903.785156 298.324219 C 901.703125 297.863281 899.675781 297.21875 897.710938 296.394531 C 895.742188 295.574219 893.863281 294.582031 892.074219 293.421875 C 890.28125 292.261719 888.609375 290.953125 887.054688 289.492188 C 879.457031 282.472656 872.878906 274.363281 865.714844 266.863281 C 863.820312 264.878906 861.640625 262.839844 859.179688 261.773438 C 842.160156 254.390625 825.796875 246.042969 813.5625 231.550781 C 810.707031 228.167969 808.421875 224.21875 806.347656 220.28125 C 802.550781 213.082031 797.945312 206.570312 791.234375 201.90625 C 786.371094 198.523438 785.453125 194.128906 786.746094 188.871094 C 787.355469 186.390625 787.914062 183.796875 789.125 181.605469 C 790.347656 179.398438 792.351562 177.625 794.503906 175.082031 C 793.339844 165.066406 791.632812 153.832031 790.804688 142.535156 C 789.195312 120.527344 789.230469 98.488281 797.960938 77.722656 C 804.472656 62.234375 815.011719 49.371094 826.941406 37.539062 C 850.769531 13.914062 879.144531 1.25 912.796875 0.398438 C 916.613281 0.300781 919.222656 1.632812 921.609375 4.183594 C 928.679688 11.738281 932.738281 20.910156 935.792969 30.609375 C 939.75 43.183594 941.425781 56.113281 942.101562 69.285156 L 917.933594 72.109375 C 917.453125 72.164062 916.972656 72.191406 916.5 72.277344 C 908.285156 73.804688 908.003906 74.160156 909.011719 82.558594 C 909.742188 88.652344 910.566406 94.734375 912.144531 100.699219 C 912.460938 95.613281 912.761719 90.527344 913.097656 85.4375 C 913.398438 80.921875 915.941406 78.925781 920.359375 79.066406 C 933.808594 79.496094 947.304688 79.359375 960.691406 80.519531 C 971.480469 81.453125 982.242188 83.492188 992.816406 85.910156 C 1001.03125 87.789062 1001.019531 88.566406 1000.265625 96.875 C 999.199219 108.671875 998.191406 120.480469 997.003906 132.265625 C 996.761719 134.699219 995.855469 137.0625 995.070312 140.195312 C 985.089844 130.433594 972.757812 130.6875 961.167969 129.238281 C 936.523438 126.160156 911.738281 122.890625 886.921875 125.335938 C 876.203125 126.394531 868.695312 123.277344 861.832031 115.988281 C 860.90625 115.003906 858.859375 114.175781 857.65625 114.496094 C 850.289062 116.449219 842.863281 118.351562 835.769531 121.085938 C 831.125 122.875 829.207031 126.964844 829.210938 132.324219 C 829.210938 136.34375 828.078125 140.546875 826.613281 144.34375 C 825.171875 148.085938 825.675781 150.058594 829.273438 152.066406 C 834.140625 154.777344 838.554688 158.289062 843.273438 161.285156 C 846.441406 163.296875 846.882812 165.925781 846.570312 169.472656 C 844.925781 187.964844 843.585938 206.484375 842.078125 224.992188 C 841.539062 231.617188 843.8125 236.335938 849.496094 240.351562 C 863.828125 250.472656 879.109375 258.53125 895.828125 263.941406 C 887.996094 259.480469 879.984375 255.292969 872.378906 250.46875 C 865.238281 245.9375 858.410156 240.878906 851.707031 235.710938 C 850.183594 234.53125 848.847656 231.917969 848.933594 230.035156 C 849.484375 217.96875 850.457031 205.921875 851.234375 194.617188 L 890.433594 208.730469 L 891.078125 207.003906 C 889.023438 206.246094 886.957031 205.511719 884.917969 204.714844 C 882.679688 203.847656 880.40625 203.042969 878.25 201.992188 C 871.925781 198.921875 865.636719 195.769531 859.363281 192.59375 C 853.28125 189.515625 851.792969 184.347656 852.957031 178.058594 C 853.269531 176.367188 853.695312 174.695312 854.191406 172.484375 C 863.421875 178.746094 873.394531 182.390625 884.0625 184.101562 C 887.851562 184.710938 891.679688 185.402344 895.496094 185.441406 C 898.976562 185.476562 900.511719 186.980469 900.8125 190.15625 C 901.464844 197.003906 902.136719 203.855469 902.660156 210.71875 C 903.785156 225.566406 904.714844 240.429688 905.976562 255.265625 C 906.289062 258.984375 907.554688 262.617188 908.648438 267.464844 L 908.648438 215.625 C 938.390625 222.082031 967.78125 223.90625 997.355469 217.441406 C 995.71875 217.441406 994.074219 217.523438 992.441406 217.429688 C 970.703125 216.15625 948.964844 214.910156 927.234375 213.496094 C 924.242188 213.300781 921.265625 212.367188 918.355469 211.527344 C 910.714844 209.316406 907.058594 200.121094 911.203125 193.214844 C 911.730469 192.339844 913.820312 191.890625 915.085938 192.046875 C 932.085938 194.105469 949.042969 196.554688 966.066406 198.410156 C 981.007812 200.039062 995.816406 198.855469 1010.269531 194.417969 C 1010.832031 194.242188 1011.453125 194.269531 1013.25 194.0625 C 1009.113281 208.460938 1005.542969 222.347656 1001.0625 235.933594 C 998.40625 243.816406 994.988281 251.359375 990.808594 258.550781 C 989.046875 261.621094 985.09375 264.316406 981.59375 265.339844 C 970.125 268.703125 958.410156 271.21875 946.109375 274.226562 C 960.28125 274.140625 974.039062 274.492188 986.570312 268.449219 C 990.585938 266.511719 993.828125 261.726562 996.03125 257.519531 C 1005.128906 240.125 1010.339844 221.273438 1015.378906 202.425781 C 1019.382812 187.449219 1023.0625 172.378906 1026.636719 157.292969 C 1029.351562 145.828125 1024.757812 134.144531 1015.78125 128.652344 C 1015.171875 128.28125 1014.480469 128.046875 1012.691406 127.230469 C 1014.617188 130.179688 1015.957031 132.054688 1017.117188 134.039062 C 1022.128906 142.59375 1022.863281 151.492188 1017.503906 159.953125 C 1009.644531 172.363281 998.539062 181.417969 985.09375 189.242188 C 987.128906 182.820312 989.386719 177.40625 990.496094 171.769531 C 991.90625 164.601562 992.570312 157.265625 993.15625 149.96875 C 993.335938 147.726562 994.214844 146.621094 995.507812 144.929688 C 997.9375 141.738281 1000.199219 137.796875 1000.757812 133.910156 C 1002.957031 118.566406 1004.515625 103.128906 1006.144531 87.710938 C 1006.257812 86.648438 1005.265625 84.820312 1004.320312 84.398438 C 994.566406 80.070312 984.710938 75.957031 973.992188 71.40625 C 972.714844 50.140625 972.582031 26.921875 955.945312 7.699219 C 961.75 10.195312 967.796875 12.25 973.316406 15.265625 C 1000.863281 30.300781 1017.125 54.179688 1024.683594 83.957031 C 1027.929688 96.738281 1028.722656 110.132812 1030.730469 123.234375 C 1031.019531 125.089844 1031.605469 126.84375 1032.496094 128.496094 C 1036.5 135.832031 1038.511719 143.246094 1034.695312 151.367188 C 1034.113281 152.601562 1034.3125 154.46875 1034.738281 155.867188 C 1037.574219 165.148438 1037.339844 173.820312 1030.707031 181.667969 C 1029.5625 183.019531 1029.203125 185.136719 1028.777344 186.972656 C 1023.78125 208.492188 1018.441406 229.921875 1009.523438 250.21875 C 1006.714844 256.507812 1003.402344 262.523438 999.59375 268.261719 C 997.558594 271.359375 994.574219 274.652344 991.273438 275.90625 C 986.800781 277.609375 984.867188 280.789062 982.984375 284.429688 C 972.660156 304.386719 957.527344 318.769531 936.417969 327.398438 C 921.558594 333.46875 907.925781 342.109375 896.910156 354.164062 C 887.589844 364.367188 881.636719 376.1875 880.46875 390.15625 C 880.359375 391.273438 880.195312 392.382812 879.972656 393.480469 C 879.917969 393.753906 879.640625 393.988281 879.121094 394.746094 C 846.488281 380.441406 828.253906 353.132812 813.574219 322.53125 C 824.429688 370.265625 850.808594 406.472656 894.042969 431.308594 C 894.042969 421.042969 893.144531 411.554688 894.207031 402.289062 C 897.605469 372.667969 912.269531 351.628906 941.707031 342.226562 C 974.382812 331.792969 996.296875 309.28125 1011.277344 279.222656 C 1011.847656 278.078125 1012.714844 277.003906 1012.96875 275.792969 C 1014.976562 266.320312 1021.296875 264.648438 1029.890625 265.445312 C 1046.453125 266.980469 1063.09375 267.636719 1079.65625 269.191406 C 1094.554688 270.589844 1106.371094 278.46875 1116.757812 288.6875 C 1132.550781 304.230469 1146.785156 321.0625 1158.621094 339.851562 C 1160.066406 342.144531 1161.707031 344.3125 1163.269531 346.53125 C 1169.820312 355.839844 1171.382812 366.328125 1171.667969 377.476562 C 1172.082031 393.832031 1172.957031 410.132812 1169.410156 426.285156 C 1167.597656 434.519531 1163.21875 439.859375 1155.121094 443.40625 C 1131.246094 453.859375 1107.632812 464.921875 1084.148438 476.222656 C 1078.320312 479.027344 1073.253906 483.496094 1068.050781 487.476562 C 1066.03125 489.09375 1064.375 491.023438 1063.074219 493.261719 C 1059.316406 499.523438 1062.363281 505.371094 1069.4375 504.164062 C 1078.261719 502.691406 1086.785156 500.183594 1095.003906 496.644531 C 1119.167969 486.074219 1141.027344 471.472656 1162.527344 456.351562 C 1163.699219 455.53125 1164.878906 454.722656 1166.769531 453.410156 C 1169.558594 457.765625 1172.769531 461.765625 1174.886719 466.28125 C 1179.695312 476.542969 1184.25 486.945312 1188.363281 497.503906 C 1191.460938 505.457031 1188.953125 512.992188 1184.671875 519.90625 C 1176.679688 532.828125 1165.304688 542.460938 1153.300781 551.382812 C 1146.386719 556.523438 1139.164062 561.253906 1132.320312 566.515625 C 1159.933594 554.59375 1185.199219 539.324219 1204.261719 515.363281 C 1214.585938 522.25 1216.035156 535.894531 1206.371094 545.347656 C 1199.453125 552.050781 1191.761719 557.691406 1183.289062 562.273438 C 1166.101562 571.605469 1147.566406 577.832031 1128.703125 582.984375 C 1127.636719 583.273438 1126.675781 583.777344 1125.832031 584.488281 C 1160.964844 583.042969 1193.882812 573.480469 1225.464844 556.949219 C 1234.566406 582.730469 1242.558594 607.863281 1227.875 634.160156 C 1200.171875 623.617188 1172.796875 619.039062 1144.820312 630.113281 C 1144.804688 630.660156 1144.789062 631.207031 1144.777344 631.753906 C 1150.875 631.753906 1157.039062 631.1875 1163.058594 631.867188 C 1177.34375 633.480469 1191.570312 635.632812 1205.796875 637.707031 C 1207.976562 638.027344 1210.09375 638.988281 1212.160156 639.84375 C 1223.703125 644.617188 1227.03125 648.5 1226.113281 660.890625 C 1224.804688 678.578125 1223.140625 696.339844 1219.917969 713.753906 C 1215.324219 738.601562 1214.886719 763.246094 1217.652344 788.300781 C 1220.285156 812.164062 1222.777344 836.183594 1222.875 860.148438 C 1223.027344 898.414062 1198.035156 942.226562 1153.308594 953.984375 C 1150.214844 954.796875 1146.972656 955.175781 1143.996094 956.285156 C 1138.570312 958.308594 1135.347656 955.15625 1132.613281 951.554688 C 1129.425781 947.347656 1132.320312 944.464844 1136.011719 941.996094 C 1134.773438 939.6875 1133.648438 937.601562 1132.53125 935.511719 C 1129.507812 929.851562 1131.042969 926.015625 1136.765625 923.105469 C 1141.960938 920.464844 1147.222656 917.703125 1151.804688 914.15625 C 1162.445312 905.910156 1163.738281 893.988281 1163.273438 881.664062 C 1163.128906 880.355469 1162.554688 879.28125 1161.546875 878.4375 C 1157.136719 874.980469 1153.3125 871.300781 1153.316406 865.09375 C 1153.316406 864.15625 1152.320312 863.21875 1150.988281 860.886719 C 1148.808594 864.40625 1146.8125 866.929688 1145.5625 869.789062 C 1142.492188 876.792969 1139.621094 883.886719 1136.945312 891.0625 C 1133.75 899.625 1118.269531 903.121094 1112.039062 901.699219 C 1110.65625 901.269531 1109.605469 900.421875 1108.890625 899.164062 C 1106.453125 894.667969 1107.554688 885.402344 1111.179688 881.941406 C 1118 875.425781 1120.203125 867.257812 1121.210938 858.222656 C 1122.945312 842.664062 1127.253906 827.800781 1135.429688 814.285156 C 1140.875 805.289062 1148.007812 803.503906 1156.957031 808.9375 C 1165.617188 814.199219 1170.933594 821.582031 1170.285156 832.21875 C 1169.773438 840.648438 1169.132812 849.070312 1168.550781 857.398438 C 1176.417969 843.746094 1178.816406 818.445312 1167.632812 804.273438 C 1162.996094 798.394531 1157.628906 795.542969 1150.167969 797.140625 C 1148.644531 797.46875 1147.089844 797.621094 1145.515625 797.859375 C 1147.890625 791.449219 1150.460938 785.296875 1152.4375 778.957031 C 1154.816406 771.320312 1154.308594 763.730469 1152.582031 755.792969 C 1150.207031 744.890625 1148.378906 733.691406 1148.019531 722.566406 C 1147.304688 700.355469 1140.695312 679.519531 1135.535156 658.234375 C 1130.917969 639.171875 1128.433594 619.601562 1124.808594 600.292969 C 1124.292969 597.488281 1123.175781 594.953125 1121.449219 592.683594 C 1116.679688 586.695312 1113.769531 580.03125 1113.691406 572.453125 C 1113.65625 569.03125 1112.152344 567.328125 1109.773438 565.449219 C 1086.15625 546.796875 1064.484375 526.214844 1047.324219 501.292969 C 1038.921875 489.085938 1032.261719 476.03125 1029.058594 461.375 C 1028.765625 480.726562 1032.09375 499.285156 1042.058594 517.230469 C 1014.035156 520.953125 988.367188 518.910156 967.355469 497.976562 C 980.402344 518.703125 1001.332031 528.273438 1024.054688 537.378906 C 972.195312 610.246094 903.996094 654.382812 814.257812 663.566406 C 817.894531 663.964844 821.527344 664.453125 825.175781 664.742188 C 828.851562 665.035156 832.539062 665.3125 836.222656 665.292969 C 871.796875 665.101562 905.707031 656.769531 938.414062 643.429688 C 954.835938 636.734375 970.753906 628.796875 987.355469 621.210938 C 986.097656 625.417969 984.957031 629.734375 983.523438 633.949219 C 969.464844 675.273438 955.351562 716.578125 941.183594 757.859375 C 939.105469 763.875 935.902344 769.5 933.261719 775.328125 C 931.871094 778.402344 929.574219 780.023438 926.179688 780.179688 C 911.308594 780.867188 896.429688 782.390625 881.574219 782.148438 C 824.667969 781.210938 769.589844 770.875 717.035156 748.449219 C 715.320312 747.71875 713.582031 747.027344 711.855469 746.320312 L 710.832031 747.480469 C 711.835938 748.046875 712.804688 748.664062 713.742188 749.339844 C 729.886719 762.328125 748.6875 770 768.171875 776.105469 C 801.199219 786.460938 835.203125 791.5625 869.65625 793.605469 C 888.851562 794.746094 908.09375 795.222656 927.320312 795.472656 C 932.050781 795.53125 933.667969 797.007812 934.472656 801.335938 C 939.429688 827.863281 936.503906 853.398438 924.375 877.53125 C 920.066406 886.140625 914.980469 894.265625 909.125 901.90625 C 880.078125 939.582031 850.949219 977.195312 821.265625 1014.367188 C 808.582031 1030.253906 794.722656 1045.390625 777.933594 1057.105469 C 768.421875 1063.746094 757.117188 1067.808594 747.585938 1074.425781 C 728.800781 1087.46875 710.691406 1101.484375 692.292969 1115.085938 C 691.519531 1115.597656 690.722656 1116.070312 689.898438 1116.5 L 690.792969 1117.507812 C 699.886719 1111.4375 708.703125 1104.894531 718.132812 1099.402344 C 734.421875 1089.917969 751.042969 1080.996094 767.648438 1072.074219 C 770.378906 1070.605469 773.71875 1070.203125 776.828125 1069.539062 C 786.324219 1067.511719 794.050781 1062.152344 800.285156 1055.273438 C 811.773438 1042.601562 822.589844 1029.3125 833.460938 1016.097656 C 836.128906 1012.855469 838.15625 1010.15625 843.132812 1009.730469 C 849.710938 1009.164062 855.953125 1006.679688 857.738281 998.773438 C 858.070312 997.304688 859.613281 995.546875 861.023438 994.96875 C 873.574219 989.820312 885.957031 984.019531 898.90625 980.152344 C 914.402344 975.527344 930.121094 987.414062 931.261719 1003.515625 C 931.484375 1006.664062 932.203125 1008.636719 935.402344 1009.410156 C 936.457031 1009.664062 937.667969 1010.175781 938.339844 1010.964844 C 939.894531 1012.785156 942.160156 1014.816406 942.234375 1016.828125 C 942.289062 1018.417969 939.808594 1020.730469 937.933594 1021.640625 C 930.269531 1025.359375 930.195312 1025.207031 926.75 1034.160156 C 928.171875 1035.15625 929.957031 1036.003906 931.148438 1037.367188 C 932.28125 1038.664062 933.691406 1040.75 933.339844 1042.042969 C 932.953125 1043.457031 930.734375 1044.429688 929.21875 1045.449219 C 928.613281 1045.746094 927.988281 1045.804688 927.339844 1045.617188 C 920.5 1043.894531 917.246094 1048.207031 914.050781 1053.113281 C 903.851562 1068.753906 898.46875 1091.550781 901.097656 1109.277344 C 902.132812 1109.199219 903.359375 1108.746094 904.222656 1109.121094 C 906.226562 1109.988281 909.226562 1110.914062 909.667969 1112.441406 C 910.234375 1114.386719 908.71875 1116.960938 907.996094 1119.230469 C 907.886719 1119.582031 907.257812 1119.925781 906.824219 1119.996094 C 899.316406 1121.210938 900.460938 1126.417969 902.410156 1130.902344 C 903.769531 1132.828125 906.574219 1135.179688 906.160156 1136.578125 C 905.496094 1138.828125 902.703125 1140.449219 900.203125 1141.5625 L 890.988281 1160.722656 C 893.78125 1165.070312 893.171875 1166.320312 887.699219 1167.863281 C 886.152344 1168.300781 884.707031 1170.019531 883.75 1171.496094 C 874.070312 1186.453125 849.820312 1189.171875 837.964844 1183 C 830.8125 1179.273438 824.265625 1170.8125 827.320312 1160.277344 C 830.253906 1150.15625 832.757812 1139.875 834.785156 1129.535156 C 835.679688 1124.988281 834.9375 1120.117188 834.9375 1114.949219 C 837.296875 1114.546875 840.578125 1114.191406 843.757812 1113.417969 C 856.628906 1110.273438 865.917969 1102.144531 872.964844 1091.394531 C 885.398438 1072.425781 888.785156 1051.472656 885.332031 1029.332031 C 884.484375 1023.898438 882.453125 1018.664062 875.886719 1016.613281 C 877.558594 1022.253906 879.371094 1027.3125 880.546875 1032.519531 C 883.925781 1047.476562 879.277344 1061.335938 874.164062 1075.050781 C 872.667969 1078.933594 870.96875 1082.722656 869.074219 1086.425781 C 862.878906 1098.886719 852.714844 1105.738281 838.976562 1107.523438 C 828.855469 1108.835938 819.007812 1107.425781 809.203125 1104.976562 C 827.546875 1103.996094 844.460938 1100.617188 853.285156 1081.695312 C 845.46875 1090.382812 835.515625 1095.03125 824.132812 1096.011719 C 816.027344 1096.710938 807.792969 1096.511719 799.648438 1096.105469 C 782.808594 1095.261719 765.835938 1093.8125 749.855469 1100.566406 C 738.984375 1105.164062 728.804688 1111.382812 718.054688 1116.3125 C 700.929688 1124.160156 683.585938 1131.539062 666.332031 1139.113281 C 666.109375 1138.773438 665.886719 1138.433594 665.664062 1138.09375 C 669.8125 1132.800781 674.128906 1127.632812 678.078125 1122.195312 C 686.851562 1110.105469 695 1097.621094 698.210938 1082.714844 C 700.703125 1071.136719 698.167969 1061.394531 688.210938 1053.773438 C 670.59375 1040.289062 650.753906 1031.914062 628.128906 1026.308594 C 629.632812 1027.421875 630.113281 1027.851562 630.660156 1028.15625 C 631.355469 1028.546875 632.113281 1028.824219 632.828125 1029.175781 C 662.730469 1043.84375 675.734375 1071.964844 667.632812 1104.265625 C 663.488281 1120.78125 656.214844 1135.96875 646.558594 1149.777344 C 637.03125 1163.398438 626.15625 1176.074219 616.074219 1189.316406 C 613.394531 1192.835938 610.1875 1193.5 606.417969 1192.46875 C 600.910156 1190.960938 595.492188 1189.144531 589.734375 1187.371094 C 586.351562 1200.375 580.738281 1212.5625 573.488281 1224.191406 C 570.210938 1229.445312 565.953125 1230.5625 560.828125 1231.140625 C 534.222656 1234.148438 509.980469 1228 488.222656 1212.304688 C 487.394531 1211.644531 486.457031 1211.402344 485.410156 1211.574219 C 486.917969 1213.054688 488.382812 1214.582031 489.941406 1216 C 506.367188 1230.910156 526.273438 1238.070312 547.691406 1241.804688 C 551.789062 1242.519531 555.917969 1243.160156 560.058594 1243.492188 C 562.699219 1243.703125 563.792969 1245.164062 562.988281 1247.199219 C 561.621094 1250.648438 560.445312 1255.390625 557.714844 1256.878906 C 545.933594 1263.292969 538.734375 1274.304688 529.488281 1283.214844 C 504.195312 1307.601562 475.117188 1326.214844 443.382812 1341.101562 C 420.605469 1351.789062 398.472656 1363.75 378.667969 1379.519531 C 375.671875 1381.90625 372.894531 1384.5625 368.660156 1388.285156 C 368.472656 1383.410156 367.691406 1379.570312 368.304688 1375.960938 C 370.261719 1364.386719 376.292969 1354.496094 384.0625 1346.191406 C 396.289062 1333.121094 409.492188 1320.964844 422.316406 1308.457031 C 423.945312 1306.867188 425.789062 1305.496094 426.851562 1303.109375 C 420.753906 1306.75 414.855469 1310.785156 408.523438 1313.953125 C 391.800781 1322.324219 374.960938 1330.460938 358.003906 1338.355469 C 354.316406 1340.078125 350.019531 1340.972656 345.933594 1341.238281 C 341.648438 1341.523438 337.277344 1340.597656 332.542969 1340.160156 C 335.761719 1361.027344 349.757812 1376.117188 364.085938 1391.378906 C 334.523438 1400.210938 311.742188 1418.167969 292.074219 1442.441406 C 292.613281 1438.503906 293.070312 1435.679688 293.367188 1432.832031 C 293.6875 1429.808594 294.136719 1426.757812 294.042969 1423.734375 C 293.8125 1416.398438 294.003906 1408.953125 292.75 1401.777344 C 290.421875 1388.414062 284.785156 1383.351562 271.417969 1381.648438 C 261.472656 1380.378906 252.558594 1383.328125 243.59375 1389.898438 C 250.199219 1389.230469 255.648438 1388.527344 261.121094 1388.160156 C 271.070312 1387.496094 277.996094 1391.800781 281.894531 1401.074219 C 289.609375 1419.363281 291.191406 1437.730469 281.59375 1455.714844 C 278.175781 1462.125 273.335938 1467.878906 268.570312 1473.4375 C 264.269531 1478.453125 259.285156 1482.910156 254.414062 1487.410156 C 246.203125 1494.992188 236.34375 1494.386719 226.328125 1492.699219 C 211.851562 1490.261719 200.765625 1483.757812 194.804688 1469.324219 C 190.375 1458.601562 174.011719 1454.015625 163.789062 1459.597656 C 160.496094 1461.394531 159.359375 1464.808594 162.347656 1468.101562 C 167.351562 1473.613281 172.789062 1478.953125 178.839844 1483.253906 C 184.636719 1487.410156 190.835938 1490.847656 197.433594 1493.566406 C 204.03125 1496.285156 210.851562 1498.210938 217.898438 1499.34375 C 191.828125 1501.1875 169.8125 1493.988281 155.183594 1470.757812 C 146.085938 1456.308594 148.851562 1446.359375 164.222656 1438.898438 C 168.753906 1436.699219 173.871094 1435.6875 178.746094 1434.210938 C 189.636719 1430.910156 198.3125 1436.324219 207.066406 1441.457031 C 219.9375 1449.011719 230.792969 1458.859375 240.316406 1470.839844 C 237.207031 1459.910156 217.949219 1440.664062 197.730469 1428.0625 C 206.914062 1423.023438 212.054688 1414.980469 216.042969 1405.703125 C 218.515625 1400.136719 221.667969 1394.984375 225.492188 1390.246094 C 227.503906 1387.703125 231.1875 1386.429688 234.214844 1384.769531 C 238.195312 1382.59375 242.457031 1380.882812 246.25 1378.4375 C 249.179688 1376.550781 251.609375 1373.878906 254.199219 1371.488281 C 259.042969 1367.023438 264.175781 1363.757812 270.953125 1362.066406 C 293.492188 1356.441406 311.855469 1343.3125 326.070312 1325.53125 C 338.824219 1309.582031 349.691406 1292.09375 360.894531 1274.957031 C 378.421875 1248.144531 397.542969 1222.769531 422.636719 1202.421875 C 436.007812 1191.578125 450.546875 1182.628906 465.878906 1174.828125 C 470.007812 1172.730469 474.101562 1169.742188 476.976562 1166.171875 C 482.761719 1159 487.703125 1151.140625 492.960938 1143.609375 C 499.285156 1176.898438 525.039062 1191.5 553.070312 1203.777344 L 554.523438 1202.351562 C 553.90625 1202.085938 553.273438 1201.847656 552.679688 1201.539062 C 552.117188 1201.230469 551.570312 1200.894531 551.042969 1200.527344 C 535.949219 1190.332031 521.886719 1178.964844 511.277344 1163.957031 C 504.710938 1154.667969 499.878906 1144.589844 500.632812 1132.765625 C 500.78125 1130.441406 501.214844 1127.859375 502.382812 1125.921875 C 521.78125 1093.773438 544.109375 1064.015625 573.589844 1040.246094 C 585.507812 1030.636719 598.445312 1022.804688 613.125 1017.972656 C 614.878906 1017.394531 616.546875 1014.976562 617.257812 1013.046875 C 625.253906 991.304688 632.679688 969.34375 641.011719 947.738281 C 650.289062 923.691406 666.03125 905.089844 688.417969 891.597656 C 710.023438 878.574219 731.394531 865.285156 756.601562 860.675781 C 766.539062 858.859375 776.851562 859.082031 786.820312 858.386719 C 781.753906 857.65625 776.277344 856.464844 770.746094 856.136719 C 745.929688 854.65625 723.289062 862.191406 701.828125 873.757812 C 671.84375 889.921875 646.6875 912.128906 623.976562 937.230469 C 579.195312 986.722656 541.164062 1041.171875 506.300781 1097.929688 C 503.394531 1102.660156 500.476562 1107.382812 496.847656 1113.265625 C 496.242188 1106.828125 495.558594 1101.558594 495.269531 1096.269531 C 494.320312 1078.824219 493.0625 1061.292969 496.804688 1044.066406 C 498.246094 1037.839844 500.726562 1032.058594 504.242188 1026.722656 C 511.273438 1015.914062 515.671875 1004.527344 514.964844 991.566406 C 514.808594 988.695312 513.546875 985.738281 512.214844 983.117188 C 510.554688 979.851562 508.15625 976.972656 506.320312 973.789062 C 502.847656 967.769531 501.359375 961.484375 503.34375 954.480469 C 508.394531 936.640625 513.308594 918.761719 518.085938 900.847656 C 524.34375 877.332031 532.117188 854.332031 542.183594 832.191406 C 545.914062 824.039062 550.351562 816.285156 555.492188 808.9375 C 561.667969 800.078125 565.933594 799.464844 575.566406 804.089844 C 594.492188 813.179688 603.234375 833.46875 601.039062 855.226562 C 600.179688 863.742188 598.03125 872.125 596.464844 880.613281 C 604.605469 868.234375 613.636719 856.742188 630.832031 857.472656 C 625.6875 848.945312 620.324219 840.6875 615.601562 832.085938 C 605.617188 813.902344 598.96875 794.660156 598.90625 773.632812 C 598.875 768.488281 599.425781 763.40625 600.558594 758.386719 C 601.691406 753.367188 603.378906 748.542969 605.617188 743.90625 C 615.125 724.171875 631.910156 718.285156 652.472656 726.851562 C 670.527344 734.375 685.296875 746.640625 700.300781 758.667969 C 712.242188 768.238281 725.855469 774.175781 741 776.820312 C 709.242188 763.347656 685.421875 741.527344 670.378906 711.074219 C 682.019531 707.101562 693.683594 703.742188 704.839844 699.144531 C 717.316406 694.003906 728.351562 686.480469 734.730469 673.953125 C 739.605469 664.378906 741.597656 653.90625 741.933594 643.320312 C 743.515625 592.894531 723.734375 553.222656 681.398438 525.28125 C 677.773438 522.890625 675.832031 520.441406 675.253906 515.957031 C 672.777344 496.828125 671.78125 477.71875 673.394531 458.449219 C 674.957031 439.777344 683.328125 424.433594 696.207031 411.503906 C 706.902344 400.761719 718.347656 390.761719 728.363281 381.457031 C 720.414062 382.832031 694.042969 402.855469 677.164062 421.621094 C 680.320312 413.859375 683.289062 407.113281 685.824219 400.210938 C 690.140625 388.460938 694.160156 376.542969 693.015625 363.78125 C 692.65625 359.9375 691.425781 356.398438 689.328125 353.160156 C 685.660156 347.679688 680.132812 347.976562 677.96875 354.101562 C 675.070312 362.234375 673.082031 370.582031 672.011719 379.148438 C 670.480469 391.84375 670.160156 404.683594 669.367188 416.8125 C 667.191406 410.742188 665.304688 403.710938 662.1875 397.277344 C 659.277344 391.214844 655.652344 385.613281 651.3125 380.476562 C 644.972656 373.078125 634.804688 371.566406 626.289062 375.664062 C 621.050781 378.1875 618.613281 382.496094 620.878906 387.8125 C 623.160156 393.167969 625.9375 398.78125 629.964844 402.828125 C 639.988281 412.910156 650.839844 422.167969 661.378906 431.738281 C 662.53125 432.785156 663.792969 433.710938 665.859375 435.390625 C 650.210938 446.132812 635.414062 457.082031 619.820312 466.75 C 607.226562 474.558594 593.824219 481.128906 580.503906 487.6875 C 567.429688 494.128906 555.707031 490.652344 546.070312 480.53125 C 540.371094 474.542969 535.417969 467.796875 530.535156 461.09375 C 522.03125 449.433594 511.695312 440.1875 497.992188 435.179688 C 491.851562 432.917969 485.175781 433.144531 479.804688 435.515625 Z M 479.804688 435.515625 " fill-opacity="1" fill-rule="nonzero"/></g></svg>