<svg xmlns="http://www.w3.org/2000/svg" xmlns:xlink="http://www.w3.org/1999/xlink" width="2000" zoomAndPan="magnify" viewBox="0 0 1500 1499.999933" height="2000" preserveAspectRatio="xMidYMid meet" version="1.0"><defs><clipPath id="c9e0767ce1"><path d="M 0 43.636719 L 1500 43.636719 L 1500 1417 L 0 1417 Z M 0 43.636719 " clip-rule="nonzero"/></clipPath></defs><g clip-path="url(#c9e0767ce1)"><path fill="#000000" d="M 749.460938 1171.394531 L 345.207031 1171.394531 L 345.207031 1299.371094 C 345.019531 1454.667969 120.03125 1456.523438 119.902344 1299.371094 L 119.902344 1171.394531 L 0.292969 1171.394531 L 0.292969 770.769531 C 0.28125 663.769531 86.652344 607.015625 135.664062 601.0625 L 258.980469 286.683594 C 281.75 226.40625 331.972656 175.214844 426.800781 175.398438 L 602.964844 175.398438 L 602.964844 92.863281 C 602.550781 60.25 620.359375 43.574219 649.324219 43.714844 L 852.375 43.714844 C 881.042969 43.574219 898.851562 60.25 898.734375 92.863281 L 898.734375 175.398438 L 1073.046875 175.398438 C 1167.40625 175.214844 1217.632812 226.40625 1240.867188 286.683594 L 1364.183594 601.0625 C 1412.730469 607.015625 1499.1875 663.769531 1499.550781 770.769531 L 1499.550781 1171.394531 L 1379.015625 1171.394531 L 1379.015625 1299.371094 C 1379.441406 1456.523438 1154.453125 1454.667969 1154.636719 1299.371094 L 1154.636719 1171.394531 L 749.460938 1171.394531 " fill-opacity="1" fill-rule="nonzero"/></g><path fill="#ffffff" d="M 749.460938 593.644531 L 262.6875 593.644531 L 355.40625 349.746094 C 367.21875 315.273438 384.613281 290.160156 424.945312 289.464844 L 1073.972656 289.464844 C 1114.777344 290.160156 1132.164062 315.273438 1143.511719 349.746094 L 1236.230469 593.644531 L 749.460938 593.644531 " fill-opacity="1" fill-rule="nonzero"/><path fill="#ffffff" d="M 235.800781 926.566406 C 178.710938 926.707031 132.175781 879.214844 131.953125 820.847656 C 132.179688 762.066406 178.710938 714.570312 235.800781 714.199219 C 293.5 714.574219 340.023438 762.066406 339.644531 820.847656 C 340.027344 879.214844 293.5 926.707031 235.800781 926.566406 " fill-opacity="1" fill-rule="nonzero"/><path fill="#ffffff" d="M 1263.074219 926.566406 C 1320.621094 926.707031 1367.15625 879.214844 1366.917969 820.847656 C 1367.15625 762.066406 1320.621094 714.570312 1263.074219 714.199219 C 1205.835938 714.574219 1159.3125 762.066406 1159.226562 820.847656 C 1159.3125 879.214844 1205.835938 926.707031 1263.074219 926.566406 " fill-opacity="1" fill-rule="nonzero"/></svg>