<svg xmlns="http://www.w3.org/2000/svg" xmlns:xlink="http://www.w3.org/1999/xlink" width="2000" zoomAndPan="magnify" viewBox="0 0 1500 1499.999933" height="2000" preserveAspectRatio="xMidYMid meet" version="1.0"><path fill="#040606" d="M 2.667969 1123.664062 L 82.742188 1123.664062 L 82.742188 776.691406 L 2.667969 776.691406 L 2.667969 1123.664062 " fill-opacity="1" fill-rule="nonzero"/><path fill="#040606" d="M 1018.78125 794.726562 L 843.417969 706.628906 C 808.488281 688.589844 761.574219 696.722656 733.839844 725.707031 L 573.175781 894.921875 C 565.042969 904.09375 563.167969 914.832031 563.167969 922.132812 C 563.167969 935.164062 569.214844 947.363281 579.847656 955.390625 C 596.113281 967.484375 619.363281 965.816406 633.648438 951.429688 L 769.496094 825.171875 C 787.742188 808.074219 815.789062 806.089844 836.222656 820.480469 L 836.328125 820.480469 C 836.328125 820.582031 836.429688 820.582031 836.429688 820.582031 L 1218.4375 1086.550781 C 1220.625 1088.113281 1222.191406 1090.09375 1224.171875 1091.867188 C 1257.011719 1084.777344 1307.996094 1075.601562 1363.878906 1071.640625 L 1363.878906 803.378906 L 1054.75 803.378906 C 1042.132812 803.378906 1029.625 800.460938 1018.78125 794.726562 " fill-opacity="1" fill-rule="nonzero"/><path fill="#040606" d="M 1417.257812 1123.664062 L 1497.332031 1123.664062 L 1497.332031 750 L 1417.257812 750 L 1417.257812 1123.664062 " fill-opacity="1" fill-rule="nonzero"/><path fill="#040606" d="M 1200.816406 6.421875 C 1194.980469 1.105469 1188.933594 2.566406 1185.910156 3.921875 C 1183.199219 5.066406 1177.046875 8.714844 1177.046875 17.890625 L 1177.046875 56.050781 C 1177.046875 70.75 1165.054688 82.738281 1150.355469 82.738281 L 589.859375 82.738281 L 589.859375 189.398438 L 910.140625 189.398438 C 939.542969 189.398438 963.523438 213.378906 963.523438 242.777344 L 963.523438 296.261719 L 1150.355469 296.261719 C 1165.054688 296.261719 1177.046875 308.253906 1177.046875 322.953125 L 1177.046875 361.113281 C 1177.046875 370.183594 1183.199219 373.832031 1185.910156 375.082031 C 1188.933594 376.335938 1194.980469 377.898438 1200.921875 372.371094 L 1385.773438 200.867188 C 1389.945312 197.007812 1390.671875 192.003906 1390.671875 189.5 C 1390.671875 186.894531 1389.945312 181.996094 1385.773438 178.136719 L 1200.816406 6.421875 " fill-opacity="1" fill-rule="nonzero"/><path fill="#040606" d="M 314.195312 535.226562 C 316.90625 534.078125 323.058594 530.429688 323.058594 521.253906 L 323.058594 483.097656 C 323.058594 468.394531 334.945312 456.40625 349.75 456.40625 L 910.140625 456.40625 L 910.140625 242.777344 L 349.75 242.777344 C 334.945312 242.777344 323.058594 230.894531 323.058594 216.085938 L 323.058594 177.929688 C 323.058594 168.859375 316.90625 165.210938 314.195312 163.957031 C 312.839844 163.4375 310.753906 162.707031 308.460938 162.707031 C 305.648438 162.707031 302.414062 163.644531 299.183594 166.667969 L 114.332031 338.175781 C 110.054688 342.136719 109.429688 347.039062 109.429688 349.644531 C 109.429688 352.144531 110.054688 357.152344 114.226562 361.007812 C 114.226562 361.007812 114.226562 361.007812 114.332031 361.007812 L 299.285156 532.722656 C 305.019531 538.039062 311.066406 536.582031 314.195312 535.226562 " fill-opacity="1" fill-rule="nonzero"/><path fill="#040606" d="M 1187.472656 1129.921875 L 805.882812 864.269531 L 670.761719 989.691406 C 653.144531 1007.625 629.058594 1016.800781 604.765625 1016.800781 C 584.851562 1016.800781 564.730469 1010.648438 547.738281 998.03125 C 523.546875 979.578125 509.785156 952.054688 509.785156 922.132812 C 509.785156 898.570312 518.441406 876.050781 533.976562 858.742188 L 659.710938 726.230469 C 637.921875 724.351562 614.671875 723.308594 589.859375 723.308594 C 501.132812 723.308594 424.398438 775.335938 386.550781 806.402344 C 367.679688 821.730469 343.910156 830.070312 319.511719 830.070312 L 136.121094 830.070312 L 136.121094 1074.769531 C 183.453125 1084.359375 271.761719 1107.609375 336.925781 1155.152344 L 353.816406 1127.105469 C 366.847656 1105.734375 387.28125 1090.71875 411.574219 1084.777344 C 435.761719 1078.9375 460.890625 1082.691406 482.261719 1095.722656 C 499.152344 1105.941406 511.871094 1120.953125 519.484375 1138.78125 C 525.738281 1135.550781 532.410156 1132.839844 539.5 1131.171875 C 563.792969 1125.125 588.917969 1129.085938 610.1875 1142.015625 C 638.753906 1159.425781 654.5 1189.765625 654.8125 1221.042969 C 674.203125 1219.480469 693.492188 1223.753906 710.382812 1233.972656 C 737.382812 1250.339844 752.917969 1278.28125 754.898438 1307.578125 C 770.433594 1306.953125 785.761719 1310.914062 799.210938 1319.152344 C 836.640625 1341.878906 848.835938 1390.570312 826.628906 1428.207031 L 908.890625 1488.363281 C 920.671875 1496.914062 937.5625 1494.097656 945.902344 1482.527344 C 954.558594 1470.640625 952.160156 1453.957031 940.480469 1445.410156 C 940.066406 1445.097656 939.960938 1444.785156 939.648438 1444.472656 C 939.230469 1444.160156 938.710938 1444.054688 938.398438 1443.636719 L 894.503906 1412.253906 C 882.617188 1403.601562 879.90625 1386.921875 888.457031 1374.929688 C 897.109375 1362.941406 913.792969 1360.335938 925.78125 1368.882812 L 982.289062 1409.753906 C 1000.015625 1423.097656 1025.453125 1418.929688 1038.382812 1401.203125 C 1044.742188 1392.550781 1047.347656 1381.914062 1045.679688 1371.386719 C 1044.117188 1361.0625 1038.589844 1351.890625 1030.144531 1345.738281 L 938.710938 1278.59375 C 926.71875 1269.941406 924.21875 1253.257812 932.871094 1241.375 C 941.628906 1229.488281 958.308594 1226.882812 970.195312 1235.640625 L 1082.796875 1318.003906 C 1091.449219 1324.363281 1102.082031 1326.867188 1112.613281 1325.199219 C 1123.144531 1323.53125 1132.421875 1318.003906 1138.679688 1309.457031 C 1143.890625 1302.367188 1146.601562 1294.128906 1146.601562 1285.683594 C 1146.601562 1272.964844 1140.449219 1260.871094 1130.023438 1253.257812 L 1027.851562 1178.609375 C 1015.964844 1169.851562 1013.359375 1153.171875 1022.011719 1141.285156 C 1030.769531 1129.398438 1047.453125 1126.792969 1059.335938 1135.445312 L 1137.84375 1192.894531 L 1138.054688 1192.996094 C 1152.859375 1203.839844 1172.355469 1205.09375 1185.492188 1196.125 C 1197.0625 1188.203125 1203.738281 1175.898438 1203.738281 1162.34375 C 1203.738281 1149.417969 1197.792969 1137.53125 1187.472656 1129.921875 " fill-opacity="1" fill-rule="nonzero"/><path fill="#040606" d="M 472.671875 1166.097656 C 470.0625 1155.984375 463.703125 1146.8125 454.527344 1141.285156 C 435.972656 1130.023438 410.738281 1136.28125 399.480469 1154.734375 C 399.480469 1154.734375 349.332031 1237.828125 349.332031 1237.933594 C 338.070312 1256.492188 344.328125 1281.722656 362.886719 1292.878906 C 381.546875 1304.242188 405.839844 1298.300781 417.726562 1279.324219 L 468.707031 1195.082031 C 474.128906 1186.222656 475.171875 1175.691406 472.671875 1166.097656 " fill-opacity="1" fill-rule="nonzero"/><path fill="#040606" d="M 682.753906 1279.636719 C 664.089844 1268.273438 639.066406 1274.527344 627.808594 1293.085938 C 627.808594 1293.085938 577.449219 1376.078125 577.449219 1376.179688 C 566.191406 1394.738281 572.238281 1419.867188 590.898438 1431.125 C 609.457031 1442.28125 634.6875 1436.128906 645.84375 1417.78125 L 696.203125 1334.6875 C 707.566406 1315.816406 701.625 1291.105469 682.753906 1279.636719 " fill-opacity="1" fill-rule="nonzero"/><path fill="#040606" d="M 771.582031 1364.816406 C 759.277344 1357.414062 742.285156 1361.585938 734.882812 1373.785156 C 734.882812 1373.785156 684.628906 1456.773438 684.628906 1456.773438 C 677.019531 1469.390625 681.085938 1485.863281 693.59375 1493.472656 C 706.316406 1501.085938 722.683594 1497.019531 730.296875 1484.507812 L 780.546875 1401.414062 C 788.160156 1388.902344 784.195312 1372.429688 771.582031 1364.816406 " fill-opacity="1" fill-rule="nonzero"/><path fill="#040606" d="M 582.457031 1187.679688 C 563.898438 1176.316406 538.769531 1182.46875 527.511719 1201.128906 C 527.511719 1201.128906 463.496094 1307.160156 462.972656 1307.683594 C 457.761719 1316.648438 456.195312 1327.179688 458.699219 1337.1875 C 461.203125 1347.511719 467.769531 1356.476562 476.839844 1361.898438 C 495.292969 1373.054688 520.734375 1366.902344 531.785156 1348.449219 L 595.90625 1242.625 C 607.375 1223.753906 601.324219 1199.148438 582.457031 1187.679688 " fill-opacity="1" fill-rule="nonzero"/><path fill="#040606" d="M 2.667969 1123.664062 L 82.742188 1123.664062 L 82.742188 776.691406 L 2.667969 776.691406 L 2.667969 1123.664062 " fill-opacity="1" fill-rule="nonzero"/><path fill="#040606" d="M 1018.78125 794.726562 L 843.417969 706.628906 C 808.488281 688.589844 761.574219 696.722656 733.839844 725.707031 L 573.175781 894.921875 C 565.042969 904.09375 563.167969 914.832031 563.167969 922.132812 C 563.167969 935.164062 569.214844 947.363281 579.847656 955.390625 C 596.113281 967.484375 619.363281 965.816406 633.648438 951.429688 L 769.496094 825.171875 C 787.742188 808.074219 815.789062 806.089844 836.222656 820.480469 L 836.328125 820.480469 C 836.328125 820.582031 836.429688 820.582031 836.429688 820.582031 L 1218.4375 1086.550781 C 1220.625 1088.113281 1222.191406 1090.09375 1224.171875 1091.867188 C 1257.011719 1084.777344 1307.996094 1075.601562 1363.878906 1071.640625 L 1363.878906 803.378906 L 1054.75 803.378906 C 1042.132812 803.378906 1029.625 800.460938 1018.78125 794.726562 " fill-opacity="1" fill-rule="nonzero"/><path fill="#040606" d="M 1417.257812 1123.664062 L 1497.332031 1123.664062 L 1497.332031 750 L 1417.257812 750 L 1417.257812 1123.664062 " fill-opacity="1" fill-rule="nonzero"/><path fill="#040606" d="M 1200.816406 6.421875 C 1194.980469 1.105469 1188.933594 2.566406 1185.910156 3.921875 C 1183.199219 5.066406 1177.046875 8.714844 1177.046875 17.890625 L 1177.046875 56.050781 C 1177.046875 70.75 1165.054688 82.738281 1150.355469 82.738281 L 589.859375 82.738281 L 589.859375 189.398438 L 910.140625 189.398438 C 939.542969 189.398438 963.523438 213.378906 963.523438 242.777344 L 963.523438 296.261719 L 1150.355469 296.261719 C 1165.054688 296.261719 1177.046875 308.253906 1177.046875 322.953125 L 1177.046875 361.113281 C 1177.046875 370.183594 1183.199219 373.832031 1185.910156 375.082031 C 1188.933594 376.335938 1194.980469 377.898438 1200.921875 372.371094 L 1385.773438 200.867188 C 1389.945312 197.007812 1390.671875 192.003906 1390.671875 189.5 C 1390.671875 186.894531 1389.945312 181.996094 1385.773438 178.136719 L 1200.816406 6.421875 " fill-opacity="1" fill-rule="nonzero"/><path fill="#040606" d="M 314.195312 535.226562 C 316.90625 534.078125 323.058594 530.429688 323.058594 521.253906 L 323.058594 483.097656 C 323.058594 468.394531 334.945312 456.40625 349.75 456.40625 L 910.140625 456.40625 L 910.140625 242.777344 L 349.75 242.777344 C 334.945312 242.777344 323.058594 230.894531 323.058594 216.085938 L 323.058594 177.929688 C 323.058594 168.859375 316.90625 165.210938 314.195312 163.957031 C 312.839844 163.4375 310.753906 162.707031 308.460938 162.707031 C 305.648438 162.707031 302.414062 163.644531 299.183594 166.667969 L 114.332031 338.175781 C 110.054688 342.136719 109.429688 347.039062 109.429688 349.644531 C 109.429688 352.144531 110.054688 357.152344 114.226562 361.007812 C 114.226562 361.007812 114.226562 361.007812 114.332031 361.007812 L 299.285156 532.722656 C 305.019531 538.039062 311.066406 536.582031 314.195312 535.226562 " fill-opacity="1" fill-rule="nonzero"/><path fill="#040606" d="M 1187.472656 1129.921875 L 805.882812 864.269531 L 670.761719 989.691406 C 653.144531 1007.625 629.058594 1016.800781 604.765625 1016.800781 C 584.851562 1016.800781 564.730469 1010.648438 547.738281 998.03125 C 523.546875 979.578125 509.785156 952.054688 509.785156 922.132812 C 509.785156 898.570312 518.441406 876.050781 533.976562 858.742188 L 659.710938 726.230469 C 637.921875 724.351562 614.671875 723.308594 589.859375 723.308594 C 501.132812 723.308594 424.398438 775.335938 386.550781 806.402344 C 367.679688 821.730469 343.910156 830.070312 319.511719 830.070312 L 136.121094 830.070312 L 136.121094 1074.769531 C 183.453125 1084.359375 271.761719 1107.609375 336.925781 1155.152344 L 353.816406 1127.105469 C 366.847656 1105.734375 387.28125 1090.71875 411.574219 1084.777344 C 435.761719 1078.9375 460.890625 1082.691406 482.261719 1095.722656 C 499.152344 1105.941406 511.871094 1120.953125 519.484375 1138.78125 C 525.738281 1135.550781 532.410156 1132.839844 539.5 1131.171875 C 563.792969 1125.125 588.917969 1129.085938 610.1875 1142.015625 C 638.753906 1159.425781 654.5 1189.765625 654.8125 1221.042969 C 674.203125 1219.480469 693.492188 1223.753906 710.382812 1233.972656 C 737.382812 1250.339844 752.917969 1278.28125 754.898438 1307.578125 C 770.433594 1306.953125 785.761719 1310.914062 799.210938 1319.152344 C 836.640625 1341.878906 848.835938 1390.570312 826.628906 1428.207031 L 908.890625 1488.363281 C 920.671875 1496.914062 937.5625 1494.097656 945.902344 1482.527344 C 954.558594 1470.640625 952.160156 1453.957031 940.480469 1445.410156 C 940.066406 1445.097656 939.960938 1444.785156 939.648438 1444.472656 C 939.230469 1444.160156 938.710938 1444.054688 938.398438 1443.636719 L 894.503906 1412.253906 C 882.617188 1403.601562 879.90625 1386.921875 888.457031 1374.929688 C 897.109375 1362.941406 913.792969 1360.335938 925.78125 1368.882812 L 982.289062 1409.753906 C 1000.015625 1423.097656 1025.453125 1418.929688 1038.382812 1401.203125 C 1044.742188 1392.550781 1047.347656 1381.914062 1045.679688 1371.386719 C 1044.117188 1361.0625 1038.589844 1351.890625 1030.144531 1345.738281 L 938.710938 1278.59375 C 926.71875 1269.941406 924.21875 1253.257812 932.871094 1241.375 C 941.628906 1229.488281 958.308594 1226.882812 970.195312 1235.640625 L 1082.796875 1318.003906 C 1091.449219 1324.363281 1102.082031 1326.867188 1112.613281 1325.199219 C 1123.144531 1323.53125 1132.421875 1318.003906 1138.679688 1309.457031 C 1143.890625 1302.367188 1146.601562 1294.128906 1146.601562 1285.683594 C 1146.601562 1272.964844 1140.449219 1260.871094 1130.023438 1253.257812 L 1027.851562 1178.609375 C 1015.964844 1169.851562 1013.359375 1153.171875 1022.011719 1141.285156 C 1030.769531 1129.398438 1047.453125 1126.792969 1059.335938 1135.445312 L 1137.84375 1192.894531 L 1138.054688 1192.996094 C 1152.859375 1203.839844 1172.355469 1205.09375 1185.492188 1196.125 C 1197.0625 1188.203125 1203.738281 1175.898438 1203.738281 1162.34375 C 1203.738281 1149.417969 1197.792969 1137.53125 1187.472656 1129.921875 " fill-opacity="1" fill-rule="nonzero"/><path fill="#040606" d="M 472.671875 1166.097656 C 470.0625 1155.984375 463.703125 1146.8125 454.527344 1141.285156 C 435.972656 1130.023438 410.738281 1136.28125 399.480469 1154.734375 C 399.480469 1154.734375 349.332031 1237.828125 349.332031 1237.933594 C 338.070312 1256.492188 344.328125 1281.722656 362.886719 1292.878906 C 381.546875 1304.242188 405.839844 1298.300781 417.726562 1279.324219 L 468.707031 1195.082031 C 474.128906 1186.222656 475.171875 1175.691406 472.671875 1166.097656 " fill-opacity="1" fill-rule="nonzero"/><path fill="#040606" d="M 682.753906 1279.636719 C 664.089844 1268.273438 639.066406 1274.527344 627.808594 1293.085938 C 627.808594 1293.085938 577.449219 1376.078125 577.449219 1376.179688 C 566.191406 1394.738281 572.238281 1419.867188 590.898438 1431.125 C 609.457031 1442.28125 634.6875 1436.128906 645.84375 1417.78125 L 696.203125 1334.6875 C 707.566406 1315.816406 701.625 1291.105469 682.753906 1279.636719 " fill-opacity="1" fill-rule="nonzero"/><path fill="#040606" d="M 771.582031 1364.816406 C 759.277344 1357.414062 742.285156 1361.585938 734.882812 1373.785156 C 734.882812 1373.785156 684.628906 1456.773438 684.628906 1456.773438 C 677.019531 1469.390625 681.085938 1485.863281 693.59375 1493.472656 C 706.316406 1501.085938 722.683594 1497.019531 730.296875 1484.507812 L 780.546875 1401.414062 C 788.160156 1388.902344 784.195312 1372.429688 771.582031 1364.816406 " fill-opacity="1" fill-rule="nonzero"/><path fill="#040606" d="M 582.457031 1187.679688 C 563.898438 1176.316406 538.769531 1182.46875 527.511719 1201.128906 C 527.511719 1201.128906 463.496094 1307.160156 462.972656 1307.683594 C 457.761719 1316.648438 456.195312 1327.179688 458.699219 1337.1875 C 461.203125 1347.511719 467.769531 1356.476562 476.839844 1361.898438 C 495.292969 1373.054688 520.734375 1366.902344 531.785156 1348.449219 L 595.90625 1242.625 C 607.375 1223.753906 601.324219 1199.148438 582.457031 1187.679688 " fill-opacity="1" fill-rule="nonzero"/></svg>