<svg xmlns="http://www.w3.org/2000/svg" xmlns:xlink="http://www.w3.org/1999/xlink" width="2000" zoomAndPan="magnify" viewBox="0 0 1500 1499.999933" height="2000" preserveAspectRatio="xMidYMid meet" version="1.0"><defs><clipPath id="be63e7361d"><path d="M 188.4375 0 L 1311.9375 0 L 1311.9375 1500 L 188.4375 1500 Z M 188.4375 0 " clip-rule="nonzero"/></clipPath></defs><g clip-path="url(#be63e7361d)"><path fill="#000000" d="M 775.121094 917.84375 C 745.421875 927.984375 702.035156 976.738281 683.457031 1002.03125 C 667.144531 1024.230469 658.640625 1055.914062 638.734375 1088.515625 C 612.925781 1130.789062 592.441406 1129.21875 584.71875 1137.664062 C 579.957031 1142.875 575.378906 1138.511719 572.640625 1141.261719 C 555.8125 1158.148438 523.714844 1169.003906 508.96875 1180.285156 C 501.722656 1185.820312 493.867188 1199.515625 476.507812 1213.945312 C 468.152344 1220.890625 451.265625 1229.375 396.765625 1264.523438 C 391.152344 1268.140625 389.269531 1271.867188 386.117188 1274.027344 C 345.335938 1302.007812 340.519531 1333.039062 339.054688 1336.183594 C 332.796875 1349.621094 326.078125 1349.953125 321.390625 1356.425781 C 304.660156 1379.515625 284.023438 1402.441406 276.066406 1430.554688 C 259.3125 1489.714844 247.65625 1485.234375 217.3125 1484.898438 C 183.929688 1484.527344 179.972656 1428.042969 203.226562 1389.15625 C 223.234375 1355.683594 225.234375 1356.953125 233.152344 1337.796875 C 236.871094 1328.789062 231.457031 1329.382812 233.476562 1326.582031 C 238.800781 1319.171875 241.042969 1305.847656 246.578125 1298.394531 C 256.824219 1284.59375 271.648438 1281.492188 284.984375 1272.433594 C 293.8125 1266.4375 298.039062 1268.695312 300.253906 1266.671875 C 334.890625 1235.015625 336.285156 1218.277344 346.457031 1213.601562 C 353.59375 1210.324219 390.457031 1153.660156 403.78125 1134.910156 C 429.96875 1098.070312 468.148438 1091.179688 494.953125 1075.96875 C 533.683594 1053.996094 539.035156 995.0625 593.804688 862.625 C 605.765625 833.695312 601.144531 832.679688 611.890625 815.011719 C 614.722656 810.355469 618.648438 772.003906 619.117188 756.03125 C 620.382812 712.636719 644.109375 696.269531 639.785156 693.210938 C 630.082031 686.347656 636.546875 674.640625 640.207031 663.804688 C 640.710938 662.308594 640.265625 661.585938 634.863281 652.871094 C 627.714844 641.359375 636.570312 629.96875 629.066406 571.804688 C 625.152344 541.46875 642.679688 536.058594 638.953125 516.148438 C 634.871094 494.347656 628.046875 487.042969 625.777344 478.894531 C 611.792969 428.71875 610.945312 415.601562 594.027344 408.210938 C 589.789062 406.355469 551.3125 431.328125 535.65625 366.625 C 534.414062 361.5 532.664062 363.820312 485.5 331.746094 C 447.410156 305.84375 432.496094 231.433594 407.351562 191.964844 C 406.722656 190.972656 406.859375 191.023438 405.054688 183.03125 C 404.542969 180.769531 380.910156 146.023438 371 127.984375 C 361.785156 111.210938 362.816406 96.71875 359.914062 88.03125 C 350.394531 59.574219 348.160156 19.390625 375.832031 7.746094 C 458.964844 -27.25 531.953125 64.234375 508.757812 123.804688 C 507.628906 126.703125 514.808594 129.875 507.371094 136.519531 C 498.710938 144.257812 500.246094 146.050781 494.476562 154.253906 C 489.828125 160.871094 475.421875 164.582031 467.894531 177.523438 C 465.296875 181.984375 477.234375 190.957031 478.847656 198.300781 C 479.480469 201.179688 478.847656 199.507812 505.390625 226.164062 C 513.445312 234.253906 510.773438 233.035156 543.609375 274.972656 C 547.027344 279.332031 550.183594 273.785156 568.273438 279.480469 C 572.199219 280.714844 574.222656 265.285156 599.207031 245.496094 C 607.992188 238.542969 618.148438 234.15625 629.078125 228.828125 C 644.5625 221.273438 734.796875 260.710938 736.300781 254.765625 C 737.140625 251.460938 736.972656 243.886719 734.773438 237.382812 C 733.820312 234.550781 731.191406 236.554688 717.128906 233.203125 C 707.226562 230.839844 706.671875 227.140625 699.105469 210.355469 C 697.386719 206.542969 702.527344 204.085938 700.796875 199.140625 C 692.933594 176.609375 693.527344 159.9375 693.550781 143.140625 C 693.550781 140.363281 691.078125 136.175781 690.949219 134.269531 C 689.976562 120.078125 715.914062 56.023438 786.492188 44.777344 C 835.789062 36.925781 883.792969 59.519531 904.800781 110.867188 C 906.527344 115.085938 912.984375 116.269531 914.324219 128.773438 C 914.421875 129.640625 915.042969 130.355469 915.882812 130.558594 C 926.8125 133.207031 924.160156 139.925781 928.832031 147.628906 C 933.5 155.335938 918.8125 160.019531 911.585938 162.625 C 910.148438 163.144531 910.777344 162.546875 908.945312 190.984375 C 908.707031 194.675781 939.148438 191.722656 939.863281 203.488281 C 941.046875 222.9375 935.542969 244.285156 926.761719 261.976562 C 922.925781 269.710938 907.914062 265.84375 897.117188 264.757812 C 894.300781 264.472656 895.617188 272.675781 884.285156 279.066406 C 883.691406 279.402344 883.769531 280.277344 884.398438 280.511719 C 915.832031 292.144531 927.964844 286.144531 937.503906 291.078125 C 980.855469 313.488281 994.890625 311.789062 1002.246094 337.871094 C 1004.28125 345.078125 1027.570312 437.386719 1027.613281 437.585938 C 1030.660156 452.261719 1004.238281 451.410156 1006.90625 455.621094 C 1030.078125 492.253906 1029.472656 492.613281 1030.703125 491.839844 C 1034.296875 489.582031 1038.96875 435.394531 1038.714844 434.808594 C 1012.0625 372.511719 1037.203125 395.800781 1022.9375 346.535156 C 1022.179688 343.933594 1023.789062 339.433594 1029.726562 340.207031 C 1050.648438 342.949219 1044.898438 389.117188 1051.648438 380.371094 C 1067.921875 359.285156 1061.402344 342.582031 1070.320312 306.257812 C 1073.574219 293.011719 1084.972656 291.976562 1084.566406 305.609375 C 1083.027344 356.945312 1081.683594 354.703125 1085.195312 358.46875 C 1091.316406 365.046875 1106.238281 295.175781 1122.953125 299.980469 C 1133.308594 302.957031 1124.671875 309.917969 1115.023438 338.796875 C 1107.449219 361.488281 1102.578125 365.273438 1104 366.355469 C 1104.527344 366.757812 1105.207031 367.386719 1105.804688 366.617188 C 1129.207031 336.679688 1132.738281 316.234375 1142.84375 321.804688 C 1145.886719 323.476562 1147.046875 327.277344 1145.484375 330.378906 C 1138.0625 345.148438 1129.128906 362.488281 1118.789062 377.496094 C 1111.789062 387.652344 1122.625 381.683594 1131.546875 373.164062 C 1139.730469 365.351562 1144.835938 358.320312 1152.175781 357.691406 C 1156.632812 357.3125 1158.886719 362.851562 1152.046875 371.359375 C 1123.980469 406.242188 1124.226562 387.9375 1106.851562 427.832031 C 1103.863281 434.695312 1093.113281 447.910156 1092.667969 449.6875 C 1092.097656 451.949219 1093.035156 454.667969 1093.070312 457.273438 C 1093.191406 467.328125 1091.054688 478.804688 1091.324219 489.527344 C 1091.894531 512.335938 1092.050781 511.410156 1091.726562 512.375 C 1081.3125 542.886719 1092.253906 580.195312 1058.054688 620.890625 C 1052.21875 627.835938 1037.765625 623.628906 1030.066406 621.613281 C 1007.859375 615.796875 997.789062 604.027344 983.882812 585.972656 C 940.878906 530.136719 937.535156 509.359375 935.738281 514.960938 C 928.273438 538.273438 924.539062 536.84375 928.511719 551.171875 C 933.597656 569.507812 929.472656 575.910156 928.074219 593.101562 C 922 667.894531 923.667969 674.898438 912.199219 685.835938 C 908.996094 688.894531 920.328125 703.457031 906.910156 713.304688 C 905.316406 714.472656 905.808594 716.261719 906.28125 720.257812 C 907.585938 731.21875 899.476562 734.742188 900.863281 737.785156 C 903.851562 744.332031 902.632812 747.414062 903.710938 748.789062 C 915.644531 763.996094 915.175781 763.90625 916.753906 764.261719 C 920.699219 765.144531 919.167969 768.175781 920.597656 769.734375 C 921.742188 770.988281 951.949219 799.546875 959.976562 808.222656 C 968.582031 817.535156 973.839844 811.289062 980.070312 813.835938 C 986.761719 816.5625 1056.445312 883.660156 1056.445312 895.46875 C 1056.445312 904.578125 1055.765625 908.226562 1059.183594 912.613281 C 1089.300781 951.347656 1086.371094 961.746094 1094.335938 963.535156 C 1105.109375 965.945312 1107.257812 969.808594 1135.574219 1009.609375 C 1145.28125 1023.253906 1143.917969 1037.65625 1141.945312 1040.53125 C 1139.679688 1043.820312 1138.617188 1044.660156 1138.980469 1046.425781 C 1149.261719 1097.394531 1141.902344 1082.164062 1155.921875 1144.15625 C 1172.714844 1218.425781 1169.523438 1285.34375 1177.847656 1300.570312 C 1179.179688 1303.007812 1175.765625 1304.363281 1178.171875 1318.171875 C 1186.402344 1365.371094 1186.203125 1364.65625 1187.960938 1365.078125 C 1200.3125 1368.046875 1196.695312 1378.296875 1205.625 1401.988281 C 1211.5625 1417.734375 1226.730469 1420.210938 1255.539062 1439.8125 C 1285.578125 1460.257812 1326.273438 1463.746094 1306.785156 1492.445312 C 1301.207031 1500.652344 1296.597656 1492.867188 1294.933594 1496.285156 C 1289.90625 1506.660156 1282.242188 1491.5625 1277.992188 1495.015625 C 1274.980469 1497.460938 1272.144531 1500.984375 1269.1875 1498.703125 C 1263.585938 1494.382812 1263.339844 1493.914062 1261.828125 1493.914062 C 1257.132812 1493.914062 1256.714844 1493.742188 1255.839844 1494.449219 C 1239.511719 1507.65625 1246.46875 1489.777344 1229.808594 1491.898438 C 1224.617188 1492.558594 1218.273438 1502.53125 1210.28125 1491.863281 C 1209.496094 1490.808594 1208.253906 1490.191406 1206.933594 1490.191406 C 1162.566406 1490.191406 1157.40625 1483.246094 1151.855469 1488.023438 C 1138.378906 1499.609375 1140.257812 1478.597656 1129.53125 1482.300781 C 1128.835938 1482.300781 1116.140625 1491.425781 1113.5 1481.652344 C 1110.398438 1470.15625 1099.652344 1468.089844 1115.117188 1420.21875 C 1115.839844 1417.980469 1115.320312 1418.082031 1113.484375 1395.71875 C 1113.308594 1393.625 1116.148438 1390.378906 1117.71875 1388.992188 C 1119.929688 1387.050781 1104.90625 1322.238281 1104.238281 1319.371094 C 1103.464844 1316.035156 1100.792969 1312.210938 1100.949219 1309.488281 C 1101.046875 1307.796875 1101.222656 1306.699219 1100.777344 1305.171875 C 1070.730469 1201.480469 1067.25 1286.226562 1048.242188 1119.605469 C 1047.46875 1112.808594 1043.714844 1083.738281 1037.15625 1081.78125 C 1029.414062 1079.472656 1030.128906 1074.832031 1023.21875 1069.480469 C 949.90625 1012.699219 873.414062 963.996094 873.558594 964.769531 C 874.53125 969.964844 874.140625 975.546875 868.882812 976.097656 C 837.816406 979.347656 810.015625 982.621094 805.304688 972.449219 C 803.929688 969.480469 779.25 970.816406 772.429688 962.867188 C 767.484375 957.109375 777.570312 917.015625 775.148438 917.835938 Z M 365.734375 20.730469 C 379.335938 10.816406 469.660156 -0.660156 504.117188 74.140625 C 511.457031 90.078125 490.785156 4.535156 411.253906 3.703125 C 374.371094 3.3125 361.109375 24.109375 365.734375 20.730469 Z M 695.851562 133.445312 C 697.824219 127.679688 704.421875 109.769531 710.507812 110.125 C 715.855469 110.4375 717.957031 111.109375 718.761719 109.246094 C 730.121094 83.058594 758.367188 64.132812 769.527344 63.113281 C 802.117188 60.136719 804.039062 62.035156 804.039062 60.335938 C 804.039062 56.976562 766.421875 62.574219 774.160156 54.796875 C 775.269531 53.683594 803.628906 48.851562 823.753906 56.515625 C 827.15625 57.808594 824.3125 51.292969 827.15625 52.367188 C 887.777344 75.324219 884.804688 108.324219 898.59375 112.507812 C 899.703125 112.84375 900.710938 111.785156 900.339844 110.699219 C 877.0625 42.972656 777.984375 21.839844 721.550781 82.644531 C 700.539062 105.289062 693.011719 133.210938 694.441406 133.644531 C 694.898438 133.78125 695.617188 134.105469 695.84375 133.433594 Z M 910.265625 126.03125 C 908.359375 121.535156 907.429688 117.691406 902.546875 116.753906 C 885.570312 113.503906 878.300781 110.273438 876.9375 117.359375 C 875.703125 123.769531 878.492188 126.390625 882.183594 126.28125 C 899.792969 125.761719 913.160156 132.828125 910.265625 126.035156 Z M 758.882812 138.652344 C 766.421875 129.414062 767.828125 133.980469 751.734375 121.03125 C 750.691406 120.191406 748.71875 119.371094 747.894531 120.402344 C 744.78125 124.34375 742.179688 125.796875 745.632812 128.578125 C 758.496094 138.941406 758.441406 139.1875 758.882812 138.648438 Z M 902.242188 134.441406 C 902.355469 133.1875 902.339844 133.570312 879.097656 131.503906 C 878.648438 131.460938 878.199219 131.753906 878.144531 132.371094 C 878.03125 133.625 878.046875 133.242188 901.289062 135.3125 C 901.738281 135.355469 902.1875 135.058594 902.242188 134.441406 Z M 793.390625 137.128906 C 790.875 141.269531 788.097656 144.28125 790.976562 146.027344 C 795.671875 148.871094 803.203125 154.339844 806.148438 149.527344 C 810.164062 142.96875 803.472656 140.257812 796.890625 136.277344 C 795.6875 135.550781 794.121094 135.929688 793.390625 137.136719 Z M 916.53125 138.785156 C 918.578125 140.898438 920.742188 138.808594 918.6875 136.699219 C 915.105469 134.011719 915.316406 138.484375 916.53125 138.785156 Z M 806.527344 176.96875 C 798.886719 158.332031 795.308594 163.285156 780.417969 152.867188 C 771.207031 146.425781 783.226562 139.210938 780.324219 136.84375 C 775.960938 133.285156 771.921875 142.5 769.371094 146.898438 C 768.054688 149.171875 768.277344 148.242188 806.011719 177.347656 C 806.277344 177.605469 806.695312 177.292969 806.527344 176.96875 Z M 877.734375 139.390625 C 877.550781 142.398438 887.230469 139.828125 901.898438 145.054688 C 912.210938 148.726562 913.832031 149.59375 914.863281 147.546875 C 917.636719 142.078125 885.050781 139.003906 878.492188 138.214844 C 877.746094 138.125 877.761719 138.898438 877.730469 139.390625 Z M 913.140625 155.585938 C 911.183594 157.980469 922.019531 154.273438 920.859375 149.84375 C 919.703125 145.414062 917.269531 150.535156 913.140625 155.585938 Z M 902.074219 189.007812 C 903.621094 160.835938 906.347656 154.164062 891.121094 176.539062 C 890.582031 177.335938 890.632812 176.875 897.109375 189.996094 C 898.300781 192.40625 901.925781 191.683594 902.074219 189.007812 Z M 808.125 167.832031 C 816.113281 186.75 816.046875 188.125 819.078125 188.304688 C 825.714844 188.695312 826.214844 188.976562 826.257812 188.027344 C 826.261719 187.835938 804.882812 160.152344 808.125 167.832031 Z M 472.859375 193.960938 C 460.769531 178.757812 463.988281 179.082031 461.660156 177.007812 C 439.535156 157.285156 400.035156 172.878906 412.984375 193.960938 C 421.476562 207.792969 421.933594 215.117188 423.390625 214.476562 C 424.5625 213.964844 424.632812 198.492188 443.003906 191.832031 C 461.246094 185.21875 476.046875 197.96875 472.859375 193.960938 Z M 740.855469 209.25 C 742.75 207.058594 747.179688 202.757812 745.21875 201.066406 C 717.0625 176.820312 721.355469 175.800781 712.902344 185.375 C 712.40625 185.941406 740.261719 209.933594 740.855469 209.25 Z M 824.097656 195.792969 C 825.34375 199.066406 830.210938 203.609375 831.238281 201.539062 C 831.621094 200.761719 831.234375 194.242188 828.105469 194.230469 C 826.269531 194.226562 823.40625 193.980469 824.097656 195.792969 Z M 908.710938 198.300781 C 909.164062 206.867188 908.875 207.550781 909.871094 207.496094 C 910.0625 207.484375 935.367188 202.769531 928.902344 201.515625 C 908.964844 197.632812 908.660156 197.316406 908.710938 198.304688 Z M 895.269531 240.496094 C 898.609375 215.621094 899.109375 216.054688 897.757812 214.589844 C 894.253906 210.792969 898.808594 207.628906 898.003906 205.429688 C 896.277344 200.6875 900.953125 200.914062 899.285156 198.949219 C 896.023438 195.109375 897.042969 203.238281 893.425781 216.265625 C 892.832031 218.394531 895.164062 222.511719 894.582031 225.898438 C 893.671875 231.226562 888.210938 235.582031 894.011719 240.9375 C 894.464844 241.351562 895.191406 241.085938 895.269531 240.496094 Z M 580.589844 290.789062 C 580.503906 283.894531 557.515625 279.5625 546.988281 280.355469 C 543.527344 280.613281 542.589844 281.417969 515.597656 244.296875 C 504.34375 228.820312 486.796875 214.296875 476.28125 202.117188 C 473.667969 199.09375 468.019531 203.226562 469.5625 205.65625 C 469.832031 206.074219 486.449219 224.164062 492.480469 228.324219 C 519.367188 246.871094 504.585938 244.621094 545.226562 290.914062 C 546.179688 292 547.980469 291.347656 548.023438 289.90625 C 548.316406 279.492188 569.089844 288.546875 578.367188 292.511719 C 579.304688 292.914062 580.613281 292.410156 580.59375 290.785156 Z M 732.660156 219.1875 C 731.054688 210.863281 702.695312 202.992188 702.195312 208.300781 C 702.113281 209.195312 701.882812 208.453125 709.960938 224.773438 C 712.5 229.90625 716.992188 225.996094 732.320312 219.828125 C 732.570312 219.726562 732.714844 219.457031 732.660156 219.179688 Z M 933.050781 208.46875 C 910.042969 213.769531 910.019531 213.234375 910.042969 214.308594 C 910.640625 244.117188 905.484375 250.171875 908.203125 251.710938 C 921.417969 259.234375 921.382812 259.789062 922.054688 258.570312 C 929.3125 245.449219 936.253906 207.730469 933.050781 208.46875 Z M 803.089844 211.8125 C 799.625 219.929688 799.699219 218.765625 805.351562 221.183594 C 819.605469 227.273438 823.773438 218.464844 809.210938 212.214844 C 806.757812 211.15625 804.117188 209.40625 803.089844 211.8125 Z M 847.257812 242.683594 C 848.289062 246.378906 848.753906 245.488281 890.074219 254.753906 C 896.179688 256.121094 893.289062 242.238281 884.464844 241.714844 C 852.003906 239.796875 852.226562 240.503906 851.1875 238.105469 C 837.628906 206.628906 836.183594 203.117188 847.25 242.683594 Z M 892.488281 262.199219 C 892.789062 260.308594 892.824219 260.773438 836.148438 248.320312 C 833.152344 247.660156 830.507812 251.113281 820.308594 248.472656 C 795.816406 242.140625 791.21875 243.222656 783.007812 236.707031 C 762.84375 220.710938 762.570312 216.691406 759.695312 219.683594 C 750.644531 229.105469 780.761719 242.382812 791.925781 245.886719 C 829.058594 257.542969 833.242188 257.621094 835.769531 261.492188 C 844.015625 274.117188 854.039062 284.789062 870.738281 279.035156 C 880.570312 275.652344 890.453125 274.921875 892.488281 262.195312 Z M 902.644531 221.183594 C 897.585938 247.492188 897.363281 246.917969 898.15625 247.714844 C 904.914062 254.488281 902.644531 214.21875 902.644531 221.183594 Z M 842.199219 241.558594 C 833.863281 217.714844 836.140625 217.8125 832.121094 238.351562 C 831.550781 241.277344 843.054688 244.019531 842.199219 241.558594 Z M 584.796875 276.378906 C 584.765625 275.730469 590.136719 272.632812 595.265625 271.386719 C 630.542969 262.78125 665.65625 270.148438 622.796875 260.722656 C 618.378906 259.753906 600.808594 262.925781 603.210938 260.417969 C 607.292969 256.15625 611.859375 256.003906 621.539062 253.894531 C 622.394531 253.710938 622.363281 252.46875 621.503906 252.300781 C 602.921875 249.730469 624.289062 248.699219 633.582031 242.113281 C 636.105469 240.316406 632.554688 234.9375 635.992188 235.363281 C 677.066406 240.445312 702.003906 270.269531 711.78125 255.660156 C 712.597656 254.441406 711.972656 252.792969 710.5625 252.40625 C 675.1875 242.851562 641.082031 226.644531 630.417969 231.996094 C 611.128906 241.667969 592.492188 249.121094 574.078125 279.324219 C 571.183594 284.070312 584.484375 285.355469 596.609375 276.738281 C 598.785156 275.191406 584.828125 277.324219 584.789062 276.371094 Z M 898.996094 255.113281 C 897.957031 255.539062 898.183594 257.722656 899.335938 257.496094 C 899.46875 257.472656 899.421875 257.425781 902.1875 256.289062 C 904.269531 255.4375 899.644531 254.84375 898.996094 255.113281 Z M 535.105469 288.679688 C 537.511719 286.144531 516.234375 267.300781 513.941406 269.898438 C 513.46875 270.371094 534.5 289.3125 535.105469 288.679688 Z M 871.0625 283.644531 C 876.992188 283.992188 880.828125 283.523438 883.953125 287.195312 C 894.828125 299.980469 889.519531 310.632812 891.769531 310.835938 C 893.761719 311.015625 898.894531 296.574219 901.679688 299.363281 C 905.0625 302.753906 905.5 303.511719 907.097656 303.808594 C 936.863281 309.4375 934.75 298.398438 940.566406 303.90625 C 993.382812 353.945312 996.003906 314.023438 1000.421875 372.617188 C 1001.066406 381.15625 1005.535156 388.320312 1008.902344 399.683594 C 1015.140625 420.757812 1014.070312 423.089844 1017.136719 423.269531 C 1021.710938 423.539062 1018.789062 424.195312 1009.972656 382.441406 C 998.082031 326.164062 994.078125 318.894531 965.441406 308.40625 C 940.488281 299.269531 937.214844 292.84375 930.175781 292.476562 C 916.84375 291.78125 908.617188 293.382812 876.992188 281.070312 C 876.242188 280.777344 869.238281 283.703125 871.078125 283.636719 Z M 618.214844 357.925781 C 626.214844 291.203125 580.164062 283.015625 586.351562 286.984375 C 610.113281 302.242188 615.273438 329.957031 617.589844 357.898438 C 617.601562 358.3125 618.234375 358.339844 618.222656 357.917969 Z M 625.386719 464.082031 C 630.003906 462.792969 618.289062 421.882812 614.074219 423.996094 C 613.976562 424.019531 625.140625 464.207031 625.386719 464.082031 Z M 957.652344 457.65625 C 980.921875 443.910156 995.601562 441.875 1018.460938 434.089844 C 1020.351562 433.445312 1024.078125 439.570312 1016.863281 443.800781 C 996 456.035156 1002.632812 452.941406 1024.484375 443.058594 C 1024.675781 442.972656 1024.597656 443.035156 1021.785156 427.054688 C 1021.605469 426.046875 973.234375 440.875 957.195312 457.085938 C 956.910156 457.378906 957.273438 457.84375 957.652344 457.65625 Z M 1089.167969 460.429688 C 1076.882812 473.527344 1050.773438 463.464844 1041.5 451.265625 C 1039.117188 448.132812 1042.628906 469.1875 1032.355469 497.515625 C 1027.652344 510.46875 1042.648438 530.171875 1068.691406 527.945312 C 1078.519531 527.105469 1089.019531 518.785156 1088.308594 508.027344 C 1086.257812 476.886719 1090.789062 458.699219 1089.167969 460.433594 Z M 1001.574219 454.691406 C 998.453125 457.246094 996.335938 458.308594 997.46875 459.996094 C 1020.234375 493.847656 1023.644531 495.257812 1023.992188 505.140625 C 1024.203125 511.066406 1030.421875 498.394531 1027.871094 494.875 C 1003.988281 461.890625 1004.589844 452.226562 1001.574219 454.691406 Z M 633.710938 563.851562 C 638.183594 552.394531 659.035156 513.601562 649.246094 505.78125 C 648.253906 504.988281 646.785156 505.597656 646.605469 506.84375 C 641.492188 542.238281 630.304688 545.039062 631.773438 563.5625 C 631.859375 564.613281 633.328125 564.828125 633.710938 563.851562 Z M 651.738281 542.316406 C 643.183594 576.625 635.148438 591.25 635.195312 593.976562 C 636.3125 661.699219 633.167969 653.578125 647.269531 632.449219 C 649.144531 629.644531 655.332031 527.890625 651.738281 542.316406 Z M 658.910156 680.554688 C 656.417969 677.566406 643.609375 666.605469 642.347656 668.628906 C 634.035156 681.972656 639.167969 691.765625 642.980469 686.734375 C 645.902344 682.878906 648.25 683.453125 647.457031 681.886719 C 647.191406 681.367188 644.613281 679.96875 644.078125 676.703125 C 643.578125 673.644531 662.578125 684.972656 658.910156 680.5625 Z M 642.324219 697.355469 C 640.65625 702.742188 635.496094 709.195312 630.667969 719.273438 C 619.441406 742.734375 625.023438 759.277344 620.496094 784.890625 C 619.945312 788.015625 623.292969 782.226562 641.941406 771.203125 C 643.371094 770.359375 649.234375 760.578125 645.859375 759.816406 C 641.804688 758.292969 645.769531 724.277344 657.269531 716.632812 C 660.175781 714.703125 649.289062 712.320312 647.800781 710.839844 C 644.023438 706.480469 657.1875 711.402344 662.042969 706.882812 C 665.332031 703.816406 652.359375 705.617188 643.617188 697.039062 C 643.195312 696.625 642.492188 696.804688 642.324219 697.363281 Z M 793.355469 738.546875 C 804.457031 751.871094 798.839844 770.285156 799.625 777.605469 C 808.550781 860.441406 796.695312 897.382812 808.960938 970.132812 C 810.417969 978.792969 845.285156 974.785156 867.597656 972.433594 C 869.316406 972.25 870.539062 970.6875 870.300781 968.96875 C 859.5625 893.605469 867.671875 889.667969 866.402344 819.761719 C 866.09375 802.402344 859.238281 752.855469 857.027344 745.289062 C 856.277344 742.726562 850.140625 745.195312 838.375 743.105469 C 831.660156 741.910156 789.511719 733.9375 793.347656 738.546875 Z M 889.867188 757.078125 C 898.617188 749.992188 900.808594 749.070312 900.136719 746.015625 C 898.203125 737.269531 899.644531 737.910156 890.628906 743.449219 C 889.914062 743.886719 885.597656 760.535156 889.867188 757.074219 Z M 877.566406 762.953125 C 881.9375 760.765625 886.109375 745.15625 881.523438 744.894531 C 879.777344 744.792969 877.777344 744.355469 877.664062 746.242188 C 876.757812 761.652344 876.234375 763.621094 877.566406 762.953125 Z M 868.972656 775.308594 C 876.492188 772.523438 911.460938 758.304688 905.386719 763.636719 C 896.582031 771.359375 900.285156 774.011719 902.308594 772.34375 C 910.285156 765.769531 914 768.300781 913.917969 766.800781 C 913.890625 766.332031 911.839844 763.585938 909.269531 762.269531 C 906.875 761.046875 902.925781 749.449219 899.210938 753.300781 C 889.914062 762.949219 890.296875 762.679688 889.308594 763.164062 C 869.441406 772.902344 868.113281 773.464844 868.125 773.65625 C 868.300781 774.394531 868.371094 775.535156 868.984375 775.3125 Z M 912.132812 799.902344 C 919.550781 798.101562 941.53125 792.9375 941.925781 800.699219 C 942.179688 805.613281 941.589844 809.308594 945.066406 810.335938 C 947.894531 811.175781 951.433594 811.511719 950.628906 814.199219 C 950.28125 815.375 950.65625 814.445312 933.015625 824.617188 C 926.707031 828.25 949.160156 822.660156 950.433594 823.414062 C 952.675781 824.746094 951.625 828.4375 954.855469 827.585938 C 955.199219 827.496094 954.878906 827.621094 964.9375 822.652344 C 969.484375 820.410156 969.285156 823.457031 997.09375 848.125 C 1002.855469 853.234375 1003.582031 863.632812 1011.519531 868.402344 C 1021.699219 874.519531 1030.410156 880.210938 1037.585938 885.546875 C 1042.503906 889.199219 1049.160156 889.949219 1048.824219 895.792969 C 1047.832031 912.9375 1047.179688 914.027344 1049.242188 916.984375 C 1052.722656 921.976562 1071.074219 946.917969 1068.679688 950.460938 C 1065.136719 955.691406 1059.53125 954.851562 1071.738281 957.1875 C 1072.808594 957.390625 1072.921875 958.867188 1071.914062 959.21875 C 1067.863281 960.628906 1061.601562 962.238281 1059.949219 965.4375 C 1057.261719 970.644531 1077.523438 958.210938 1093.09375 972.5625 C 1105.464844 983.964844 1128.277344 1013.789062 1133.726562 1029.703125 C 1134.097656 1030.789062 1135.34375 1031.296875 1136.367188 1030.789062 C 1146.230469 1025.851562 1127.414062 1004.253906 1107.164062 976.597656 C 1098.515625 964.78125 1090.675781 969.480469 1085.351562 959.683594 C 1054.703125 903.214844 1053.191406 922.554688 1052.855469 895.816406 C 1052.722656 885.125 986.804688 823.453125 982.429688 819.371094 C 978.714844 815.910156 974.824219 816.949219 967.632812 817.300781 C 961.867188 817.582031 962.808594 814.21875 932.707031 786.984375 C 931.488281 785.878906 930.097656 785.429688 929.664062 784.511719 C 929.203125 783.539062 928.652344 782.710938 927.972656 782.058594 C 912.464844 767.082031 915.964844 762.828125 910.800781 779.988281 C 910.511719 780.941406 911.371094 781.835938 912.320312 781.621094 C 925.613281 778.648438 925.777344 778.46875 912.355469 786.90625 C 911.449219 787.476562 912.039062 788.875 913.074219 788.632812 C 928.554688 785.101562 928.496094 784.90625 928.691406 785.6875 C 928.921875 786.574219 910.847656 800.058594 912.128906 799.90625 Z M 663.128906 769.703125 C 647.289062 767.074219 636.851562 777.492188 622.652344 788.652344 C 620.496094 790.34375 619.386719 792.40625 619.152344 794.808594 C 618.917969 797.207031 625.238281 790.246094 626.871094 789.582031 C 646.390625 781.644531 645.855469 781.816406 646.113281 780.457031 C 646.609375 777.808594 646.636719 776.261719 648.261719 775.300781 C 654.011719 771.917969 667.367188 770.398438 663.128906 769.691406 Z M 641.703125 787.054688 C 613.691406 799.746094 616.066406 811.8125 618.449219 810.910156 C 626.078125 808.027344 612.71875 814.703125 607.785156 832.390625 C 595.457031 876.589844 580.15625 897.875 545.914062 1002.433594 C 531.636719 1046.039062 515.351562 1057.925781 519.464844 1059.457031 C 532.441406 1064.273438 533.671875 1070.425781 535.285156 1068.820312 C 536.03125 1068.078125 547.277344 1045.765625 558.746094 1016.214844 C 569.527344 988.453125 565.453125 983.988281 580.535156 953.429688 C 580.679688 953.140625 580.578125 953.429688 582.015625 943.222656 C 582.382812 940.613281 586.296875 943.648438 586.332031 941.171875 C 586.691406 917.773438 598.59375 899.683594 614.757812 863.488281 C 628.316406 833.125 623.382812 822.214844 642.269531 787.648438 C 642.445312 787.285156 642.066406 786.894531 641.703125 787.0625 Z M 796.511719 794.488281 C 785.652344 916.738281 765.636719 960.816406 779.25 963.449219 C 810.175781 969.417969 806.433594 971.269531 799.878906 957.804688 C 790.621094 938.785156 796.984375 932.242188 798.625 821.667969 C 799.117188 788.578125 796.144531 794.488281 796.511719 794.488281 Z M 1130.449219 1040.824219 C 1128.050781 1043.207031 1140.367188 1040.4375 1139.632812 1035.445312 C 1138.902344 1030.453125 1135.574219 1035.742188 1130.449219 1040.824219 Z M 533.261719 1071.960938 C 533.539062 1071.019531 518.5 1061.015625 517.824219 1061.351562 C 515.882812 1061.628906 515.117188 1063.984375 516.457031 1065.359375 C 533.917969 1083.359375 530.058594 1082.910156 533.261719 1071.953125 Z M 514.632812 1066.507812 C 512.988281 1064.21875 509.980469 1068.492188 512.011719 1071.75 C 529.273438 1099.492188 539.144531 1100.578125 514.632812 1066.507812 Z M 491.585938 1090.207031 C 489.710938 1099.667969 497.539062 1091.316406 504.207031 1084.351562 C 508.425781 1079.941406 511.726562 1077.199219 508.902344 1071.328125 C 507.617188 1068.664062 502.640625 1077.78125 482.246094 1086.234375 C 419.691406 1112.160156 416.15625 1122.316406 387.953125 1164.257812 C 371.796875 1188.289062 347.933594 1219.921875 347.933594 1219.949219 C 347.933594 1224.773438 347.484375 1226.667969 349.074219 1226.699219 C 353.953125 1226.789062 406.394531 1143.335938 418.570312 1131.035156 C 440.652344 1108.734375 492.03125 1087.957031 491.585938 1090.207031 Z M 382.046875 1269.960938 C 362.992188 1267.15625 344.105469 1245.054688 344.878906 1220.195312 C 344.921875 1218.804688 342.800781 1220.503906 342.351562 1221.316406 C 330.402344 1243.015625 303.699219 1269.324219 300.3125 1271.382812 C 286.820312 1279.597656 284.214844 1289.375 289.179688 1289.796875 C 298.386719 1290.574219 336.117188 1246.46875 342.027344 1239.601562 C 345.503906 1235.5625 348.070312 1263.796875 374.671875 1272.40625 C 381.742188 1274.695312 383.890625 1270.222656 382.046875 1269.953125 Z M 290.492188 1273.554688 C 263.40625 1289.296875 252.578125 1290.785156 245.753906 1307.785156 C 237.90625 1327.351562 237.328125 1325.597656 237.710938 1327.285156 C 241.6875 1344.769531 214.492188 1372.171875 201.753906 1399.492188 C 201.632812 1399.804688 202.011719 1400.074219 202.269531 1399.855469 C 214.515625 1387.453125 223.765625 1389.550781 223.03125 1387.09375 C 222.527344 1385.398438 214.324219 1387.644531 215.636719 1384.554688 C 220.9375 1372.109375 235.9375 1371.089844 224.820312 1371.761719 C 224.429688 1371.785156 224.171875 1371.378906 224.347656 1371.042969 C 239.601562 1341.425781 245.910156 1346.695312 248.605469 1331.28125 C 249.003906 1329.023438 250.972656 1328.84375 253.113281 1328.238281 C 256.488281 1327.285156 250.910156 1320.972656 257.261719 1311.949219 C 259.441406 1308.859375 267.644531 1309.644531 270.285156 1298.09375 C 270.527344 1297.042969 272.027344 1297.171875 272.09375 1298.242188 C 272.21875 1300.339844 274.230469 1304.953125 275.710938 1303.660156 C 276.054688 1303.367188 276.101562 1303.300781 276.046875 1297.480469 C 275.933594 1284.9375 295.152344 1270.847656 290.5 1273.554688 Z M 1170.566406 1307.746094 C 1175.214844 1306.691406 1175.695312 1300.007812 1172.21875 1299.792969 C 1169.945312 1299.652344 1145.988281 1310.519531 1105.789062 1310.773438 C 1101.863281 1310.796875 1107.085938 1322.183594 1170.566406 1307.746094 Z M 1200.746094 1399.949219 C 1194.238281 1378.675781 1193.160156 1362.585938 1181.921875 1370.148438 C 1181.179688 1370.652344 1181.503906 1371.796875 1182.378906 1371.839844 C 1185.289062 1371.972656 1191.402344 1371.582031 1191.695312 1377.40625 C 1192.113281 1385.722656 1192.289062 1385.753906 1191.597656 1386.605469 C 1187.882812 1391.183594 1196.011719 1391.550781 1196.542969 1399.074219 C 1196.75 1401.953125 1201.386719 1402.050781 1200.746094 1399.949219 Z M 1118.832031 1392.445312 C 1113.230469 1396.691406 1122.046875 1409.800781 1128.714844 1405.367188 C 1128.917969 1405.199219 1119.203125 1392.070312 1118.832031 1392.445312 Z M 1229.09375 1434.257812 C 1220.679688 1445.179688 1228.242188 1437.289062 1242.878906 1438.308594 C 1243.660156 1438.363281 1243.851562 1439.417969 1243.144531 1439.773438 C 1235.492188 1443.570312 1234.472656 1443.664062 1235.035156 1444.800781 C 1235.703125 1446.136719 1261.605469 1451.4375 1253.257812 1452.984375 C 1248.851562 1453.800781 1226.679688 1460.125 1227.894531 1462.867188 C 1228.035156 1463.292969 1228.527344 1463.53125 1228.980469 1463.359375 C 1261.203125 1450.925781 1259.414062 1462.882812 1293.152344 1470.292969 C 1305.390625 1472.980469 1305.746094 1482.03125 1307.753906 1480.957031 C 1309.21875 1480.175781 1307.417969 1470.503906 1298.667969 1466.074219 C 1226.457031 1429.582031 1215.570312 1416.394531 1213.621094 1422.984375 C 1212.582031 1426.488281 1215.804688 1422.226562 1222.382812 1426.078125 C 1224.71875 1427.449219 1215.648438 1432.488281 1216.96875 1433.789062 C 1217.863281 1434.671875 1230.761719 1432.085938 1229.09375 1434.25 Z M 1118.019531 1423.816406 C 1113.285156 1428.160156 1107.503906 1469.699219 1112.488281 1461.570312 C 1112.605469 1461.378906 1121.617188 1420.519531 1118.019531 1423.816406 Z M 1118.019531 1423.816406 " fill-opacity="1" fill-rule="nonzero"/></g><path fill="#000000" d="M 739.601562 73.132812 C 718.347656 97.570312 719.367188 106.003906 715.878906 104.0625 C 703.011719 96.929688 748.921875 63.503906 739.601562 73.132812 Z M 739.601562 73.132812 " fill-opacity="1" fill-rule="nonzero"/><path fill="#000000" d="M 855.722656 863.027344 C 856.210938 863.027344 856.652344 863.441406 856.652344 863.976562 C 856.523438 970.757812 860.488281 971.164062 852.449219 971.484375 C 850.175781 971.574219 829.636719 971.855469 829.9375 969.753906 C 830.117188 968.515625 829.59375 968.878906 841.96875 964.582031 C 848.230469 962.410156 844.09375 957.691406 848.757812 921.472656 C 856.050781 864.851562 853.585938 862.871094 855.714844 863.027344 Z M 855.722656 863.027344 " fill-opacity="1" fill-rule="nonzero"/></svg>