<svg xmlns="http://www.w3.org/2000/svg" xmlns:xlink="http://www.w3.org/1999/xlink" width="2000" zoomAndPan="magnify" viewBox="0 0 1500 1499.999933" height="2000" preserveAspectRatio="xMidYMid meet" version="1.0"><defs><clipPath id="7af7ad75fd"><path d="M 174.136719 0 L 1260.136719 0 L 1260.136719 1500 L 174.136719 1500 Z M 174.136719 0 " clip-rule="nonzero"/></clipPath></defs><g clip-path="url(#7af7ad75fd)"><path fill="#000000" d="M 503.945312 435.515625 C 515.035156 437.054688 524.941406 440.457031 533.664062 446.820312 C 549.136719 458.109375 555.484375 474.386719 558.191406 492.46875 C 560.957031 510.90625 558.816406 528.84375 551.914062 546.222656 C 546.9375 558.738281 539.25 560.757812 528.800781 552.101562 C 528.410156 551.835938 528 551.605469 527.566406 551.410156 C 528.484375 564.101562 538.289062 570.675781 549.664062 565.734375 C 558.589844 561.855469 566.9375 556.648438 575.832031 552.671875 C 585.273438 548.445312 594.867188 544.351562 604.765625 541.460938 C 609.144531 540.183594 614.582031 541.410156 619.265625 542.585938 C 625.597656 544.183594 631.59375 547.0625 637.871094 548.917969 C 641.121094 549.878906 641.425781 551.324219 640.5 554.136719 C 638.484375 560.257812 634.546875 564.429688 628.292969 565.886719 C 624.121094 566.863281 619.789062 567.285156 615.5 567.597656 C 606.816406 568.226562 598.730469 570.113281 592.46875 576.78125 C 583.789062 586.023438 585.425781 597.867188 597.710938 604.449219 C 613.640625 612.988281 630.667969 618.277344 648.53125 621.085938 C 655.71875 622.21875 660.886719 619.96875 665.085938 614.128906 C 678.074219 596.0625 678.480469 568.871094 665.0625 552.699219 C 660.9375 547.71875 655.957031 543.832031 650.125 541.027344 C 631.851562 532.566406 612.5625 529.644531 592.558594 533.558594 C 582.5625 535.511719 573.878906 539.992188 566.734375 547.445312 C 570.65625 539.339844 576.441406 532.820312 583.496094 527.355469 C 599.683594 514.808594 618.371094 511.347656 638.03125 513.984375 C 668.203125 518.027344 695.4375 529.527344 718.503906 549.679688 C 745.164062 572.980469 756.175781 603.101562 754.992188 637.917969 C 754.648438 648.066406 752.789062 658.15625 751.625 668.273438 L 750.09375 668.484375 C 746.332031 664.667969 742.402344 660.992188 738.929688 656.929688 C 738.121094 655.984375 738.558594 653.65625 738.917969 652.074219 C 744.535156 627.3125 740.761719 603.828125 729.316406 581.324219 C 737.722656 603.75 739.757812 626.253906 730.484375 649.738281 C 714.554688 635.40625 697.746094 623.207031 678.410156 614.683594 C 682.953125 618.246094 687.628906 621.652344 692.015625 625.398438 C 701.148438 633.191406 710.339844 640.945312 719.113281 649.140625 C 725.519531 655.128906 725.476562 657.894531 719.902344 664.675781 C 712.484375 673.703125 702.90625 679.609375 691.828125 683.183594 L 692.140625 684.351562 C 697.449219 683.054688 703.042969 682.433594 707.988281 680.300781 C 715.582031 677.03125 722.828125 672.894531 730.027344 668.78125 C 733.957031 666.53125 738.632812 667.023438 742.167969 670.945312 C 745.746094 674.914062 742.28125 677.550781 740 679.882812 C 732.09375 687.96875 721.917969 691.832031 711.152344 694.152344 C 698.695312 696.835938 686.101562 697.078125 672.957031 695.597656 C 682.933594 673.160156 685.878906 651.40625 670.679688 630.128906 C 670.265625 630.707031 669.949219 630.949219 669.984375 631.121094 C 672.199219 642.082031 668.738281 646.574219 657.460938 646.28125 C 640.863281 645.855469 624.214844 645.550781 607.957031 641.082031 C 621.015625 652.121094 634.609375 661.917969 652.621094 662.894531 C 659.191406 663.246094 665.269531 665.183594 669.675781 670.484375 C 672.597656 674.003906 674.078125 678.019531 672.058594 682.492188 C 670.070312 686.902344 666.089844 688.570312 661.714844 687.773438 C 649.488281 685.542969 637.34375 682.863281 625.171875 680.332031 C 623.515625 679.988281 621.890625 679.480469 620.25 679.050781 L 619.839844 680.53125 L 663.035156 692.96875 C 664.71875 698.109375 662.105469 703.265625 655.074219 703.667969 C 647.738281 704.082031 640.1875 702.925781 632.917969 701.5 C 628.832031 700.699219 625.539062 699.167969 621.480469 702.160156 C 616.742188 705.660156 611.617188 704.015625 607.234375 700.730469 C 600.574219 695.738281 593.625 691.003906 587.625 685.292969 C 578.695312 676.800781 568.40625 670.542969 557.921875 664.3125 C 540.761719 654.109375 523.71875 643.671875 507.0625 632.671875 C 500.453125 628.3125 494.8125 622.394531 489.101562 616.808594 C 484.007812 611.824219 482.382812 605.164062 482.511719 598.273438 C 482.644531 591.203125 480.777344 585.234375 476.175781 579.695312 C 473.421875 576.3125 471.511719 572.503906 470.457031 568.273438 C 466.917969 553.835938 463.773438 539.300781 460.890625 524.71875 C 460.085938 520.429688 460.023438 516.132812 460.703125 511.824219 C 462.796875 498.308594 471.113281 491.855469 487.34375 490.640625 C 497.769531 489.855469 508.152344 489.765625 518.199219 493.390625 C 518.5625 493.519531 519.058594 493.277344 520.308594 493.078125 C 497.46875 480.800781 475.816406 482.488281 453.609375 495.628906 C 453.609375 488.675781 453.308594 482.515625 453.675781 476.394531 C 454.292969 466.152344 455.449219 456.003906 460.613281 446.738281 C 464.078125 440.523438 469.09375 437.578125 476.15625 437.304688 C 478.199219 437.226562 480.605469 436.050781 482.125 434.617188 C 494.8125 422.664062 507.136719 410.3125 520.03125 398.589844 C 523.730469 395.226562 528.949219 393.527344 534.144531 390.695312 C 538.984375 406.695312 543.074219 421.464844 552.441406 433.996094 C 550.804688 428.386719 549.027344 422.816406 547.582031 417.160156 C 546.480469 412.835938 545.742188 408.410156 544.945312 404.011719 C 542.261719 389.261719 549.769531 378.542969 559.722656 369.4375 C 566.273438 363.550781 573.390625 358.445312 581.066406 354.121094 C 587.179688 350.625 594.253906 348.808594 601.171875 346.144531 C 611.257812 369.46875 618.160156 394.035156 639.253906 410.253906 C 636.832031 405.113281 634.363281 400 632.003906 394.832031 C 623.746094 376.761719 616.222656 358.429688 612.886719 338.691406 C 610.464844 324.382812 612.636719 310.257812 615.117188 296.210938 C 618.601562 276.449219 623.773438 257.175781 632.75 239.085938 C 638.117188 228.265625 645.65625 220.773438 658.136719 217.730469 C 690.425781 209.851562 722.917969 204.914062 756.144531 208.898438 C 781.144531 211.894531 804.691406 220.199219 827.335938 230.988281 C 828.972656 231.769531 829.804688 235 830.320312 237.25 C 834.066406 253.582031 836.890625 270.171875 841.464844 286.261719 C 843.960938 295.167969 847.40625 303.691406 851.804688 311.828125 C 856.207031 319.964844 861.449219 327.519531 867.53125 334.484375 C 869.628906 336.886719 872.011719 339.039062 874.300781 341.269531 C 877.777344 344.660156 881.171875 347.941406 886.796875 345.410156 C 887.710938 345.058594 888.65625 344.882812 889.632812 344.882812 C 890.609375 344.882812 891.554688 345.058594 892.46875 345.410156 C 897.183594 347.378906 899.042969 344.753906 901.417969 341.339844 C 910.160156 328.78125 921.515625 319.664062 936.417969 315 C 954.957031 309.199219 971.277344 299.691406 983.816406 284.460938 C 984.832031 283.230469 985.753906 281.910156 986.65625 280.589844 C 986.835938 280.230469 986.949219 279.851562 986.996094 279.453125 C 982.222656 279.453125 977.457031 279.269531 972.722656 279.574219 C 971.480469 279.65625 970.121094 281.0625 969.179688 282.171875 C 960.023438 292.984375 948.976562 299.789062 934.246094 299.140625 C 932.113281 299.058594 930.003906 298.785156 927.921875 298.324219 C 925.839844 297.863281 923.816406 297.21875 921.847656 296.394531 C 919.878906 295.574219 918 294.582031 916.210938 293.421875 C 914.421875 292.261719 912.746094 290.953125 911.191406 289.492188 C 903.597656 282.472656 897.015625 274.363281 889.851562 266.863281 C 887.957031 264.878906 885.777344 262.839844 883.316406 261.773438 C 866.300781 254.390625 849.933594 246.042969 837.703125 231.550781 C 834.847656 228.167969 832.5625 224.21875 830.484375 220.28125 C 826.6875 213.082031 822.082031 206.570312 815.371094 201.90625 C 810.511719 198.523438 809.59375 194.128906 810.882812 188.871094 C 811.492188 186.390625 812.050781 183.796875 813.265625 181.605469 C 814.484375 179.398438 816.488281 177.625 818.640625 175.082031 C 817.476562 165.066406 815.769531 153.832031 814.941406 142.535156 C 813.332031 120.527344 813.367188 98.488281 822.097656 77.722656 C 828.613281 62.234375 839.148438 49.371094 851.082031 37.539062 C 874.90625 13.914062 903.285156 1.25 936.933594 0.398438 C 940.75 0.300781 943.359375 1.632812 945.75 4.183594 C 952.816406 11.738281 956.878906 20.910156 959.929688 30.609375 C 963.890625 43.183594 965.566406 56.113281 966.242188 69.285156 L 942.070312 72.109375 C 941.589844 72.164062 941.109375 72.191406 940.636719 72.277344 C 932.425781 73.804688 932.140625 74.160156 933.148438 82.558594 C 933.882812 88.652344 934.703125 94.734375 936.285156 100.699219 C 936.601562 95.613281 936.902344 90.527344 937.238281 85.4375 C 937.535156 80.921875 940.082031 78.925781 944.496094 79.066406 C 957.945312 79.496094 971.445312 79.359375 984.828125 80.519531 C 995.621094 81.453125 1006.382812 83.492188 1016.957031 85.910156 C 1025.171875 87.789062 1025.15625 88.566406 1024.40625 96.875 C 1023.335938 108.671875 1022.328125 120.480469 1021.144531 132.265625 C 1020.898438 134.699219 1019.996094 137.0625 1019.210938 140.195312 C 1009.230469 130.433594 996.894531 130.6875 985.304688 129.238281 C 960.664062 126.160156 935.878906 122.890625 911.058594 125.335938 C 900.339844 126.394531 892.835938 123.277344 885.972656 115.988281 C 885.042969 115.003906 883 114.175781 881.796875 114.496094 C 874.429688 116.449219 867 118.351562 859.90625 121.085938 C 855.261719 122.875 853.347656 126.964844 853.347656 132.324219 C 853.347656 136.34375 852.214844 140.546875 850.753906 144.34375 C 849.308594 148.085938 849.8125 150.058594 853.414062 152.066406 C 858.28125 154.777344 862.691406 158.289062 867.410156 161.285156 C 870.578125 163.296875 871.023438 165.925781 870.707031 169.472656 C 869.066406 187.964844 867.722656 206.484375 866.214844 224.992188 C 865.675781 231.617188 867.949219 236.335938 873.636719 240.351562 C 887.964844 250.472656 903.246094 258.53125 919.96875 263.941406 C 912.132812 259.480469 904.121094 255.292969 896.519531 250.46875 C 889.375 245.9375 882.550781 240.878906 875.847656 235.710938 C 874.320312 234.53125 872.984375 231.917969 873.070312 230.035156 C 873.621094 217.96875 874.59375 205.921875 875.375 194.617188 L 914.570312 208.730469 L 915.21875 207.003906 C 913.160156 206.246094 911.097656 205.511719 909.054688 204.714844 C 906.816406 203.847656 904.542969 203.042969 902.390625 201.992188 C 896.0625 198.921875 889.773438 195.769531 883.5 192.59375 C 877.417969 189.515625 875.929688 184.347656 877.09375 178.058594 C 877.410156 176.367188 877.835938 174.695312 878.328125 172.484375 C 887.558594 178.746094 897.53125 182.390625 908.199219 184.101562 C 911.988281 184.710938 915.816406 185.402344 919.636719 185.441406 C 923.113281 185.476562 924.648438 186.980469 924.949219 190.15625 C 925.601562 197.003906 926.277344 203.855469 926.796875 210.71875 C 927.925781 225.566406 928.851562 240.429688 930.113281 255.265625 C 930.429688 258.984375 931.691406 262.617188 932.785156 267.464844 L 932.785156 215.625 C 962.527344 222.082031 991.921875 223.90625 1021.496094 217.441406 C 1019.855469 217.441406 1018.214844 217.523438 1016.582031 217.429688 C 994.84375 216.15625 973.101562 214.910156 951.375 213.496094 C 948.382812 213.300781 945.402344 212.367188 942.492188 211.527344 C 934.851562 209.316406 931.195312 200.121094 935.339844 193.214844 C 935.867188 192.339844 937.957031 191.890625 939.226562 192.046875 C 956.226562 194.105469 973.183594 196.554688 990.203125 198.410156 C 1005.144531 200.039062 1019.953125 198.855469 1034.410156 194.417969 C 1034.96875 194.242188 1035.589844 194.269531 1037.390625 194.0625 C 1033.253906 208.460938 1029.683594 222.347656 1025.203125 235.933594 C 1022.546875 243.816406 1019.128906 251.359375 1014.945312 258.550781 C 1013.1875 261.621094 1009.230469 264.316406 1005.734375 265.339844 C 994.265625 268.703125 982.550781 271.21875 970.246094 274.226562 C 984.417969 274.140625 998.175781 274.492188 1010.710938 268.449219 C 1014.722656 266.511719 1017.96875 261.726562 1020.167969 257.519531 C 1029.265625 240.125 1034.480469 221.273438 1039.519531 202.425781 C 1043.523438 187.449219 1047.203125 172.378906 1050.773438 157.292969 C 1053.492188 145.828125 1048.894531 134.144531 1039.917969 128.652344 C 1039.308594 128.28125 1038.617188 128.046875 1036.828125 127.230469 C 1038.757812 130.179688 1040.097656 132.054688 1041.257812 134.039062 C 1046.265625 142.59375 1047 151.492188 1041.644531 159.953125 C 1033.785156 172.363281 1022.675781 181.417969 1009.234375 189.242188 C 1011.269531 182.820312 1013.523438 177.40625 1014.632812 171.769531 C 1016.042969 164.601562 1016.710938 157.265625 1017.296875 149.96875 C 1017.476562 147.726562 1018.355469 146.621094 1019.644531 144.929688 C 1022.074219 141.738281 1024.335938 137.796875 1024.894531 133.910156 C 1027.097656 118.566406 1028.652344 103.128906 1030.28125 87.710938 C 1030.394531 86.648438 1029.40625 84.820312 1028.460938 84.398438 C 1018.703125 80.070312 1008.851562 75.957031 998.132812 71.40625 C 996.855469 50.140625 996.722656 26.921875 980.085938 7.699219 C 985.886719 10.195312 991.933594 12.25 997.453125 15.265625 C 1025.003906 30.300781 1041.265625 54.179688 1048.824219 83.957031 C 1052.066406 96.738281 1052.863281 110.132812 1054.867188 123.234375 C 1055.15625 125.089844 1055.746094 126.84375 1056.636719 128.496094 C 1060.636719 135.832031 1062.648438 143.246094 1058.832031 151.367188 C 1058.253906 152.601562 1058.453125 154.46875 1058.875 155.867188 C 1061.710938 165.148438 1061.476562 173.820312 1054.84375 181.667969 C 1053.699219 183.019531 1053.339844 185.136719 1052.914062 186.972656 C 1047.917969 208.492188 1042.578125 229.921875 1033.660156 250.21875 C 1030.851562 256.507812 1027.542969 262.523438 1023.730469 268.261719 C 1021.695312 271.359375 1018.710938 274.652344 1015.414062 275.90625 C 1010.9375 277.609375 1009.007812 280.789062 1007.125 284.429688 C 996.796875 304.386719 981.664062 318.769531 960.558594 327.398438 C 945.699219 333.46875 932.0625 342.109375 921.050781 354.164062 C 911.730469 364.367188 905.777344 376.1875 904.609375 390.15625 C 904.5 391.273438 904.332031 392.382812 904.109375 393.480469 C 904.058594 393.753906 903.78125 393.988281 903.257812 394.746094 C 870.625 380.441406 852.394531 353.132812 837.710938 322.53125 C 848.570312 370.265625 874.949219 406.472656 918.179688 431.308594 C 918.179688 421.042969 917.28125 411.554688 918.347656 402.289062 C 921.742188 372.667969 936.410156 351.628906 965.847656 342.226562 C 998.519531 331.792969 1020.433594 309.28125 1035.417969 279.222656 C 1035.988281 278.078125 1036.851562 277.003906 1037.105469 275.792969 C 1039.113281 266.320312 1045.4375 264.648438 1054.027344 265.445312 C 1070.589844 266.980469 1087.234375 267.636719 1103.792969 269.191406 C 1118.691406 270.589844 1130.511719 278.46875 1140.894531 288.6875 C 1156.6875 304.230469 1170.921875 321.0625 1182.757812 339.851562 C 1184.203125 342.144531 1185.847656 344.3125 1187.410156 346.53125 C 1193.960938 355.839844 1195.519531 366.328125 1195.804688 377.476562 C 1196.222656 393.832031 1197.097656 410.132812 1193.546875 426.285156 C 1191.738281 434.519531 1187.355469 439.859375 1179.257812 443.40625 C 1155.386719 453.859375 1131.769531 464.921875 1108.285156 476.222656 C 1102.457031 479.027344 1097.390625 483.496094 1092.1875 487.476562 C 1090.171875 489.09375 1088.511719 491.023438 1087.214844 493.261719 C 1083.457031 499.523438 1086.503906 505.371094 1093.574219 504.164062 C 1102.402344 502.691406 1110.925781 500.183594 1119.144531 496.644531 C 1143.304688 486.074219 1165.164062 471.472656 1186.667969 456.351562 C 1187.835938 455.53125 1189.015625 454.722656 1190.90625 453.410156 C 1193.699219 457.765625 1196.910156 461.765625 1199.023438 466.28125 C 1203.832031 476.542969 1208.390625 486.945312 1212.503906 497.503906 C 1215.601562 505.457031 1213.089844 512.992188 1208.808594 519.90625 C 1200.820312 532.828125 1189.441406 542.460938 1177.441406 551.382812 C 1170.523438 556.523438 1163.304688 561.253906 1156.460938 566.515625 C 1184.074219 554.59375 1209.335938 539.324219 1228.402344 515.363281 C 1238.726562 522.25 1240.171875 535.894531 1230.507812 545.347656 C 1223.59375 552.050781 1215.898438 557.691406 1207.425781 562.273438 C 1190.242188 571.605469 1171.707031 577.832031 1152.84375 582.984375 C 1151.773438 583.273438 1150.816406 583.777344 1149.96875 584.488281 C 1185.105469 583.042969 1218.023438 573.480469 1249.605469 556.949219 C 1258.707031 582.730469 1266.699219 607.863281 1252.015625 634.160156 C 1224.3125 623.617188 1196.933594 619.039062 1168.957031 630.113281 C 1168.941406 630.660156 1168.929688 631.207031 1168.914062 631.753906 C 1175.011719 631.753906 1181.175781 631.1875 1187.199219 631.867188 C 1201.480469 633.480469 1215.707031 635.632812 1229.9375 637.707031 C 1232.117188 638.027344 1234.230469 638.988281 1236.296875 639.84375 C 1247.839844 644.617188 1251.171875 648.5 1250.253906 660.890625 C 1248.941406 678.578125 1247.277344 696.339844 1244.058594 713.753906 C 1239.460938 738.601562 1239.023438 763.246094 1241.789062 788.300781 C 1244.421875 812.164062 1246.917969 836.183594 1247.011719 860.148438 C 1247.167969 898.414062 1222.171875 942.226562 1177.445312 953.984375 C 1174.351562 954.796875 1171.109375 955.175781 1168.132812 956.285156 C 1162.707031 958.308594 1159.488281 955.15625 1156.753906 951.554688 C 1153.5625 947.347656 1156.457031 944.464844 1160.148438 941.996094 C 1158.910156 939.6875 1157.785156 937.601562 1156.667969 935.511719 C 1153.648438 929.851562 1155.179688 926.015625 1160.902344 923.105469 C 1166.097656 920.464844 1171.363281 917.703125 1175.941406 914.15625 C 1186.582031 905.910156 1187.875 893.988281 1187.410156 881.664062 C 1187.269531 880.355469 1186.695312 879.28125 1185.683594 878.4375 C 1181.273438 874.980469 1177.453125 871.300781 1177.453125 865.09375 C 1177.453125 864.15625 1176.457031 863.21875 1175.128906 860.886719 C 1172.949219 864.40625 1170.949219 866.929688 1169.699219 869.789062 C 1166.632812 876.792969 1163.757812 883.886719 1161.085938 891.0625 C 1157.886719 899.625 1142.410156 903.121094 1136.179688 901.699219 C 1134.792969 901.269531 1133.746094 900.421875 1133.03125 899.164062 C 1130.589844 894.667969 1131.691406 885.402344 1135.316406 881.941406 C 1142.136719 875.425781 1144.34375 867.257812 1145.347656 858.222656 C 1147.082031 842.664062 1151.390625 827.800781 1159.566406 814.285156 C 1165.011719 805.289062 1172.144531 803.503906 1181.09375 808.9375 C 1189.757812 814.199219 1195.070312 821.582031 1194.425781 832.21875 C 1193.914062 840.648438 1193.269531 849.070312 1192.691406 857.398438 C 1200.554688 843.746094 1202.957031 818.445312 1191.773438 804.273438 C 1187.132812 798.394531 1181.769531 795.542969 1174.304688 797.140625 C 1172.785156 797.46875 1171.226562 797.621094 1169.652344 797.859375 C 1172.027344 791.449219 1174.601562 785.296875 1176.574219 778.957031 C 1178.953125 771.320312 1178.445312 763.730469 1176.71875 755.792969 C 1174.34375 744.890625 1172.515625 733.691406 1172.15625 722.566406 C 1171.441406 700.355469 1164.832031 679.519531 1159.675781 658.234375 C 1155.058594 639.171875 1152.574219 619.601562 1148.949219 600.292969 C 1148.433594 597.488281 1147.3125 594.953125 1145.585938 592.683594 C 1140.816406 586.695312 1137.90625 580.03125 1137.828125 572.453125 C 1137.792969 569.03125 1136.289062 567.328125 1133.910156 565.449219 C 1110.292969 546.796875 1088.621094 526.214844 1071.464844 501.292969 C 1063.058594 489.085938 1056.402344 476.03125 1053.195312 461.375 C 1052.902344 480.726562 1056.230469 499.285156 1066.199219 517.230469 C 1038.171875 520.953125 1012.503906 518.910156 991.492188 497.976562 C 1004.542969 518.703125 1025.46875 528.273438 1048.195312 537.378906 C 996.332031 610.246094 928.136719 654.382812 838.398438 663.566406 C 842.035156 663.964844 845.664062 664.453125 849.3125 664.742188 C 852.988281 665.035156 856.679688 665.3125 860.359375 665.292969 C 895.9375 665.101562 929.84375 656.769531 962.550781 643.429688 C 978.972656 636.734375 994.890625 628.796875 1011.492188 621.210938 C 1010.234375 625.417969 1009.09375 629.734375 1007.660156 633.949219 C 993.601562 675.273438 979.492188 716.578125 965.320312 757.859375 C 963.242188 763.875 960.039062 769.5 957.402344 775.328125 C 956.007812 778.402344 953.714844 780.023438 950.320312 780.179688 C 935.449219 780.867188 920.566406 782.390625 905.710938 782.148438 C 848.804688 781.210938 793.726562 770.875 741.175781 748.449219 C 739.457031 747.71875 737.722656 747.027344 735.992188 746.320312 L 734.96875 747.480469 C 735.972656 748.046875 736.945312 748.664062 737.878906 749.339844 C 754.023438 762.328125 772.828125 770 792.308594 776.105469 C 825.335938 786.460938 859.339844 791.5625 893.796875 793.605469 C 912.988281 794.746094 932.230469 795.222656 951.457031 795.472656 C 956.191406 795.53125 957.804688 797.007812 958.613281 801.335938 C 963.566406 827.863281 960.644531 853.398438 948.515625 877.53125 C 944.203125 886.140625 939.121094 894.265625 933.261719 901.90625 C 904.21875 939.582031 875.085938 977.195312 845.40625 1014.367188 C 832.71875 1030.253906 818.859375 1045.390625 802.070312 1057.105469 C 792.5625 1063.746094 781.253906 1067.808594 771.726562 1074.425781 C 752.941406 1087.46875 734.832031 1101.484375 716.429688 1115.085938 C 715.65625 1115.597656 714.859375 1116.070312 714.039062 1116.5 L 714.929688 1117.507812 C 724.023438 1111.4375 732.839844 1104.894531 742.273438 1099.402344 C 758.558594 1089.917969 775.179688 1080.996094 791.789062 1072.074219 C 794.515625 1070.605469 797.859375 1070.203125 800.964844 1069.539062 C 810.460938 1067.511719 818.1875 1062.152344 824.421875 1055.273438 C 835.910156 1042.601562 846.726562 1029.3125 857.597656 1016.097656 C 860.265625 1012.855469 862.296875 1010.15625 867.269531 1009.730469 C 873.847656 1009.164062 880.09375 1006.679688 881.878906 998.773438 C 882.210938 997.304688 883.75 995.546875 885.164062 994.96875 C 897.710938 989.820312 910.09375 984.019531 923.042969 980.152344 C 938.539062 975.527344 954.257812 987.414062 955.398438 1003.515625 C 955.625 1006.664062 956.339844 1008.636719 959.539062 1009.410156 C 960.597656 1009.664062 961.804688 1010.175781 962.480469 1010.964844 C 964.035156 1012.785156 966.296875 1014.816406 966.371094 1016.828125 C 966.429688 1018.417969 963.949219 1020.730469 962.070312 1021.640625 C 954.40625 1025.359375 954.332031 1025.207031 950.886719 1034.160156 C 952.308594 1035.15625 954.097656 1036.003906 955.289062 1037.367188 C 956.421875 1038.664062 957.828125 1040.75 957.476562 1042.042969 C 957.09375 1043.457031 954.875 1044.429688 953.355469 1045.449219 C 952.753906 1045.746094 952.125 1045.804688 951.476562 1045.617188 C 944.636719 1043.894531 941.386719 1048.207031 938.1875 1053.113281 C 927.992188 1068.753906 922.605469 1091.550781 925.234375 1109.277344 C 926.273438 1109.199219 927.496094 1108.746094 928.359375 1109.121094 C 930.367188 1109.988281 933.363281 1110.914062 933.808594 1112.441406 C 934.371094 1114.386719 932.855469 1116.960938 932.136719 1119.230469 C 932.023438 1119.582031 931.398438 1119.925781 930.960938 1119.996094 C 923.453125 1121.210938 924.597656 1126.417969 926.546875 1130.902344 C 927.90625 1132.828125 930.710938 1135.179688 930.296875 1136.578125 C 929.632812 1138.828125 926.839844 1140.449219 924.339844 1141.5625 L 915.125 1160.722656 C 917.921875 1165.070312 917.308594 1166.320312 911.839844 1167.863281 C 910.289062 1168.300781 908.84375 1170.019531 907.890625 1171.496094 C 898.210938 1186.453125 873.957031 1189.171875 862.105469 1183 C 854.949219 1179.273438 848.402344 1170.8125 851.457031 1160.277344 C 854.390625 1150.15625 856.894531 1139.875 858.921875 1129.535156 C 859.816406 1124.988281 859.074219 1120.117188 859.074219 1114.949219 C 861.4375 1114.546875 864.714844 1114.191406 867.894531 1113.417969 C 880.765625 1110.273438 890.058594 1102.144531 897.105469 1091.394531 C 909.535156 1072.425781 912.925781 1051.472656 909.46875 1029.332031 C 908.621094 1023.898438 906.589844 1018.664062 900.023438 1016.613281 C 901.695312 1022.253906 903.507812 1027.3125 904.683594 1032.519531 C 908.066406 1047.476562 903.414062 1061.335938 898.300781 1075.050781 C 896.804688 1078.933594 895.109375 1082.722656 893.214844 1086.425781 C 887.015625 1098.886719 876.851562 1105.738281 863.117188 1107.523438 C 852.992188 1108.835938 843.144531 1107.425781 833.34375 1104.976562 C 851.683594 1103.996094 868.597656 1100.617188 877.421875 1081.695312 C 869.609375 1090.382812 859.652344 1095.03125 848.273438 1096.011719 C 840.164062 1096.710938 831.933594 1096.511719 823.789062 1096.105469 C 806.945312 1095.261719 789.972656 1093.8125 773.996094 1100.566406 C 763.121094 1105.164062 752.941406 1111.382812 742.195312 1116.3125 C 725.066406 1124.160156 707.722656 1131.539062 690.472656 1139.113281 C 690.25 1138.773438 690.023438 1138.433594 689.800781 1138.09375 C 693.949219 1132.800781 698.265625 1127.632812 702.214844 1122.195312 C 710.992188 1110.105469 719.136719 1097.621094 722.347656 1082.714844 C 724.839844 1071.136719 722.304688 1061.394531 712.347656 1053.773438 C 694.730469 1040.289062 674.894531 1031.914062 652.269531 1026.308594 C 653.773438 1027.421875 654.25 1027.851562 654.796875 1028.15625 C 655.492188 1028.546875 656.25 1028.824219 656.96875 1029.175781 C 686.867188 1043.84375 699.871094 1071.964844 691.769531 1104.265625 C 687.625 1120.78125 680.351562 1135.96875 670.695312 1149.777344 C 661.171875 1163.398438 650.292969 1176.074219 640.210938 1189.316406 C 637.53125 1192.835938 634.324219 1193.5 630.554688 1192.46875 C 625.050781 1190.960938 619.628906 1189.144531 613.875 1187.371094 C 610.488281 1200.375 604.875 1212.5625 597.625 1224.191406 C 594.351562 1229.445312 590.089844 1230.5625 584.964844 1231.140625 C 558.363281 1234.148438 534.121094 1228 512.363281 1212.304688 C 511.53125 1211.644531 510.59375 1211.402344 509.546875 1211.574219 C 511.054688 1213.054688 512.519531 1214.582031 514.082031 1216 C 530.503906 1230.910156 550.410156 1238.070312 571.828125 1241.804688 C 575.925781 1242.519531 580.054688 1243.160156 584.199219 1243.492188 C 586.835938 1243.703125 587.933594 1245.164062 587.125 1247.199219 C 585.757812 1250.648438 584.585938 1255.390625 581.851562 1256.878906 C 570.070312 1263.292969 562.871094 1274.304688 553.625 1283.214844 C 528.332031 1307.601562 499.253906 1326.214844 467.519531 1341.101562 C 444.742188 1351.789062 422.609375 1363.75 402.804688 1379.519531 C 399.8125 1381.90625 397.03125 1384.5625 392.796875 1388.285156 C 392.609375 1383.410156 391.832031 1379.570312 392.441406 1375.960938 C 394.402344 1364.386719 400.429688 1354.496094 408.199219 1346.191406 C 420.425781 1333.121094 433.628906 1320.964844 446.453125 1308.457031 C 448.082031 1306.867188 449.925781 1305.496094 450.988281 1303.109375 C 444.894531 1306.75 438.996094 1310.785156 432.664062 1313.953125 C 415.941406 1322.324219 399.101562 1330.460938 382.144531 1338.355469 C 378.453125 1340.078125 374.15625 1340.972656 370.074219 1341.238281 C 365.785156 1341.523438 361.417969 1340.597656 356.683594 1340.160156 C 359.902344 1361.027344 373.898438 1376.117188 388.222656 1391.378906 C 358.660156 1400.210938 335.882812 1418.167969 316.214844 1442.441406 C 316.75 1438.503906 317.207031 1435.679688 317.507812 1432.832031 C 317.828125 1429.808594 318.273438 1426.757812 318.179688 1423.734375 C 317.949219 1416.398438 318.140625 1408.953125 316.890625 1401.777344 C 314.558594 1388.414062 308.921875 1383.351562 295.554688 1381.648438 C 285.609375 1380.378906 276.699219 1383.328125 267.730469 1389.898438 C 274.335938 1389.230469 279.785156 1388.527344 285.257812 1388.160156 C 295.207031 1387.496094 302.132812 1391.800781 306.035156 1401.074219 C 313.75 1419.363281 315.332031 1437.730469 305.734375 1455.714844 C 302.3125 1462.125 297.476562 1467.878906 292.707031 1473.4375 C 288.40625 1478.453125 283.425781 1482.910156 278.550781 1487.410156 C 270.34375 1494.992188 260.480469 1494.386719 250.464844 1492.699219 C 235.988281 1490.261719 224.902344 1483.757812 218.945312 1469.324219 C 214.515625 1458.601562 198.148438 1454.015625 187.929688 1459.597656 C 184.636719 1461.394531 183.496094 1464.808594 186.484375 1468.101562 C 191.492188 1473.613281 196.929688 1478.953125 202.976562 1483.253906 C 208.773438 1487.410156 214.972656 1490.847656 221.570312 1493.566406 C 228.167969 1496.285156 234.992188 1498.210938 242.035156 1499.34375 C 215.96875 1501.1875 193.949219 1493.988281 179.320312 1470.757812 C 170.222656 1456.308594 172.988281 1446.359375 188.359375 1438.898438 C 192.890625 1436.699219 198.007812 1435.6875 202.882812 1434.210938 C 213.773438 1430.910156 222.449219 1436.324219 231.203125 1441.457031 C 244.074219 1449.011719 254.929688 1458.859375 264.457031 1470.839844 C 261.34375 1459.910156 242.085938 1440.664062 221.867188 1428.0625 C 231.050781 1423.023438 236.195312 1414.980469 240.179688 1405.703125 C 242.652344 1400.136719 245.804688 1394.984375 249.632812 1390.246094 C 251.644531 1387.703125 255.324219 1386.429688 258.355469 1384.769531 C 262.332031 1382.59375 266.59375 1380.882812 270.390625 1378.4375 C 273.316406 1376.550781 275.746094 1373.878906 278.335938 1371.488281 C 283.183594 1367.023438 288.3125 1363.757812 295.089844 1362.066406 C 317.632812 1356.441406 335.996094 1343.3125 350.210938 1325.53125 C 362.960938 1309.582031 373.828125 1292.09375 385.03125 1274.957031 C 402.5625 1248.144531 421.683594 1222.769531 446.777344 1202.421875 C 460.144531 1191.578125 474.683594 1182.628906 490.015625 1174.828125 C 494.144531 1172.730469 498.238281 1169.742188 501.117188 1166.171875 C 506.902344 1159 511.84375 1151.140625 517.101562 1143.609375 C 523.425781 1176.898438 549.175781 1191.5 577.207031 1203.777344 L 578.660156 1202.351562 C 578.042969 1202.085938 577.414062 1201.847656 576.816406 1201.539062 C 576.253906 1201.230469 575.707031 1200.894531 575.183594 1200.527344 C 560.089844 1190.332031 546.027344 1178.964844 535.414062 1163.957031 C 528.847656 1154.667969 524.015625 1144.589844 524.773438 1132.765625 C 524.921875 1130.441406 525.351562 1127.859375 526.523438 1125.921875 C 545.921875 1093.773438 568.25 1064.015625 597.730469 1040.246094 C 609.648438 1030.636719 622.585938 1022.804688 637.261719 1017.972656 C 639.019531 1017.394531 640.6875 1014.976562 641.394531 1013.046875 C 649.390625 991.304688 656.816406 969.34375 665.152344 947.738281 C 674.425781 923.691406 690.167969 905.089844 712.554688 891.597656 C 734.160156 878.574219 755.535156 865.285156 780.742188 860.675781 C 790.679688 858.859375 800.988281 859.082031 810.957031 858.386719 C 805.894531 857.65625 800.414062 856.464844 794.882812 856.136719 C 770.066406 854.65625 747.429688 862.191406 725.96875 873.757812 C 695.984375 889.921875 670.828125 912.128906 648.113281 937.230469 C 603.335938 986.722656 565.304688 1041.171875 530.4375 1097.929688 C 527.53125 1102.660156 524.613281 1107.382812 520.988281 1113.265625 C 520.378906 1106.828125 519.695312 1101.558594 519.410156 1096.269531 C 518.457031 1078.824219 517.199219 1061.292969 520.941406 1044.066406 C 522.386719 1037.839844 524.863281 1032.058594 528.382812 1026.722656 C 535.410156 1015.914062 539.8125 1004.527344 539.101562 991.566406 C 538.945312 988.695312 537.6875 985.738281 536.351562 983.117188 C 534.691406 979.851562 532.292969 976.972656 530.457031 973.789062 C 526.984375 967.769531 525.5 961.484375 527.484375 954.480469 C 532.53125 936.640625 537.445312 918.761719 542.226562 900.847656 C 548.480469 877.332031 556.253906 854.332031 566.320312 832.191406 C 570.054688 824.039062 574.488281 816.285156 579.628906 808.9375 C 585.804688 800.078125 590.070312 799.464844 599.703125 804.089844 C 618.632812 813.179688 627.371094 833.46875 625.175781 855.226562 C 624.316406 863.742188 622.171875 872.125 620.605469 880.613281 C 628.742188 868.234375 637.777344 856.742188 654.96875 857.472656 C 649.828125 848.945312 644.464844 840.6875 639.738281 832.085938 C 629.757812 813.902344 623.105469 794.660156 623.046875 773.632812 C 623.015625 768.488281 623.566406 763.40625 624.699219 758.386719 C 625.832031 753.367188 627.515625 748.542969 629.757812 743.90625 C 639.265625 724.171875 656.046875 718.285156 676.609375 726.851562 C 694.667969 734.375 709.4375 746.640625 724.4375 758.667969 C 736.378906 768.238281 749.996094 774.175781 765.136719 776.820312 C 733.378906 763.347656 709.5625 741.527344 694.515625 711.074219 C 706.15625 707.101562 717.820312 703.742188 728.976562 699.144531 C 741.457031 694.003906 752.488281 686.480469 758.871094 673.953125 C 763.746094 664.378906 765.738281 653.90625 766.070312 643.320312 C 767.65625 592.894531 747.875 553.222656 705.535156 525.28125 C 701.910156 522.890625 699.96875 520.441406 699.390625 515.957031 C 696.917969 496.828125 695.917969 477.71875 697.53125 458.449219 C 699.09375 439.777344 707.46875 424.433594 720.347656 411.503906 C 731.042969 400.761719 742.484375 390.761719 752.5 381.457031 C 744.554688 382.832031 718.183594 402.855469 701.300781 421.621094 C 704.460938 413.859375 707.429688 407.113281 709.964844 400.210938 C 714.277344 388.460938 718.296875 376.542969 717.15625 363.78125 C 716.792969 359.9375 715.5625 356.398438 713.464844 353.160156 C 709.796875 347.679688 704.269531 347.976562 702.105469 354.101562 C 699.207031 362.234375 697.222656 370.582031 696.148438 379.148438 C 694.617188 391.84375 694.296875 404.683594 693.503906 416.8125 C 691.332031 410.742188 689.445312 403.710938 686.324219 397.277344 C 683.414062 391.214844 679.789062 385.613281 675.449219 380.476562 C 669.113281 373.078125 658.945312 371.566406 650.425781 375.664062 C 645.1875 378.1875 642.75 382.496094 645.015625 387.8125 C 647.296875 393.167969 650.078125 398.78125 654.101562 402.828125 C 664.128906 412.910156 674.980469 422.167969 685.515625 431.738281 C 686.667969 432.785156 687.929688 433.710938 689.996094 435.390625 C 674.347656 446.132812 659.550781 457.082031 643.960938 466.75 C 631.363281 474.558594 617.960938 481.128906 604.640625 487.6875 C 591.570312 494.128906 579.84375 490.652344 570.207031 480.53125 C 564.507812 474.542969 559.558594 467.796875 554.671875 461.09375 C 546.171875 449.433594 535.832031 440.1875 522.128906 435.179688 C 515.992188 432.917969 509.316406 433.144531 503.945312 435.515625 Z M 503.945312 435.515625 " fill-opacity="1" fill-rule="nonzero"/></g></svg>