<svg xmlns="http://www.w3.org/2000/svg" xmlns:xlink="http://www.w3.org/1999/xlink" width="2000" zoomAndPan="magnify" viewBox="0 0 1500 1499.999933" height="2000" preserveAspectRatio="xMidYMid meet" version="1.0"><defs><clipPath id="04b75dc831"><path d="M 52.5 7 L 1347 7 L 1347 1499 L 52.5 1499 Z M 52.5 7 " clip-rule="nonzero"/></clipPath></defs><g clip-path="url(#04b75dc831)"><path fill="#000000" d="M 1331.863281 305.390625 C 1331.863281 305.390625 1334.195312 291.304688 1334.628906 261.203125 C 1335.0625 231.105469 1313.492188 201.441406 1297.046875 182.230469 C 1280.628906 163.019531 1226.320312 111.554688 1226.320312 111.554688 L 1226.320312 106.867188 C 1226.320312 103.738281 1225.039062 98.617188 1223.347656 94.621094 C 1221.632812 90.648438 1211.511719 45.945312 1209.386719 37.699219 C 1207.261719 29.453125 1206.980469 26.175781 1201.574219 23.613281 C 1196.144531 21.050781 1185.894531 11.519531 1181.082031 8.679688 C 1176.238281 5.835938 1170.117188 11.085938 1170.117188 11.085938 C 1162.558594 6.804688 1158.308594 10.519531 1158.308594 10.519531 C 1129.691406 -0.0078125 1105.355469 20.050781 1105.355469 20.050781 C 1097.667969 11.800781 1086.578125 22.332031 1084.21875 26.8125 C 1081.859375 31.292969 1076.738281 36.417969 1066.082031 52.632812 C 1055.402344 68.871094 1053.683594 83.375 1052.839844 84.882812 C 1051.992188 86.367188 1048.558594 88.496094 1045.792969 92.335938 C 1043.03125 96.179688 1043.441406 96.820312 1041.75 100.253906 C 1040.03125 103.660156 1009.085938 123.945312 982.394531 146.128906 C 955.703125 168.339844 943.535156 186.914062 931.367188 203.765625 C 919.199219 220.648438 926.679688 234.945312 926.679688 234.945312 C 937.128906 278.492188 959.339844 316.480469 959.339844 316.480469 L 954.214844 337.617188 C 949.09375 358.753906 984.523438 378.605469 990.921875 391.207031 C 997.328125 403.8125 1015.695312 422.589844 1015.695312 422.589844 C 1013.570312 441.597656 1017.691406 479.148438 1021.664062 505.046875 C 1025.660156 530.972656 1021.945312 536.941406 1011.417969 568.523438 C 1000.886719 600.136719 994.636719 595.011719 977.265625 628.878906 C 959.898438 662.742188 936 726.785156 936 726.785156 C 936 726.785156 907.820312 716.101562 893.296875 712.132812 C 878.800781 708.136719 878.488281 704.730469 872.804688 696.761719 C 872.316406 696.097656 871.757812 695.507812 871.113281 694.996094 C 893.273438 680.523438 896.882812 666.664062 897.316406 660.71875 C 900.054688 659.183594 901.980469 657.160156 903.003906 654.625 C 904.179688 651.808594 903.976562 649.066406 903.4375 646.964844 C 906.15625 645.046875 907.742188 642.710938 908.257812 639.945312 C 908.796875 636.898438 908.003906 634.183594 905.949219 632.261719 C 904.746094 631.109375 903.132812 630.367188 901.363281 629.878906 C 900.570312 615.433594 903.898438 600.804688 904.902344 596.886719 C 906.257812 595.5 907.230469 593.992188 907.820312 592.300781 C 908.640625 589.972656 908.410156 587.613281 907.15625 585.640625 C 905.875 583.644531 903.695312 582.363281 901.492188 581.492188 C 901.726562 580.105469 901.980469 577.75 901.699219 575.214844 C 901.265625 571.246094 891.300781 566.246094 891.300781 566.246094 C 887.046875 522.417969 836.65625 461.5 766.929688 485.707031 C 697.199219 509.886719 710.011719 601.828125 710.011719 601.828125 C 655.0625 603.265625 621.195312 639.128906 600.140625 665.589844 C 579.082031 692.054688 548.03125 742.722656 527.128906 757.246094 C 506.199219 771.769531 452.96875 787.703125 452.96875 787.703125 C 452.96875 787.703125 428.222656 796.796875 403.167969 821.570312 C 378.117188 846.339844 373.558594 881.050781 366.742188 902.414062 C 359.902344 923.753906 340.539062 964.175781 334.003906 1000.042969 C 327.445312 1035.902344 319.121094 1046.5625 303.980469 1078.378906 C 288.816406 1110.195312 223.929688 1160.351562 223.929688 1160.351562 C 223.929688 1160.351562 200.796875 1182.203125 176.308594 1233.71875 C 151.84375 1285.234375 125.664062 1303.164062 119.824219 1305.570312 C 113.984375 1308.003906 77.964844 1332.339844 67.027344 1338.746094 C 56.0625 1345.152344 58.058594 1361.800781 58.058594 1361.800781 L 52.5 1366.082031 L 53.066406 1375.046875 L 60.621094 1376.023438 L 62.902344 1382.019531 L 56.191406 1387.703125 L 60.75 1397.230469 L 69.871094 1396.386719 C 69.871094 1396.386719 73.992188 1403.636719 76.402344 1410.195312 C 78.832031 1416.726562 79.550781 1442.777344 79.550781 1442.777344 L 74.476562 1446.824219 L 76.832031 1454.582031 L 82.75 1453.738281 C 84.160156 1458.863281 91.355469 1470.746094 91.355469 1470.746094 L 89.636719 1477.5625 L 94.554688 1483.96875 L 101.597656 1482.046875 C 120.171875 1496.570312 154.527344 1497.851562 154.527344 1497.851562 C 154.527344 1497.851562 174.378906 1499.976562 179.9375 1492.292969 C 185.496094 1484.605469 167.332031 1463.0625 161.160156 1456.222656 C 154.960938 1449.382812 154.527344 1435.933594 160.519531 1384.292969 C 166.492188 1332.621094 197.230469 1304.238281 217.082031 1282.027344 C 235.910156 1260.96875 282.585938 1215.347656 287.347656 1210.683594 C 278.972656 1219.984375 244.875 1288.96875 224.84375 1309.128906 C 204.480469 1329.625 182.011719 1339.460938 177.171875 1345.863281 C 172.332031 1352.269531 175.019531 1360.234375 175.019531 1360.234375 L 169.050781 1363.925781 L 169.203125 1370.199219 L 175.890625 1371.761719 L 178.015625 1377.167969 L 172.890625 1382.570312 L 176.019531 1389.691406 L 182.707031 1389.691406 C 182.707031 1389.691406 185.703125 1392.664062 188.699219 1400.066406 C 191.671875 1407.46875 192.109375 1426.964844 192.109375 1426.964844 L 188.113281 1431.679688 L 190.675781 1438.773438 L 196.105469 1439.082031 C 196.671875 1442.054688 202.792969 1451.171875 202.792969 1451.171875 L 200.640625 1456.140625 L 205.199219 1462.261719 L 211.320312 1461.417969 C 223 1472.941406 245.339844 1473.941406 255.433594 1473.941406 C 265.527344 1473.941406 274.367188 1474.789062 277.078125 1467.667969 C 279.769531 1460.546875 260.839844 1440.644531 257.152344 1433.800781 C 253.4375 1426.960938 257.714844 1378.574219 267.113281 1349.828125 C 276.492188 1321.085938 303.542969 1299.464844 341.40625 1259.042969 C 379.269531 1218.621094 398.324219 1211.214844 415.128906 1197.84375 C 431.910156 1184.472656 435.625 1163.105469 441.875 1150.582031 C 448.125 1138.082031 478.867188 1065.765625 490.261719 1039.304688 C 501.636719 1012.839844 530.890625 963.9375 539.859375 942.164062 C 548.824219 920.390625 553.101562 919.542969 566.113281 912.703125 C 579.128906 905.886719 613.300781 885.167969 659.179688 865.746094 C 705.085938 846.328125 755.039062 814.71875 755.039062 814.71875 C 755.039062 814.71875 783.21875 826.042969 811.601562 831.167969 C 840.007812 836.289062 901.261719 843.335938 901.261719 843.335938 C 898.699219 855.015625 890.015625 871.949219 874.796875 885.167969 C 859.578125 898.410156 851.175781 914.777344 845.773438 928.023438 C 840.367188 941.242188 817.3125 982.949219 802.222656 998.160156 C 787.136719 1013.40625 771.890625 1043.296875 766.640625 1063.074219 C 761.367188 1082.851562 762.648438 1111.871094 773.457031 1117.152344 C 784.292969 1122.402344 792.183594 1119.355469 806.914062 1104.828125 C 821.644531 1090.332031 827.839844 1077.726562 834.246094 1057.667969 C 840.652344 1037.585938 849.824219 1023.089844 849.824219 1023.089844 C 849.824219 1023.089844 867.675781 998.601562 893.292969 978.386719 C 918.910156 958.175781 944.242188 951.078125 967.300781 933.429688 C 990.355469 915.777344 992.070312 899.539062 1002.316406 874.226562 C 1012.5625 848.890625 1027.648438 823.835938 1027.648438 823.835938 C 1027.648438 823.835938 1074.039062 813.875 1078.882812 811.875 C 1083.726562 809.878906 1094.535156 815.871094 1094.535156 815.871094 C 1096.226562 820.125 1110.472656 858.855469 1120.433594 876.789062 C 1130.398438 894.71875 1142.644531 956.484375 1150.890625 990.628906 C 1159.140625 1024.773438 1156.863281 1039.304688 1155.453125 1062.074219 C 1154.015625 1084.847656 1156.015625 1103.90625 1161.421875 1123.554688 C 1166.824219 1143.199219 1170.390625 1210.929688 1168.386719 1235.832031 C 1166.390625 1260.734375 1155.296875 1276.820312 1152.734375 1283.222656 C 1150.171875 1289.628906 1153.449219 1297.597656 1153.449219 1297.597656 L 1152.578125 1304.152344 L 1158.574219 1308.121094 L 1161.851562 1305.863281 L 1164.414062 1308.707031 L 1163.824219 1315.957031 L 1169.664062 1320.238281 L 1173.941406 1317.523438 C 1177.351562 1318.523438 1191.15625 1332.769531 1194.714844 1342.578125 C 1198.28125 1352.390625 1195.433594 1365.476562 1195.433594 1365.476562 L 1200.226562 1371.980469 L 1206.089844 1370.1875 L 1210.675781 1373.492188 L 1210.164062 1378.820312 L 1217.308594 1383.300781 L 1222 1380.101562 L 1227.125 1382.226562 L 1227.457031 1387.476562 L 1234.808594 1389.707031 L 1239.394531 1385.863281 L 1245.59375 1387.78125 L 1246.4375 1392.367188 L 1252.945312 1392.90625 C 1252.945312 1392.90625 1252.945312 1392.46875 1253.917969 1389.5 C 1254.894531 1386.5 1260.421875 1386.398438 1260.421875 1386.398438 C 1260.421875 1386.398438 1265.007812 1387.347656 1265.984375 1376.148438 C 1266.933594 1364.929688 1257.761719 1343.921875 1249 1331.753906 C 1240.265625 1319.585938 1235.550781 1302.9375 1232.144531 1286.285156 C 1228.738281 1269.636719 1225.101562 1250.191406 1225.101562 1250.191406 C 1222.101562 1218.402344 1228.738281 1193.195312 1233.222656 1153.71875 C 1237.703125 1114.214844 1235.785156 1079.425781 1231.507812 1058.5 C 1227.226562 1037.570312 1230.660156 1012.183594 1232.144531 988.488281 C 1233.628906 964.789062 1232.351562 937.023438 1228.300781 912.914062 C 1224.253906 888.785156 1227.867188 848.4375 1224.457031 815.980469 C 1221.050781 783.546875 1207.371094 710.105469 1207.371094 710.105469 C 1207.371094 710.105469 1204.609375 691.328125 1204.171875 664.203125 C 1203.761719 637.101562 1213.574219 618.089844 1218.058594 605.511719 C 1222.539062 592.910156 1223.820312 586.300781 1228.507812 571.980469 C 1233.222656 557.6875 1242.394531 550.640625 1249.644531 533.992188 C 1256.921875 517.34375 1275.054688 478.273438 1279.742188 470.589844 C 1284.457031 462.902344 1300.035156 459.0625 1308.152344 444.769531 C 1316.246094 430.449219 1341.867188 422.355469 1345.9375 381.570312 C 1349.984375 340.789062 1331.851562 305.363281 1331.851562 305.363281 Z M 895.890625 651.730469 C 895.070312 653.703125 892.253906 654.804688 890.050781 655.394531 C 881.722656 657.625 871.246094 657.980469 864.765625 657.980469 C 865.121094 656.675781 865.355469 655.394531 865.507812 654.164062 C 878.980469 653.933594 889.125 652.726562 896.171875 650.476562 C 896.144531 650.886719 896.066406 651.320312 895.890625 651.730469 Z M 893.636719 629.265625 C 892.078125 629.34375 890.589844 629.519531 889.234375 629.726562 C 889.183594 616.921875 891.746094 607.003906 892.894531 603.160156 C 893.96875 602.828125 894.945312 602.472656 895.867188 602.136719 C 894.585938 608.898438 893.203125 618.964844 893.636719 629.261719 Z M 900.683594 638.59375 C 900.402344 640.152344 897.660156 642.359375 890.410156 644.023438 C 890.054688 641.792969 889.773438 639.59375 889.59375 637.464844 C 895.074219 636.570312 899.964844 636.828125 900.707031 637.875 C 900.734375 637.875 900.785156 638.058594 900.683594 638.59375 Z M 896.097656 587.871094 C 898.25 588.332031 900.273438 589.125 900.578125 589.742188 C 899.65625 592.355469 895.097656 594.710938 887.027344 596.8125 C 890.304688 593.585938 893.53125 590.40625 896.09375 587.871094 Z M 863.125 624.039062 C 863.714844 618.070312 867.683594 615.507812 872.808594 610.667969 C 873.882812 609.644531 875.78125 607.796875 878.082031 605.570312 L 878.265625 606.542969 C 880.417969 606.160156 882.414062 605.75 884.3125 605.367188 C 882.339844 613.460938 879.980469 628.167969 882.855469 645.328125 C 878.242188 645.945312 872.53125 646.355469 865.5625 646.480469 L 865.5625 646.378906 C 865.5625 646.378906 862.5625 630.007812 863.128906 624.039062 Z M 818.449219 745.003906 C 818.449219 745.003906 845.347656 754.890625 854.3125 764.78125 C 854.3125 764.78125 826.851562 757.53125 818.449219 745.003906 Z M 850.472656 691.363281 C 852.46875 688.214844 853.035156 684.242188 852.601562 677.398438 C 852.191406 670.742188 854.367188 671.636719 860.410156 665.589844 C 861.589844 665.640625 863.226562 665.667969 865.152344 665.667969 C 871.324219 665.667969 880.675781 665.308594 889.027344 663.542969 C 887.386719 669.40625 881.652344 680.085938 862.308594 691.410156 C 856.339844 690.460938 850.472656 691.359375 850.472656 691.359375 Z M 1092.960938 280.644531 C 1092.21875 279.957031 1091.425781 279.261719 1090.582031 278.542969 C 1091.21875 276.625 1092.734375 273.523438 1096.34375 270.011719 C 1096.703125 271.679688 1097.085938 273.394531 1097.523438 275.164062 C 1095.421875 276.800781 1093.964844 278.851562 1092.960938 280.644531 Z M 1096.878906 284.261719 C 1097.339844 283.234375 1098.054688 281.953125 1099.082031 280.773438 C 1099.902344 283.539062 1100.824219 286.359375 1101.953125 289.378906 C 1101.953125 289.378906 1100.03125 287.304688 1096.878906 284.257812 Z M 1253.9375 290.867188 C 1253.9375 290.867188 1263.898438 200.519531 1170.832031 190.269531 C 1170.832031 190.269531 1115.605469 185.144531 1096.542969 236.945312 C 1096.542969 236.945312 1092.777344 246.246094 1095.3125 264.097656 C 1090.371094 268.144531 1087.78125 272.09375 1086.449219 275.117188 C 1078.507812 268.789062 1068.542969 262.207031 1058.808594 259.722656 C 1037.90625 254.367188 1022.101562 258.210938 1022.101562 258.210938 C 1022.101562 258.210938 1012.574219 246.324219 1002.171875 241.074219 C 991.800781 235.796875 989.800781 220.859375 989.800781 220.859375 C 989.800781 220.859375 1007.015625 211.894531 1023.949219 182.996094 C 1040.882812 154.101562 1067.085938 121.953125 1074.773438 119.238281 C 1074.773438 119.238281 1091.421875 120.953125 1105.152344 116.035156 C 1105.152344 116.035156 1145.910156 134.609375 1180.289062 114.984375 C 1180.289062 114.984375 1184.769531 125.640625 1190.96875 128.945312 C 1197.140625 132.277344 1196.09375 131.097656 1199.597656 136.121094 C 1203.132812 141.140625 1231.160156 181.714844 1241.839844 203.363281 C 1252.5 224.980469 1268.863281 234.511719 1271.015625 249.316406 C 1273.144531 264.125 1267.738281 275.78125 1253.929688 290.867188 Z M 1253.9375 290.867188 " fill-opacity="1" fill-rule="nonzero"/></g></svg>