<svg xmlns="http://www.w3.org/2000/svg" xmlns:xlink="http://www.w3.org/1999/xlink" width="2000" zoomAndPan="magnify" viewBox="0 0 1500 1499.999933" height="2000" preserveAspectRatio="xMidYMid meet" version="1.0"><path fill="#1a1a1a" d="M 1244.554688 240.640625 L 1260.144531 249.9375 C 1264.640625 257.132812 1255.648438 267.328125 1237.65625 263.730469 C 1239.757812 258.332031 1242.753906 246.039062 1244.554688 240.640625 Z M 1215.171875 144.382812 C 1221.765625 147.980469 1230.460938 148.28125 1242.453125 147.679688 C 1237.957031 84.707031 1197.183594 52.921875 1169.898438 51.121094 C 1196.582031 74.511719 1213.070312 108.097656 1215.171875 144.382812 Z M 1266.738281 175.269531 C 1267.339844 179.464844 1267.9375 181.867188 1267.9375 181.867188 C 1257.144531 186.363281 1226.863281 184.863281 1176.792969 177.367188 C 1224.765625 183.066406 1254.746094 182.464844 1266.738281 175.269531 Z M 1223.566406 195.359375 C 1228.363281 195.660156 1239.757812 196.859375 1250.25 196.859375 C 1250.847656 194.761719 1251.148438 192.960938 1251.75 191.460938 C 1246.351562 191.460938 1239.757812 191.460938 1234.660156 191.160156 C 1207.375 189.0625 1186.6875 185.765625 1171.996094 181.566406 C 1171.996094 177.96875 1172.597656 174.667969 1173.195312 171.070312 C 1173.796875 171.070312 1174.394531 171.070312 1174.996094 171.371094 C 1185.789062 172.871094 1217.871094 177.367188 1240.65625 175.566406 C 1257.746094 174.367188 1269.738281 169.269531 1264.042969 157.277344 C 1269.4375 182.464844 1164.5 165.074219 1151.007812 162.972656 C 1137.21875 161.175781 1126.722656 162.671875 1119.828125 167.773438 C 1127.023438 164.472656 1135.71875 164.472656 1145.613281 167.472656 C 1135.117188 174.96875 1124.625 185.164062 1114.132812 199.859375 C 1119.527344 195.058594 1149.808594 166.273438 1160.902344 172.269531 C 1163.300781 173.46875 1165.402344 174.667969 1165.699219 180.066406 C 1166.300781 196.558594 1158.804688 229.246094 1157.605469 238.542969 C 1156.40625 241.839844 1153.707031 243.339844 1150.109375 242.738281 C 1142.3125 240.039062 1136.019531 238.242188 1131.222656 237.34375 L 1109.035156 256.832031 L 1131.820312 240.640625 C 1158.804688 250.238281 1181.589844 256.234375 1200.179688 258.632812 C 1207.375 259.832031 1213.371094 261.03125 1217.871094 262.230469 C 1222.964844 263.132812 1226.5625 263.429688 1230.761719 264.03125 C 1233.757812 254.136719 1238.257812 238.839844 1240.65625 230.445312 C 1243.054688 221.75 1246.050781 211.554688 1248.449219 202.855469 C 1240.054688 202.855469 1231.660156 202.257812 1222.964844 201.355469 C 1222.964844 216.949219 1226.265625 230.746094 1233.160156 238.839844 C 1233.160156 246.339844 1229.261719 252.335938 1221.46875 256.535156 C 1206.476562 254.136719 1186.6875 250.535156 1162.402344 245.4375 C 1160.902344 245.140625 1160.304688 243.9375 1161.203125 241.839844 L 1170.796875 188.460938 C 1189.085938 191.460938 1206.476562 193.859375 1223.566406 195.359375 Z M 1257.144531 196.859375 C 1261.644531 196.859375 1265.539062 196.257812 1268.839844 195.660156 C 1268.839844 193.5625 1268.839844 191.460938 1268.539062 189.960938 C 1266.140625 190.5625 1262.84375 191.160156 1258.34375 191.460938 C 1258.046875 192.960938 1257.445312 194.761719 1257.144531 196.859375 Z M 1268.539062 200.757812 C 1264.339844 201.355469 1259.84375 201.65625 1255.648438 201.957031 C 1252.949219 212.453125 1249.351562 224.746094 1246.050781 235.542969 L 1261.941406 243.9375 C 1266.140625 225.945312 1267.9375 211.253906 1268.539062 200.757812 Z M 1234.660156 1312.386719 C 1233.160156 1328.878906 1231.0625 1344.773438 1228.960938 1360.066406 C 1228.960938 1363.964844 1234.359375 1370.5625 1245.453125 1380.15625 C 1236.160156 1376.859375 1227.464844 1371.460938 1220.867188 1364.265625 C 1211.574219 1366.0625 1208.875 1376.558594 1212.171875 1395.152344 C 1219.96875 1406.546875 1222.667969 1425.738281 1220.269531 1452.425781 C 1218.167969 1461.722656 1221.765625 1471.019531 1231.0625 1480.316406 C 1246.050781 1481.214844 1254.746094 1477.917969 1257.445312 1469.820312 C 1261.34375 1478.515625 1273.636719 1480.613281 1294.324219 1475.515625 C 1295.523438 1465.023438 1303.316406 1459.925781 1318.007812 1460.523438 C 1350.089844 1460.222656 1377.671875 1461.421875 1401.058594 1464.121094 C 1404.65625 1463.523438 1409.753906 1464.421875 1416.050781 1466.820312 C 1421.148438 1468.320312 1426.246094 1465.921875 1431.042969 1459.625 L 1439.734375 1458.722656 C 1443.035156 1457.824219 1446.632812 1459.324219 1450.53125 1462.621094 C 1454.726562 1464.722656 1458.023438 1463.820312 1461.023438 1459.625 C 1463.722656 1450.628906 1469.71875 1448.230469 1479.011719 1453.027344 C 1481.410156 1453.925781 1484.109375 1452.726562 1487.109375 1448.828125 C 1487.109375 1444.03125 1491.605469 1441.03125 1500 1439.234375 C 1500 1434.132812 1500 1427.539062 1499.699219 1419.742188 C 1500 1400.550781 1474.515625 1394.25 1422.945312 1400.25 C 1412.453125 1391.554688 1394.464844 1385.253906 1369.277344 1381.65625 C 1365.679688 1373.859375 1356.6875 1366.363281 1342.59375 1359.167969 C 1338.398438 1349.570312 1332.101562 1340.574219 1323.707031 1331.878906 C 1323.40625 1324.980469 1323.40625 1318.382812 1323.40625 1311.785156 C 1323.40625 1272.804688 1327.003906 1241.917969 1334.199219 1218.824219 C 1348.589844 1142.660156 1359.984375 1066.191406 1368.378906 989.722656 C 1381.269531 944.441406 1368.078125 907.257812 1328.203125 878.171875 C 1289.824219 842.1875 1261.644531 825.09375 1243.355469 827.191406 L 1177.992188 791.207031 C 1177.394531 783.710938 1156.40625 769.917969 1115.332031 750.722656 C 1125.824219 768.117188 1127.625 805.601562 1115.929688 847.582031 C 1121.027344 804.703125 1116.230469 771.414062 1100.039062 743.828125 C 1098.242188 742.925781 1096.441406 742.328125 1094.644531 741.429688 C 1106.335938 758.519531 1109.035156 798.402344 1097.042969 842.183594 C 1102.140625 799.003906 1097.042969 763.019531 1080.253906 735.132812 C 1078.453125 734.230469 1076.652344 733.632812 1074.554688 732.730469 C 1085.648438 748.324219 1087.746094 784.609375 1075.753906 827.792969 C 1080.851562 784.011719 1076.652344 754.023438 1059.863281 726.136719 C 1057.765625 725.234375 1055.964844 724.636719 1053.867188 723.734375 C 1066.160156 737.828125 1069.160156 775.613281 1056.566406 820.894531 C 1061.664062 776.214844 1057.464844 745.625 1039.476562 717.738281 C 1040.074219 716.238281 1043.675781 703.644531 1050.570312 679.65625 C 1055.066406 657.765625 1058.363281 635.574219 1060.164062 613.382812 C 1064.960938 637.972656 1072.757812 660.164062 1083.851562 680.253906 C 1094.042969 699.746094 1110.234375 705.144531 1132.121094 696.449219 C 1138.417969 693.449219 1148.609375 688.652344 1162.703125 682.351562 C 1209.175781 672.757812 1246.050781 657.164062 1272.738281 635.574219 C 1282.03125 623.578125 1282.332031 607.085938 1273.335938 594.789062 C 1282.332031 603.785156 1286.230469 616.382812 1284.730469 628.675781 C 1304.21875 617.878906 1328.203125 606.1875 1356.6875 593.292969 C 1382.769531 574.699219 1385.769531 549.808594 1365.382812 518.621094 C 1363.582031 489.535156 1353.988281 461.945312 1336.597656 435.558594 C 1324.304688 413.96875 1313.210938 404.671875 1303.019531 407.96875 C 1284.730469 392.976562 1273.035156 393.574219 1251.449219 398.375 C 1200.480469 430.761719 1169.296875 486.835938 1168.398438 547.410156 C 1163.601562 491.035156 1188.488281 436.457031 1234.359375 403.171875 C 1190.285156 419.066406 1162.703125 453.550781 1151.308594 506.628906 L 1143.214844 490.136719 C 1152.507812 465.246094 1160.003906 439.457031 1165.402344 413.367188 C 1170.199219 379.480469 1169 351.292969 1162.101562 329.101562 C 1229.261719 352.792969 1246.050781 342.898438 1274.535156 278.722656 C 1280.832031 260.132812 1275.433594 251.734375 1267.9375 246.339844 C 1272.136719 227.144531 1288.027344 156.078125 1256.847656 140.78125 C 1254.746094 125.488281 1250.847656 110.796875 1245.152344 96.402344 C 1224.164062 57.117188 1185.789062 30.429688 1141.714844 24.730469 C 1097.640625 19.035156 1053.566406 34.929688 1023.285156 67.3125 C 1007.695312 84.707031 1000.800781 113.195312 1002.296875 152.777344 C 1000.199219 156.976562 1002.296875 168.972656 1008.59375 188.164062 C 1005.597656 185.464844 1003.496094 182.164062 1002.296875 178.265625 C 995.703125 183.363281 992.703125 191.160156 993.605469 201.957031 C 978.3125 205.855469 957.925781 205.855469 932.140625 201.957031 C 918.648438 195.660156 887.167969 194.160156 837.996094 197.757812 C 826.902344 193.859375 814.011719 202.558594 799.621094 223.546875 C 773.234375 242.441406 751.949219 270.027344 735.757812 306.011719 C 723.464844 324.304688 722.566406 348.296875 732.761719 377.980469 C 724.066406 374.382812 718.667969 365.386719 719.566406 356.089844 C 718.070312 359.089844 710.875 368.6875 697.679688 384.28125 C 688.6875 389.078125 679.390625 404.671875 670.398438 431.359375 C 662.601562 444.253906 659.304688 462.246094 660.804688 485.335938 C 662.601562 496.132812 667.398438 506.027344 675.792969 514.722656 C 686.589844 517.421875 697.082031 515.023438 707.875 507.527344 C 706.078125 510.824219 697.679688 517.421875 682.691406 527.320312 C 672.195312 529.71875 669.796875 535.117188 676.09375 543.210938 C 684.789062 548.011719 700.679688 542.3125 724.066406 526.417969 L 727.0625 520.121094 C 730.660156 537.214844 737.855469 544.410156 748.949219 542.3125 C 749.851562 536.015625 751.347656 520.421875 753.148438 495.53125 L 744.152344 499.132812 C 754.648438 494.03125 759.746094 486.238281 759.746094 475.742188 C 756.445312 466.445312 752.546875 452.652344 747.453125 434.359375 C 748.351562 434.058594 753.746094 425.363281 763.941406 407.667969 C 779.832031 373.785156 812.511719 338.398438 861.382812 302.113281 C 857.785156 294.917969 855.085938 286.222656 853.289062 276.027344 C 859.285156 290.417969 874.277344 303.914062 898.5625 316.207031 C 905.757812 310.210938 915.652344 302.714844 927.644531 293.71875 C 898.859375 322.507812 878.472656 373.785156 865.878906 446.953125 C 859.882812 489.835938 852.386719 533.617188 843.394531 578.597656 C 855.6875 613.382812 873.675781 638.273438 900.359375 661.660156 C 870.976562 646.667969 849.390625 621.179688 839.496094 596.589844 C 838.898438 599.589844 838.296875 602.585938 837.699219 605.585938 C 857.1875 643.070312 880.570312 666.761719 914.152344 686.550781 C 875.476562 674.855469 844.894531 645.46875 835 617.878906 L 834.699219 619.378906 C 742.054688 682.652344 739.355469 729.132812 724.664062 810.699219 C 730.960938 834.390625 745.351562 852.980469 771.738281 873.671875 C 744.753906 858.679688 726.765625 840.386719 721.367188 826.292969 C 720.765625 828.089844 720.46875 829.589844 719.867188 831.390625 C 726.765625 852.382812 740.855469 869.175781 764.839844 888.066406 C 739.65625 873.972656 722.265625 857.179688 715.671875 843.386719 C 715.371094 844.285156 714.769531 845.484375 714.472656 846.382812 C 721.066406 869.472656 735.457031 887.464844 760.945312 907.859375 C 732.160156 891.664062 713.570312 872.171875 709.375 857.480469 C 708.773438 858.679688 708.175781 860.179688 707.277344 861.378906 C 713.871094 883.566406 728.261719 901.558594 753.449219 921.351562 C 724.664062 905.160156 706.078125 885.367188 701.878906 870.972656 C 673.394531 917.753906 625.726562 946.839844 579.851562 998.417969 C 567.558594 1014.914062 543.273438 1062.292969 473.714844 1087.480469 C 501.898438 1070.988281 520.488281 1055.996094 533.378906 1043.398438 C 529.78125 1045.199219 525.285156 1046.699219 519.886719 1048.796875 C 447.632812 1054.195312 382.570312 1071.289062 365.179688 1078.183594 C 345.394531 1088.082031 309.414062 1098.578125 256.945312 1109.671875 C 242.253906 1101.875 197.882812 1126.765625 184.6875 1118.667969 C 181.089844 1117.167969 172.695312 1119.566406 159.804688 1125.867188 C 166.398438 1118.367188 161.601562 1119.566406 170.898438 1115.96875 C 172.695312 1106.671875 157.707031 1107.574219 139.117188 1103.675781 C 125.324219 1106.375 131.320312 1111.769531 107.933594 1099.175781 C 100.140625 1093.777344 90.246094 1093.480469 77.953125 1098.277344 C 71.355469 1111.769531 71.058594 1121.066406 77.355469 1126.765625 C 67.460938 1127.066406 62.960938 1126.765625 59.964844 1147.757812 C 69.257812 1152.855469 70.757812 1162.148438 64.460938 1175.34375 C 52.46875 1205.03125 33.878906 1216.726562 22.1875 1237.117188 C 21.289062 1240.714844 18.589844 1244.914062 14.089844 1249.714844 C 10.492188 1253.910156 10.792969 1259.308594 14.691406 1266.207031 L 11.992188 1274.601562 C 11.394531 1277.902344 8.695312 1280.898438 4.199219 1283 C 0.601562 1285.996094 0 1289.597656 3 1293.792969 C 10.492188 1299.792969 10.195312 1306.089844 2.097656 1312.984375 C 0.300781 1314.785156 0.601562 1317.785156 2.699219 1321.980469 C 6.894531 1324.082031 8.394531 1329.179688 6.597656 1337.574219 C 11.394531 1339.675781 17.390625 1342.074219 24.585938 1345.074219 C 41.976562 1352.871094 57.867188 1331.878906 72.257812 1282.097656 C 84.550781 1275.800781 97.140625 1261.707031 110.332031 1239.816406 C 119.027344 1239.515625 129.222656 1234.121094 141.214844 1223.925781 C 150.808594 1220.027344 163.101562 1220.027344 173.597656 1216.726562 C 211.074219 1205.03125 253.648438 1198.132812 301.019531 1195.734375 L 570.257812 1180.742188 C 617.328125 1178.34375 708.175781 1111.769531 747.152344 1071.589844 C 720.765625 1073.085938 681.492188 1071.289062 636.21875 1044.300781 C 720.765625 1075.1875 749.550781 1058.695312 760.34375 1055.996094 C 775.335938 1051.496094 793.625 1036.203125 802.320312 1029.007812 C 830.5 1005.917969 849.390625 976.828125 876.972656 939.34375 C 912.652344 917.753906 932.140625 895.261719 967.519531 850.882812 L 933.941406 905.160156 C 965.121094 920.152344 1030.78125 936.644531 1130.320312 954.339844 C 1169.597656 962.136719 1203.179688 978.328125 1230.761719 1002.617188 C 1242.15625 1015.8125 1276.933594 1044.601562 1284.730469 1106.972656 C 1261.34375 1034.105469 1235.558594 1023.308594 1227.761719 1017.613281 C 1200.78125 1169.648438 1231.359375 1166.347656 1239.15625 1217.328125 C 1238.855469 1251.511719 1237.359375 1283 1234.660156 1312.386719 Z M 1222.367188 321.007812 C 1221.167969 317.707031 1219.367188 315.308594 1216.96875 313.210938 C 1192.085938 317.109375 1166.898438 309.3125 1148.609375 291.917969 C 1155.804688 297.917969 1168.398438 303.3125 1186.988281 308.710938 C 1192.984375 309.910156 1198.382812 310.210938 1203.777344 309.011719 C 1213.070312 304.515625 1217.871094 294.617188 1218.769531 279.324219 C 1216.96875 275.125 1216.371094 273.027344 1216.671875 269.429688 C 1221.765625 270.628906 1226.5625 270.628906 1228.0625 271.527344 C 1221.765625 294.316406 1219.667969 297.316406 1222.367188 321.007812 Z M 1258.644531 188.761719 Z M 1234.960938 272.726562 C 1252.347656 274.527344 1264.339844 267.328125 1268.539062 263.730469 C 1269.136719 279.023438 1242.15625 323.707031 1231.960938 324.605469 C 1228.960938 297.917969 1226.5625 301.214844 1234.960938 272.726562 Z M 1027.785156 498.832031 C 1029.882812 566.902344 1080.25 589.394531 1082.949219 661.664062 C 1070.359375 606.785156 1019.089844 541.113281 1027.785156 498.832031 Z M 1282.929688 434.058594 C 1300.621094 434.058594 1315.910156 446.054688 1320.40625 463.144531 C 1322.507812 467.644531 1326.105469 471.242188 1330.902344 473.042969 C 1327.304688 474.242188 1322.804688 471.242188 1317.109375 464.347656 C 1312.011719 449.050781 1300.621094 438.558594 1282.929688 434.058594 Z M 1283.53125 503.328125 C 1283.828125 503.628906 1284.730469 503.929688 1285.328125 503.929688 C 1285.929688 503.929688 1286.527344 503.328125 1286.828125 503.03125 L 1287.726562 499.730469 C 1289.824219 500.03125 1291.625 500.929688 1293.425781 501.828125 C 1291.324219 499.730469 1288.925781 498.230469 1286.226562 497.03125 C 1285.027344 497.03125 1284.128906 496.132812 1283.828125 495.234375 C 1283.53125 494.035156 1284.128906 493.132812 1285.027344 492.535156 C 1285.929688 491.933594 1287.128906 491.933594 1288.027344 492.832031 C 1289.527344 493.734375 1291.023438 493.433594 1291.925781 491.632812 L 1292.824219 488.335938 C 1295.222656 488.335938 1297.621094 489.535156 1299.121094 491.335938 C 1297.621094 488.335938 1293.722656 485.9375 1288.925781 485.035156 C 1288.027344 485.035156 1287.128906 484.136719 1286.828125 483.238281 C 1286.527344 482.339844 1286.828125 481.140625 1287.726562 480.539062 C 1288.625 479.9375 1289.527344 479.9375 1290.425781 480.539062 C 1292.523438 480.839844 1293.722656 480.839844 1294.621094 479.9375 C 1295.523438 477.839844 1294.621094 476.339844 1291.625 475.140625 C 1290.726562 474.542969 1290.425781 473.941406 1290.425781 472.742188 C 1290.425781 471.84375 1291.023438 470.941406 1291.625 470.34375 C 1292.523438 469.742188 1293.421875 469.742188 1294.324219 470.34375 C 1297.320312 473.941406 1299.71875 477.839844 1301.519531 482.339844 C 1300.320312 484.4375 1300.320312 486.535156 1302.117188 488.636719 C 1303.917969 490.136719 1304.515625 492.535156 1303.617188 494.632812 C 1302.71875 495.53125 1301.519531 495.234375 1300.019531 493.734375 C 1298.222656 494.332031 1297.320312 496.132812 1297.023438 498.832031 C 1299.71875 501.53125 1300.621094 503.929688 1299.71875 506.027344 C 1298.519531 507.226562 1297.320312 506.929688 1296.121094 505.429688 C 1295.820312 504.828125 1295.222656 504.828125 1294.621094 504.828125 C 1294.023438 504.828125 1293.421875 505.429688 1293.421875 506.027344 L 1292.523438 508.425781 C 1292.523438 509.925781 1294.621094 510.824219 1296.722656 512.625 C 1298.519531 513.824219 1296.421875 518.023438 1294.023438 516.824219 C 1292.523438 516.523438 1290.726562 514.722656 1289.527344 516.222656 C 1289.226562 516.523438 1288.328125 517.722656 1288.328125 518.324219 C 1286.828125 520.421875 1287.128906 521.320312 1289.226562 523.121094 C 1290.125 523.71875 1290.726562 524.320312 1291.023438 524.921875 C 1292.222656 527.019531 1289.527344 530.617188 1285.929688 527.320312 C 1285.027344 527.019531 1284.429688 527.019531 1283.828125 527.617188 C 1282.929688 528.519531 1282.332031 530.019531 1282.03125 531.21875 C 1281.730469 532.417969 1282.03125 533.617188 1283.230469 534.515625 C 1285.628906 536.015625 1285.929688 538.113281 1285.027344 539.613281 C 1284.429688 540.8125 1282.628906 541.414062 1281.132812 540.511719 C 1278.433594 538.414062 1277.832031 538.414062 1276.933594 539.613281 C 1275.734375 541.414062 1275.433594 542.011719 1275.433594 542.3125 C 1274.535156 544.113281 1275.734375 543.511719 1276.632812 545.613281 C 1276.933594 552.207031 1274.835938 554.609375 1270.335938 552.808594 C 1267.039062 549.507812 1262.84375 545.613281 1257.746094 541.113281 C 1255.945312 539.3125 1259.242188 534.515625 1262.242188 536.015625 L 1267.9375 539.613281 C 1269.136719 538.113281 1269.738281 536.914062 1270.636719 536.015625 C 1271.835938 534.816406 1273.933594 535.117188 1275.132812 536.316406 C 1273.035156 533.917969 1269.4375 531.816406 1267.039062 530.316406 C 1266.140625 529.71875 1265.539062 528.820312 1265.539062 527.617188 C 1265.539062 526.417969 1266.140625 525.519531 1267.339844 524.921875 C 1268.238281 524.320312 1269.4375 524.621094 1270.335938 525.21875 C 1272.734375 526.71875 1275.132812 528.21875 1275.734375 528.519531 C 1276.933594 525.820312 1278.132812 523.722656 1279.632812 522.820312 C 1280.53125 522.222656 1281.429688 522.519531 1282.628906 522.820312 C 1280.53125 521.023438 1277.53125 518.921875 1275.132812 517.722656 C 1274.234375 517.421875 1273.636719 516.523438 1273.636719 515.324219 C 1273.636719 514.425781 1274.234375 513.523438 1275.132812 512.925781 C 1276.035156 512.324219 1277.234375 512.625 1277.832031 512.925781 C 1280.53125 514.125 1282.03125 515.324219 1282.929688 516.222656 L 1285.027344 512.027344 C 1285.628906 511.125 1287.128906 511.425781 1288.027344 511.726562 C 1286.527344 509.027344 1282.929688 508.425781 1280.230469 506.929688 C 1276.335938 504.828125 1279.03125 500.628906 1283.53125 503.328125 Z M 1159.703125 577.398438 C 1193.582031 570.5 1223.265625 569 1248.152344 572.601562 C 1219.96875 571.101562 1191.785156 573.800781 1164.5 580.695312 C 1156.707031 585.496094 1151.308594 593.292969 1149.210938 602.289062 C 1148.910156 592.992188 1151.007812 583.695312 1155.207031 575.597656 C 1153.707031 568.101562 1153.707031 560.003906 1155.507812 551.007812 C 1152.507812 530.917969 1144.714844 510.226562 1132.421875 489.234375 C 1146.8125 503.03125 1156.105469 521.023438 1159.703125 540.511719 C 1160.605469 548.609375 1160.304688 556.40625 1158.503906 564.203125 C 1159.40625 568.703125 1159.703125 572.898438 1159.703125 577.398438 Z M 1329.703125 462.546875 L 1304.515625 412.167969 C 1315.910156 426.863281 1324.605469 443.953125 1329.703125 462.546875 Z M 1018.789062 485.039062 C 1026.285156 466.445312 1044.574219 452.351562 1073.355469 442.753906 C 1049.671875 454.148438 1031.382812 468.246094 1018.789062 485.039062 Z M 1314.410156 542.613281 C 1315.910156 523.121094 1313.511719 503.628906 1306.914062 485.335938 C 1316.808594 501.828125 1322.507812 525.519531 1321.90625 544.710938 C 1308.113281 554.007812 1294.625 559.707031 1278.132812 562.703125 C 1297.023438 556.105469 1309.3125 549.511719 1314.410156 542.613281 Z M 1314.410156 542.613281 " fill-opacity="1" fill-rule="evenodd"/></svg>