<svg xmlns="http://www.w3.org/2000/svg" xmlns:xlink="http://www.w3.org/1999/xlink" width="2000" zoomAndPan="magnify" viewBox="0 0 1500 1499.999933" height="2000" preserveAspectRatio="xMidYMid meet" version="1.0"><path fill="#000000" d="M 1060.183594 314.375 L 1057.445312 303.289062 C 1057.40625 303.148438 1057.394531 302.988281 1057.394531 302.839844 C 1057.394531 301.808594 1058.222656 300.96875 1059.265625 300.96875 C 1059.324219 300.96875 1059.386719 300.96875 1059.453125 300.976562 L 1071.027344 302.179688 C 1071.636719 302.238281 1072.207031 301.847656 1072.378906 301.25 C 1078.070312 280.117188 1085.570312 260.738281 1098.792969 243.46875 C 1099.8125 242.15625 1099.882812 240.308594 1098.933594 238.90625 C 1095.984375 234.652344 1095.480469 231.023438 1097.421875 228.011719 C 1101.972656 220.976562 1109.535156 214.921875 1114.1875 210.792969 C 1182.699219 150 1294.042969 179.414062 1338.472656 254.152344 C 1357.167969 285.601562 1363.828125 324.699219 1356.847656 361.140625 C 1356.757812 361.597656 1356.96875 362.078125 1357.378906 362.308594 L 1363.660156 365.941406 C 1364.640625 366.511719 1365.109375 367.644531 1364.839844 368.734375 L 1361.546875 383.191406 C 1361.519531 383.332031 1361.5 383.449219 1361.488281 383.582031 C 1361.398438 384.972656 1362.457031 386.183594 1363.859375 386.28125 C 1363.988281 386.292969 1364.117188 386.292969 1364.238281 386.28125 C 1365.777344 386.164062 1366.6875 386.691406 1366.96875 387.863281 C 1367.039062 388.132812 1367.070312 388.402344 1367.070312 388.683594 C 1367.070312 389.082031 1367 389.492188 1366.859375 389.875 C 1364.25 396.796875 1362.378906 401.550781 1361.257812 404.152344 C 1360.335938 406.253906 1358.585938 407.523438 1357.207031 407.082031 C 1353.835938 406.023438 1354.214844 401.761719 1352.886719 398.867188 C 1352.796875 398.636719 1352.566406 398.488281 1352.316406 398.488281 C 1352.046875 398.488281 1351.804688 398.667969 1351.726562 398.917969 C 1351.097656 400.941406 1350.207031 402.628906 1349.046875 404 C 1348.875 404.203125 1348.785156 404.460938 1348.785156 404.722656 C 1348.785156 405.121094 1349.003906 405.503906 1349.355469 405.703125 C 1355.457031 409.074219 1360.546875 411.15625 1362.976562 416.429688 C 1363.296875 417.160156 1363.277344 417.980469 1362.929688 418.6875 C 1358.738281 427.394531 1348.566406 424.53125 1341.484375 421.660156 C 1328.902344 416.546875 1316.148438 410.816406 1303.207031 404.460938 C 1303.015625 404.371094 1302.804688 404.320312 1302.597656 404.320312 C 1302.085938 404.320312 1301.625 404.589844 1301.375 405.023438 L 1294.414062 417.089844 C 1293.414062 418.757812 1293.074219 420.820312 1293.503906 422.792969 C 1295.0625 429.714844 1295.554688 435.847656 1294.984375 441.171875 C 1294.972656 441.300781 1294.964844 441.429688 1294.964844 441.5625 C 1294.964844 442.871094 1295.644531 444.082031 1296.765625 444.761719 C 1307.757812 451.414062 1316.070312 456.386719 1321.691406 459.699219 C 1325.191406 461.769531 1328.382812 463.863281 1331.261719 465.992188 C 1337.332031 470.484375 1345.246094 475.507812 1350.644531 481.3125 C 1351.726562 482.472656 1352.316406 483.992188 1352.316406 485.5625 C 1352.316406 486.425781 1352.144531 487.265625 1351.804688 488.042969 C 1337.222656 521.863281 1314.457031 548.757812 1283.53125 568.714844 C 1282.972656 569.078125 1282.640625 569.707031 1282.679688 570.359375 C 1283.320312 584.914062 1281.921875 599.484375 1278.492188 614.070312 C 1277.71875 617.320312 1276.46875 619.941406 1274.730469 621.953125 C 1273.949219 622.835938 1273.519531 624.003906 1273.53125 625.214844 C 1273.558594 627.105469 1273.191406 629.589844 1272.429688 632.660156 C 1267.136719 654.039062 1256.347656 674.109375 1240.0625 692.851562 C 1236.332031 697.152344 1232.742188 700.253906 1229.289062 702.15625 C 1228.710938 702.476562 1228.320312 703.097656 1228.289062 703.777344 C 1227.828125 718.34375 1228.53125 729.199219 1230.410156 736.332031 C 1234.210938 750.761719 1238.550781 768 1243.433594 788.039062 C 1247.792969 805.96875 1250.476562 824.25 1254.484375 839.605469 C 1255.777344 844.539062 1257.328125 848.640625 1259.136719 851.921875 C 1271.371094 874.132812 1285.09375 897.917969 1293.363281 923.558594 C 1295.875 931.292969 1298.234375 942.820312 1300.445312 958.148438 C 1309.226562 1019.019531 1315.808594 1064.914062 1329.460938 1120.421875 C 1329.550781 1120.78125 1329.882812 1121.042969 1330.25 1121.042969 C 1330.429688 1121.042969 1330.601562 1120.980469 1330.742188 1120.882812 C 1334.171875 1118.472656 1340.152344 1115.210938 1343.335938 1115.558594 C 1345.125 1115.75 1346.484375 1117.261719 1346.484375 1119.0625 C 1346.484375 1119.3125 1346.453125 1119.5625 1346.40625 1119.800781 C 1344.195312 1130.046875 1342.59375 1138.351562 1341.625 1144.714844 C 1340.492188 1152.046875 1340.785156 1160.871094 1342.503906 1171.199219 C 1342.683594 1172.300781 1343.085938 1173.441406 1343.675781 1174.480469 C 1346.203125 1178.800781 1347.546875 1183.65625 1347.714844 1189.027344 C 1347.734375 1189.699219 1348.175781 1190.289062 1348.824219 1190.488281 C 1351.1875 1191.207031 1353.195312 1190.339844 1354.488281 1193.058594 C 1356.785156 1197.871094 1358.40625 1203.183594 1359.347656 1208.988281 C 1359.457031 1209.679688 1359.648438 1210.410156 1359.925781 1211.097656 L 1365.550781 1224.734375 C 1366.300781 1226.566406 1367.339844 1228.289062 1368.628906 1229.808594 C 1373.800781 1235.941406 1374.589844 1238.664062 1375.769531 1247.238281 C 1375.941406 1248.457031 1376.480469 1249.628906 1377.320312 1250.558594 C 1384.421875 1258.402344 1389.894531 1267.808594 1393.714844 1278.753906 C 1394.253906 1280.304688 1397.796875 1284.035156 1404.347656 1289.949219 C 1404.4375 1290.039062 1404.515625 1290.128906 1404.597656 1290.238281 L 1409.589844 1297.324219 C 1410.21875 1298.214844 1411.007812 1298.972656 1411.929688 1299.554688 C 1421.878906 1305.789062 1428.34375 1309.148438 1434.003906 1316.214844 C 1434.472656 1316.824219 1435.132812 1317.273438 1435.882812 1317.503906 C 1438.035156 1318.144531 1440.695312 1318.523438 1442.734375 1319.605469 C 1455.128906 1326.199219 1466.871094 1331.671875 1477.972656 1336.035156 C 1478.722656 1336.324219 1479.351562 1336.875 1479.722656 1337.59375 C 1481.824219 1341.496094 1482.59375 1345.578125 1482.042969 1349.832031 C 1481.734375 1352.300781 1479.921875 1354.332031 1477.503906 1354.921875 C 1467.140625 1357.453125 1454.777344 1357.394531 1444.625 1356.222656 C 1443.65625 1356.085938 1442.664062 1356.554688 1442.125 1357.425781 C 1441.953125 1357.703125 1441.855469 1357.863281 1441.835938 1357.90625 C 1441.285156 1358.746094 1440.363281 1359.277344 1439.363281 1359.324219 C 1427 1359.984375 1415.46875 1359.136719 1404.765625 1356.785156 C 1398.707031 1355.453125 1391.496094 1346.800781 1386.492188 1340.296875 C 1386.273438 1340.015625 1386.003906 1339.726562 1385.714844 1339.476562 L 1371.390625 1327.117188 C 1371.320312 1327.050781 1371.25 1327 1371.171875 1326.957031 L 1361.378906 1321.925781 C 1357.046875 1319.714844 1352.765625 1317.972656 1348.394531 1316.613281 C 1336.542969 1313.433594 1323.289062 1306 1313.566406 1320.824219 C 1309.558594 1326.949219 1305.097656 1334.183594 1300.175781 1342.515625 C 1297.433594 1347.148438 1293.082031 1350.011719 1287.113281 1351.089844 C 1280.859375 1352.203125 1262.148438 1354.671875 1258.097656 1348.171875 C 1254.355469 1342.167969 1264.007812 1336.222656 1268.25 1333.3125 C 1269.597656 1332.371094 1270.660156 1331.382812 1271.570312 1330.269531 C 1282.410156 1317.335938 1288.183594 1302.285156 1288.894531 1285.117188 C 1289.222656 1277.222656 1286.59375 1266.539062 1285.761719 1260.472656 C 1285.511719 1258.855469 1285.382812 1256.644531 1285.460938 1254.453125 C 1285.921875 1246.425781 1288.414062 1234 1282.101562 1225.636719 C 1281.761719 1225.207031 1281.570312 1224.644531 1281.5625 1224.074219 L 1281.5625 1214.75 C 1281.570312 1214.191406 1281.460938 1213.570312 1281.242188 1213 C 1274.25 1195.382812 1268.707031 1172.046875 1259.925781 1154.058594 C 1257.175781 1148.40625 1252.15625 1138.191406 1244.863281 1123.394531 C 1244.824219 1123.304688 1235.242188 1106.023438 1216.117188 1071.566406 C 1207.6875 1056.390625 1200.90625 1041.109375 1195.761719 1025.734375 C 1190.882812 1011.144531 1187.332031 992.636719 1183.339844 976.886719 C 1181.929688 971.394531 1179.699219 965.070312 1176.640625 957.9375 C 1168.386719 938.648438 1161.507812 917.308594 1156.015625 893.894531 C 1154.714844 888.351562 1151.542969 879.71875 1146.484375 868 C 1142.121094 857.886719 1138.25 849.582031 1134.851562 843.089844 C 1118.957031 812.722656 1108.015625 777.835938 1101.875 743.636719 C 1098.054688 722.40625 1094.390625 701.90625 1090.882812 682.144531 C 1090.671875 680.953125 1089.730469 680.015625 1088.53125 679.804688 C 1048.523438 673.011719 1009.625 670.140625 971.835938 671.179688 C 971.546875 671.191406 971.304688 671.429688 971.304688 671.71875 C 971.304688 671.851562 971.355469 671.96875 971.4375 672.070312 C 976.828125 678.671875 981.367188 685.246094 985.070312 691.789062 C 985.179688 692 986.71875 693.640625 989.679688 696.710938 C 989.710938 696.734375 989.730469 696.753906 989.75 696.773438 C 990.171875 697.144531 990.808594 697.09375 991.179688 696.664062 C 991.199219 696.644531 991.210938 696.621094 991.230469 696.601562 C 995.261719 691.121094 1009.632812 696.113281 1013.625 698.554688 C 1036.238281 712.28125 1054.503906 730.351562 1068.40625 752.761719 C 1076.558594 765.886719 1081.640625 778.144531 1083.648438 789.53125 C 1087.0625 808.902344 1085.109375 835.09375 1065.707031 845.03125 C 1062.835938 846.511719 1057.792969 848.339844 1050.574219 850.53125 C 1050.03125 850.703125 1049.632812 851.171875 1049.550781 851.734375 C 1048.191406 862.890625 1044.921875 873.714844 1039.75 884.230469 C 1034.25 895.425781 1030.828125 902.558594 1029.507812 905.632812 C 1029.058594 906.671875 1028.738281 907.742188 1028.539062 908.84375 C 1026.589844 919.507812 1023.128906 932.085938 1018.167969 946.570312 C 998.371094 1004.371094 971.457031 1048.453125 938.210938 1109.335938 C 935.910156 1113.546875 933 1119.480469 929.488281 1127.15625 C 928.148438 1130.085938 927.585938 1132.078125 927.808594 1133.140625 C 927.9375 1133.789062 928.257812 1134.378906 928.726562 1134.839844 C 938.910156 1145.195312 924.085938 1176.039062 919.746094 1188.066406 C 919.714844 1188.136719 919.695312 1188.21875 919.695312 1188.308594 C 919.695312 1188.417969 919.726562 1188.527344 919.785156 1188.628906 L 930.359375 1208.246094 C 931.039062 1209.476562 932.109375 1210.386719 933.378906 1210.828125 C 940.769531 1213.558594 945.980469 1218.792969 949.011719 1226.527344 C 949.230469 1227.117188 949.640625 1227.648438 950.160156 1228.027344 L 963.675781 1237.722656 C 963.753906 1237.78125 963.84375 1237.832031 963.933594 1237.851562 C 971.554688 1239.984375 976.46875 1244.386719 978.667969 1251.078125 C 978.929688 1251.820312 979.496094 1252.410156 980.226562 1252.699219 C 981.699219 1253.25 984.5 1254.820312 988.621094 1257.402344 C 998.671875 1263.675781 1012.164062 1266.769531 1023.699219 1268.890625 C 1042.453125 1272.339844 1053.894531 1274.042969 1065.066406 1278.113281 C 1074.207031 1281.476562 1078.480469 1287.378906 1078.9375 1297.054688 C 1079.21875 1302.695312 1079.488281 1306.179688 1079.75 1307.488281 C 1081.007812 1314.023438 1080.75 1319.035156 1078.980469 1322.527344 C 1076.179688 1328.039062 1069.796875 1331.820312 1063.035156 1332.351562 C 1062.40625 1332.382812 1061.773438 1332.671875 1061.296875 1333.152344 C 1056.84375 1337.625 1051.09375 1339.375 1044.023438 1338.425781 C 1043.390625 1338.355469 1042.769531 1338.464844 1042.222656 1338.734375 C 1036.289062 1341.695312 1029.578125 1342.675781 1022.078125 1341.6875 C 1021.308594 1341.597656 1020.585938 1341.648438 1019.898438 1341.816406 C 1012.074219 1343.769531 1004.171875 1344.21875 996.171875 1343.175781 C 994.761719 1343.007812 993.511719 1343.027344 992.300781 1343.226562 C 986.75 1344.027344 980.660156 1344.066406 974.035156 1343.347656 C 972.226562 1343.15625 971.257812 1342.308594 969.796875 1341.648438 C 969.496094 1341.507812 969.164062 1341.4375 968.835938 1341.4375 C 968.414062 1341.4375 967.996094 1341.554688 967.636719 1341.785156 C 965.515625 1343.148438 961.5625 1343.609375 955.78125 1343.15625 C 952.121094 1342.886719 949.792969 1342.027344 948.800781 1340.566406 C 948.5 1340.125 948 1339.867188 947.472656 1339.867188 C 947.292969 1339.867188 947.121094 1339.894531 946.953125 1339.945312 C 941.359375 1341.847656 935.480469 1341.144531 929.335938 1337.863281 C 928.6875 1337.515625 928.277344 1336.835938 928.277344 1336.105469 C 928.277344 1335.945312 928.296875 1335.792969 928.335938 1335.644531 C 929.46875 1330.589844 927.378906 1327.558594 922.054688 1326.539062 C 917.003906 1325.566406 911.003906 1324.917969 904.0625 1324.585938 C 903.183594 1324.558594 902.371094 1324.796875 901.703125 1325.257812 C 895.769531 1329.148438 888.699219 1331.160156 880.488281 1331.28125 C 879.566406 1331.332031 878.757812 1331.5625 878.035156 1331.980469 L 873.054688 1334.875 C 872.34375 1335.253906 871.636719 1335.453125 870.914062 1335.472656 C 861.8125 1335.824219 854.882812 1335.734375 850.132812 1335.203125 C 848.871094 1335.0625 847.261719 1334.003906 845.289062 1332.042969 C 845 1331.742188 844.601562 1331.582031 844.179688 1331.582031 C 843.910156 1331.582031 843.640625 1331.652344 843.398438 1331.792969 L 839.160156 1334.242188 C 838.707031 1334.511719 838.167969 1334.652344 837.609375 1334.644531 L 819.035156 1334.144531 C 818.484375 1334.121094 817.972656 1333.921875 817.574219 1333.574219 L 814.554688 1330.980469 C 814.285156 1330.730469 813.921875 1330.601562 813.554688 1330.601562 C 813.234375 1330.601562 812.921875 1330.699219 812.664062 1330.882812 L 809.601562 1333.042969 C 808.722656 1333.671875 807.621094 1333.960938 806.53125 1333.851562 L 789.898438 1332.132812 C 788.878906 1332.023438 787.949219 1331.472656 787.367188 1330.609375 C 786.796875 1329.742188 786.257812 1329.171875 785.746094 1328.910156 C 785.246094 1328.667969 784.445312 1328.78125 783.335938 1329.261719 C 778.144531 1331.480469 767.261719 1329.71875 766.453125 1322.527344 C 765.125 1310.359375 764.894531 1298.722656 765.785156 1287.589844 C 765.8125 1287.238281 765.902344 1286.910156 766.042969 1286.609375 L 768.292969 1281.476562 C 768.425781 1281.195312 768.503906 1280.875 768.503906 1280.566406 C 768.964844 1254.03125 774.835938 1228.949219 786.097656 1205.296875 C 786.40625 1204.664062 786.566406 1203.933594 786.566406 1203.195312 C 786.488281 1198.691406 786.246094 1192.417969 785.847656 1184.375 C 785.558594 1178.433594 784.996094 1168.515625 790.597656 1165.34375 C 801.492188 1159.191406 805.871094 1168.316406 810.121094 1176.0625 C 810.242188 1176.269531 810.460938 1176.402344 810.703125 1176.402344 C 811.003906 1176.402344 811.273438 1176.191406 811.351562 1175.902344 C 819.613281 1145.015625 826.875 1116.761719 833.15625 1091.136719 C 838.828125 1067.953125 843.289062 1047.453125 846.53125 1029.65625 C 849.75 1011.976562 849.859375 986.382812 853.429688 967.761719 C 856.890625 949.792969 863.292969 932.695312 870.503906 914.746094 C 878.335938 895.265625 888.277344 877.554688 896.089844 857.175781 C 896.160156 856.996094 896.199219 856.804688 896.199219 856.605469 C 896.199219 855.765625 895.519531 855.085938 894.671875 855.085938 C 894.648438 855.085938 894.621094 855.085938 894.589844 855.085938 C 891.871094 855.214844 890.480469 854.183594 890.398438 852.003906 C 890.230469 846.210938 887.527344 840.828125 880.828125 842.386719 C 879.246094 842.769531 877.597656 841.988281 876.855469 840.527344 C 874.097656 835.054688 869.835938 835.246094 866.382812 832.472656 C 855.773438 823.9375 837.4375 815.3125 820.785156 810.410156 C 810.253906 807.300781 797.390625 803.1875 785.40625 797.203125 C 784.898438 796.945312 784.257812 797.023438 783.796875 797.40625 C 780.695312 800.066406 777.664062 802.726562 773.636719 801.296875 C 769.234375 799.726562 766.273438 797.09375 764.742188 793.382812 C 764.371094 792.472656 763.574219 791.792969 762.59375 791.550781 L 753.722656 789.53125 C 753.691406 789.519531 753.660156 789.519531 753.621094 789.519531 C 753.378906 789.519531 753.179688 789.710938 753.179688 789.960938 C 753.179688 789.980469 753.179688 789.992188 753.179688 790.011719 C 754.582031 802.6875 755.492188 814.484375 755.902344 825.410156 C 756.210938 833.914062 752.011719 838.226562 743.308594 838.355469 C 733.738281 838.484375 732.90625 830.382812 731.367188 822.085938 C 729.246094 810.660156 726.976562 799.097656 724.574219 787.390625 C 723.722656 783.269531 722.542969 779.925781 721.023438 777.363281 C 720.882812 777.15625 720.652344 777.035156 720.402344 777.035156 C 720.003906 777.035156 719.671875 777.355469 719.671875 777.765625 C 719.671875 777.773438 719.671875 777.785156 719.671875 777.792969 C 720.632812 791.792969 721.3125 808.3125 721.714844 827.351562 C 721.804688 831.472656 721.203125 834.34375 719.902344 835.964844 C 715.664062 841.1875 706.691406 842.21875 701.898438 837.796875 C 700.078125 836.113281 698.738281 832.792969 697.910156 827.839844 C 694.316406 806.429688 692.277344 788.890625 689.015625 769.089844 C 688.847656 768.058594 688.1875 767.179688 687.257812 766.738281 L 686.816406 766.519531 C 686.667969 766.449219 686.507812 766.417969 686.347656 766.417969 C 685.746094 766.417969 685.265625 766.898438 685.265625 767.5 C 685.265625 767.539062 685.265625 767.578125 685.265625 767.621094 L 691.789062 820.636719 C 691.828125 820.886719 691.835938 821.136719 691.835938 821.386719 C 691.835938 823.929688 690.277344 826.199219 687.917969 827.121094 C 676.683594 831.503906 671.113281 823.820312 667.792969 813.535156 C 663.121094 798.964844 660.902344 784.796875 659.421875 770.730469 C 658.449219 761.488281 655.148438 749.980469 653.320312 743.558594 C 653.078125 742.375 652.28125 741.347656 651.179688 740.796875 L 617.972656 724.675781 C 617.171875 724.308594 616.3125 724.175781 615.480469 724.277344 L 590.035156 727.398438 C 588.417969 727.609375 587.027344 728.621094 586.324219 730.070312 C 580.175781 743.097656 576.785156 750.261719 576.164062 751.542969 C 569.183594 765.886719 565.882812 777.15625 559.21875 795.355469 C 555.410156 805.839844 548.128906 818.394531 535.933594 821.46875 C 535.035156 821.71875 534.285156 822.296875 533.835938 823.078125 L 524.59375 839.125 C 523.832031 840.4375 523.703125 842.007812 524.234375 843.429688 C 527.183594 851.421875 529.105469 857.054688 529.265625 864.578125 C 529.414062 872.703125 527.914062 881.878906 524.753906 892.125 C 519.402344 909.363281 512.511719 924.910156 504.820312 939.617188 C 489.304688 969.242188 471.839844 993.046875 442.785156 1007.453125 C 438.234375 1009.714844 434.703125 1010.445312 429.613281 1009.042969 C 424.953125 1007.753906 420.910156 1006.761719 417.492188 1006.074219 C 417.242188 1006.023438 416.96875 1005.902344 416.738281 1005.710938 L 410.609375 1000.410156 C 410.078125 999.96875 409.328125 999.949219 408.808594 1000.359375 C 397.074219 1009.265625 384.421875 1017.449219 370.839844 1024.921875 C 368.769531 1026.054688 366.308594 1026.921875 363.46875 1027.535156 C 360.449219 1028.164062 357.667969 1030.074219 355.117188 1033.257812 C 341.324219 1050.4375 327.160156 1066.996094 310.046875 1082.164062 C 304.167969 1087.375 293.335938 1095.070312 277.539062 1105.253906 C 247.964844 1124.273438 215.257812 1147.867188 187.09375 1172.089844 C 186.550781 1172.550781 186.320312 1173.28125 186.511719 1173.960938 C 187.992188 1179.332031 186.972656 1184.546875 183.460938 1189.585938 C 179.941406 1194.640625 176.191406 1199.664062 172.21875 1204.644531 C 172.078125 1204.804688 172.007812 1205.007812 172.007812 1205.214844 C 172.007812 1205.714844 172.398438 1206.117188 172.890625 1206.125 L 199.363281 1206.957031 C 200.675781 1206.988281 201.785156 1207.9375 202.023438 1209.238281 L 202.046875 1209.328125 C 202.046875 1209.378906 202.054688 1209.398438 202.054688 1209.417969 C 202.183594 1210.707031 201.246094 1211.847656 199.953125 1211.988281 C 199.933594 1211.988281 199.90625 1211.988281 199.882812 1212 C 189.984375 1212.828125 179.859375 1212.730469 169.527344 1211.6875 C 168.878906 1211.628906 168.277344 1211.980469 168.007812 1212.550781 L 162.277344 1224.367188 C 162.007812 1224.917969 161.9375 1225.566406 162.078125 1226.175781 C 163.265625 1231.097656 164.328125 1234.28125 162.816406 1237.453125 C 162.65625 1237.804688 162.296875 1238.023438 161.917969 1238.023438 C 161.675781 1238.023438 161.4375 1237.933594 161.257812 1237.78125 L 159.636719 1236.371094 C 159.535156 1236.28125 159.417969 1236.230469 159.285156 1236.230469 C 159.015625 1236.230469 158.785156 1236.441406 158.765625 1236.722656 C 158.355469 1240.425781 157.855469 1245.867188 157.285156 1253.039062 C 156.625 1261.175781 150.253906 1264.195312 143.023438 1264.167969 C 143.011719 1264.167969 143.011719 1264.167969 143.003906 1264.167969 C 142.414062 1264.167969 141.914062 1264.617188 141.863281 1265.207031 L 140.574219 1277.714844 C 140.5625 1277.804688 140.5625 1277.902344 140.5625 1277.992188 C 140.5625 1278.523438 140.703125 1279.054688 140.980469 1279.503906 C 142.082031 1281.34375 142.992188 1283.746094 143.703125 1286.707031 C 145.011719 1292.160156 146.695312 1294.132812 149.875 1298.65625 C 154.175781 1304.726562 155.835938 1313.242188 155.277344 1319.535156 C 154.324219 1330.429688 153.695312 1341.585938 153.386719 1352.992188 C 153.175781 1360.386719 149.132812 1363.496094 141.253906 1362.335938 C 139.8125 1362.136719 138.300781 1362.605469 136.730469 1363.746094 C 135.019531 1365.007812 132.53125 1365.730469 129.269531 1365.910156 C 105.304688 1367.25 77.898438 1366.898438 47.03125 1364.867188 C 44.683594 1364.707031 41.832031 1364.296875 38.492188 1363.628906 C 30.71875 1362.066406 22.207031 1359.90625 20.6875 1352.070312 C 20.105469 1349.101562 20.175781 1340.277344 20.917969 1325.609375 C 20.945312 1325.128906 20.925781 1324.539062 20.835938 1323.96875 C 20.558594 1322.285156 20.335938 1320.675781 20.195312 1319.144531 C 19.316406 1308.648438 18.546875 1299.734375 17.90625 1292.402344 C 17.40625 1286.738281 19.40625 1275.53125 21.9375 1268.308594 C 25.679688 1257.5625 28.898438 1248.316406 30.71875 1238.242188 C 32.929688 1225.988281 40.382812 1212.828125 47.382812 1202.113281 C 47.371094 1202.132812 47.371094 1202.132812 47.371094 1202.125 C 47.921875 1201.285156 47.691406 1200.144531 46.851562 1199.601562 C 46.851562 1199.601562 46.851562 1199.601562 46.84375 1199.601562 C 39.972656 1195.421875 41.832031 1189.6875 48.484375 1187.328125 C 52.625 1185.867188 57.246094 1185.535156 62.355469 1186.347656 C 62.425781 1186.355469 62.484375 1186.355469 62.546875 1186.355469 C 63.046875 1186.355469 63.496094 1186.085938 63.726562 1185.644531 C 70.378906 1172.859375 75.339844 1163.394531 79.78125 1151.699219 C 81.808594 1146.324219 83.429688 1142.535156 84.640625 1140.3125 C 90.082031 1130.296875 101.613281 1131.328125 111.707031 1131.609375 C 111.714844 1131.609375 111.734375 1131.609375 111.746094 1131.609375 C 112.367188 1131.609375 112.9375 1131.246094 113.195312 1130.6875 C 114.195312 1128.476562 116.515625 1124.402344 120.15625 1118.492188 C 127.199219 1107.066406 154.796875 1062.960938 202.964844 986.171875 C 226.679688 948.382812 259.4375 920.75 303.046875 910.714844 C 304.746094 910.324219 307.515625 909.121094 311.359375 907.121094 C 312.257812 906.652344 313.027344 906.011719 313.628906 905.230469 C 316.339844 901.769531 320.539062 895.265625 325.890625 893.785156 C 326.28125 893.675781 326.5625 893.316406 326.5625 892.90625 C 326.5625 892.714844 326.5 892.535156 326.390625 892.375 L 325.210938 890.691406 C 325 890.382812 324.882812 890.011719 324.882812 889.644531 C 324.882812 889.203125 325.039062 888.773438 325.332031 888.441406 L 329.652344 883.417969 C 329.910156 883.089844 330.082031 882.71875 330.140625 882.328125 C 331.832031 871.375 332.191406 862.648438 339.164062 855.625 C 340.933594 853.84375 341.90625 851.894531 342.054688 849.78125 C 343.792969 825.410156 347.664062 800.464844 353.6875 774.953125 C 364.730469 728.148438 377.902344 681.804688 393.226562 635.921875 C 393.515625 635.019531 393.644531 634.109375 393.625 633.191406 C 393.535156 624.074219 393.566406 618.972656 393.707031 617.871094 C 394.84375 609.257812 396.9375 595.050781 399.957031 575.261719 C 408.058594 522.171875 432.5625 462.84375 482.324219 436.128906 C 482.695312 435.929688 482.925781 435.527344 482.925781 435.109375 C 482.925781 434.878906 482.855469 434.648438 482.722656 434.457031 C 481.042969 432.007812 479.773438 429.933594 480.644531 427.214844 C 484.484375 414.996094 501.308594 404.582031 513.109375 399.308594 C 516.242188 397.917969 518.5625 397.339844 520.082031 397.558594 C 526.652344 398.558594 532.324219 400.058594 537.09375 402.070312 C 537.707031 402.320312 538.367188 402.371094 538.996094 402.21875 L 547.878906 400 C 549.289062 399.648438 550.289062 398.386719 550.289062 396.929688 C 550.289062 396.71875 550.257812 396.496094 550.21875 396.277344 C 545.058594 372.066406 542.027344 347.832031 541.105469 323.578125 C 540.867188 317.167969 540.835938 312.324219 541.015625 309.042969 C 541.554688 299.378906 542.578125 290.242188 540.875 281.988281 C 539.796875 276.734375 538.367188 270.683594 538.214844 265.390625 C 537.367188 237.734375 550.386719 220.355469 577.285156 213.242188 C 588.566406 210.242188 599.847656 209.460938 611.140625 210.890625 C 632.90625 213.632812 654.339844 214.742188 683.867188 216.984375 C 718.902344 219.644531 752.460938 227.378906 784.558594 240.1875 C 794.757812 244.257812 806.070312 247.378906 818.515625 249.519531 C 818.5625 249.53125 818.613281 249.542969 818.675781 249.542969 C 819.132812 249.542969 819.535156 249.222656 819.632812 248.769531 C 822.066406 238.027344 829.527344 234.433594 839.46875 229.121094 C 858.601562 218.875 883.609375 214.632812 904.621094 214.84375 C 919.035156 214.984375 931.757812 217.644531 942.761719 222.816406 C 955.621094 228.859375 964.285156 233.523438 968.753906 236.804688 C 971.964844 239.175781 975.527344 243.738281 979.4375 250.511719 C 979.859375 251.242188 980.519531 251.871094 981.320312 252.273438 C 989.671875 256.296875 997.8125 260.207031 1005.714844 264.019531 C 1015.867188 268.921875 1023.496094 275.265625 1028.617188 283.046875 C 1035.699219 293.8125 1040.640625 302.199219 1049.28125 307.902344 C 1055.492188 312.015625 1058.90625 314.304688 1059.503906 314.796875 C 1059.585938 314.855469 1059.675781 314.886719 1059.773438 314.886719 C 1060.003906 314.886719 1060.195312 314.695312 1060.195312 314.464844 C 1060.195312 314.433594 1060.195312 314.40625 1060.183594 314.375 Z M 1348.695312 415.457031 C 1348.734375 415.386719 1348.753906 415.296875 1348.753906 415.21875 C 1348.753906 415.015625 1348.644531 414.847656 1348.476562 414.757812 L 1331.441406 405.613281 C 1331.363281 405.570312 1331.28125 405.550781 1331.191406 405.550781 C 1331 405.550781 1330.832031 405.664062 1330.730469 405.832031 L 1330.53125 406.203125 C 1330.492188 406.28125 1330.472656 406.363281 1330.472656 406.453125 C 1330.472656 406.644531 1330.582031 406.824219 1330.75 406.914062 L 1347.785156 416.046875 C 1347.863281 416.085938 1347.945312 416.109375 1348.035156 416.109375 C 1348.226562 416.109375 1348.40625 416.007812 1348.496094 415.835938 Z M 1317.140625 468.945312 C 1317.308594 468.65625 1317.398438 468.335938 1317.398438 467.996094 C 1317.398438 467.363281 1317.070312 466.773438 1316.527344 466.445312 L 1293.082031 452.125 C 1292.792969 451.957031 1292.472656 451.867188 1292.132812 451.867188 C 1291.503906 451.867188 1290.914062 452.195312 1290.582031 452.738281 L 1290.164062 453.425781 C 1289.992188 453.707031 1289.902344 454.039062 1289.902344 454.367188 C 1289.902344 455.007812 1290.234375 455.589844 1290.773438 455.917969 L 1314.21875 470.234375 C 1314.507812 470.414062 1314.828125 470.503906 1315.167969 470.503906 C 1315.796875 470.503906 1316.386719 470.175781 1316.707031 469.636719 Z M 1278.21875 475.410156 C 1283.820312 482.550781 1294.132812 488.164062 1302.554688 492.585938 C 1302.777344 492.699219 1303.015625 492.765625 1303.265625 492.765625 C 1303.816406 492.765625 1304.324219 492.46875 1304.597656 491.988281 L 1311.40625 480.191406 C 1311.816406 479.46875 1311.578125 478.539062 1310.867188 478.128906 L 1287.542969 464.671875 C 1287.472656 464.644531 1287.402344 464.601562 1287.3125 464.574219 C 1286.652344 464.34375 1285.921875 464.703125 1285.691406 465.382812 C 1285.664062 465.464844 1285.640625 465.542969 1285.632812 465.632812 C 1285.082031 470.527344 1282.800781 473.296875 1278.800781 473.9375 C 1278.742188 473.949219 1278.660156 473.96875 1278.589844 473.996094 C 1278.121094 474.199219 1277.902344 474.738281 1278.101562 475.199219 C 1278.128906 475.269531 1278.171875 475.339844 1278.21875 475.398438 Z M 1341.792969 485.292969 C 1341.945312 485.074219 1342.023438 484.8125 1342.023438 484.554688 C 1342.023438 484.09375 1341.792969 483.671875 1341.414062 483.421875 L 1326.992188 473.949219 C 1326.769531 473.808594 1326.519531 473.726562 1326.25 473.726562 C 1325.800781 473.726562 1325.371094 473.957031 1325.121094 474.335938 L 1325.082031 474.398438 C 1324.941406 474.617188 1324.859375 474.878906 1324.859375 475.136719 C 1324.859375 475.597656 1325.089844 476.019531 1325.46875 476.269531 L 1339.882812 485.742188 C 1340.105469 485.882812 1340.363281 485.964844 1340.625 485.964844 C 1341.082031 485.964844 1341.503906 485.734375 1341.753906 485.351562 Z M 1272.03125 542.371094 L 1298.90625 503.203125 C 1299.164062 502.8125 1299.304688 502.351562 1299.304688 501.882812 C 1299.304688 501.0625 1298.875 500.300781 1298.175781 499.882812 C 1285.191406 492.148438 1275.328125 485.964844 1268.578125 481.332031 C 1264.867188 478.800781 1261.835938 479.210938 1259.488281 482.570312 C 1258.304688 484.242188 1256.597656 487.253906 1254.355469 491.597656 C 1254.003906 492.265625 1253.503906 492.835938 1252.894531 493.269531 L 1248.5625 496.308594 C 1248.09375 496.640625 1247.8125 497.179688 1247.8125 497.761719 C 1247.8125 497.960938 1247.84375 498.160156 1247.914062 498.351562 C 1249.125 501.882812 1249.574219 505.753906 1249.285156 509.996094 C 1249.246094 510.65625 1249.433594 511.308594 1249.816406 511.855469 L 1271.320312 542.394531 C 1271.328125 542.414062 1271.339844 542.433594 1271.359375 542.453125 C 1271.527344 542.625 1271.800781 542.613281 1271.980469 542.441406 C 1272 542.421875 1272.007812 542.402344 1272.03125 542.382812 Z M 1339.332031 495.9375 C 1339.414062 495.808594 1339.453125 495.660156 1339.453125 495.507812 C 1339.453125 495.21875 1339.304688 494.949219 1339.0625 494.796875 L 1320.730469 483.644531 C 1320.597656 483.5625 1320.449219 483.523438 1320.300781 483.523438 C 1320.007812 483.523438 1319.738281 483.671875 1319.589844 483.921875 L 1311.527344 497.179688 C 1311.449219 497.308594 1311.40625 497.460938 1311.40625 497.621094 C 1311.40625 497.898438 1311.558594 498.171875 1311.808594 498.320312 L 1330.140625 509.476562 C 1330.273438 509.554688 1330.421875 509.597656 1330.570312 509.597656 C 1330.863281 509.597656 1331.132812 509.445312 1331.28125 509.195312 Z M 1279.300781 559.84375 C 1279.3125 559.890625 1279.332031 559.941406 1279.351562 559.992188 C 1279.570312 560.542969 1280.191406 560.800781 1280.75 560.574219 C 1280.800781 560.550781 1280.851562 560.53125 1280.890625 560.503906 C 1298.835938 549.257812 1313.769531 534.929688 1325.699219 517.539062 C 1325.710938 517.53125 1325.710938 517.53125 1325.71875 517.519531 C 1326.019531 517.050781 1325.902344 516.429688 1325.441406 516.140625 C 1325.429688 516.128906 1325.410156 516.121094 1325.402344 516.109375 L 1307.816406 505.964844 C 1307.546875 505.792969 1307.1875 505.875 1306.996094 506.144531 L 1278.050781 548.335938 C 1277.300781 549.4375 1277.050781 550.789062 1277.371094 552.066406 Z M 55.214844 1191.417969 C 54.214844 1191.230469 52.84375 1191.777344 51.113281 1193.078125 C 50.921875 1193.21875 50.8125 1193.429688 50.8125 1193.660156 C 50.8125 1193.960938 51.011719 1194.242188 51.304688 1194.339844 C 52.964844 1194.890625 54.355469 1194.679688 55.484375 1193.699219 C 55.585938 1193.609375 55.683594 1193.5 55.773438 1193.371094 C 56.203125 1192.738281 56.113281 1191.929688 55.585938 1191.578125 C 55.484375 1191.507812 55.363281 1191.457031 55.234375 1191.429688 Z M 55.214844 1191.417969 " fill-opacity="1" fill-rule="evenodd"/></svg>