<svg xmlns="http://www.w3.org/2000/svg" xmlns:xlink="http://www.w3.org/1999/xlink" width="2000" zoomAndPan="magnify" viewBox="0 0 1500 1499.999933" height="2000" preserveAspectRatio="xMidYMid meet" version="1.0"><path fill="#000000" d="M 1087.453125 13.425781 C 1087.417969 9.152344 1089.996094 3.039062 1095.316406 4.546875 C 1098.316406 6.351562 1098.207031 10.332031 1099.074219 13.3125 C 1101.0625 26.167969 1104.449219 38.722656 1107.894531 51.246094 C 1111.742188 39.554688 1110.234375 27.03125 1111.835938 15.003906 C 1112.277344 10.074219 1119.804688 6.480469 1122.402344 11.710938 C 1125.074219 21.230469 1123.378906 31.414062 1123.472656 41.210938 C 1125.808594 37.527344 1129.050781 31.359375 1134.078125 35.410156 C 1136.363281 52.164062 1127.082031 68.242188 1128.515625 85.054688 C 1129.160156 91.921875 1131.703125 98.53125 1131.464844 105.492188 C 1131.738281 111.109375 1129.972656 117.5 1133.894531 122.269531 C 1136.820312 126.042969 1135.828125 131.105469 1137.761719 135.289062 C 1143.816406 150.148438 1151.496094 164.269531 1158.992188 178.429688 C 1165.105469 180.933594 1171.640625 182.296875 1177.589844 185.261719 C 1204.4375 197.359375 1224.675781 223.542969 1228.375 252.914062 C 1229.203125 261.773438 1230.4375 271.496094 1225.320312 279.359375 C 1221.488281 289.6875 1219.097656 300.589844 1213.734375 310.332031 C 1233.789062 312.503906 1253.601562 322.390625 1265.277344 339.222656 C 1274.960938 352.351562 1277.46875 370.210938 1272.367188 385.640625 C 1269.898438 392.714844 1264.15625 398.183594 1262.480469 405.585938 C 1261.796875 409.984375 1262.480469 414.480469 1261.761719 418.878906 C 1260.304688 426.246094 1264.484375 433.207031 1263.804688 440.589844 C 1263.105469 447.550781 1259.917969 453.996094 1258.886719 460.921875 C 1257.65625 469.023438 1255.390625 476.902344 1253.601562 484.894531 C 1254.082031 490.308594 1255.628906 495.757812 1254.636719 501.226562 C 1253.730469 508.042969 1247.453125 512.625 1246.605469 519.476562 C 1242.773438 533.082031 1257.765625 541.738281 1258.832031 554.644531 C 1260.65625 573.042969 1255.71875 591.457031 1256.878906 609.945312 C 1257.582031 619.113281 1256.621094 629.128906 1249.328125 635.667969 C 1254.117188 639.957031 1256.496094 645.925781 1254.375 652.257812 C 1257.542969 655.390625 1260.195312 659.109375 1260.96875 663.621094 C 1271.484375 674.613281 1283.929688 683.855469 1292.695312 696.433594 C 1302.511719 710.558594 1310.097656 726.191406 1315.417969 742.542969 C 1319.597656 755.765625 1321.386719 769.554688 1323.925781 783.144531 C 1330.296875 815.496094 1340.480469 846.914062 1348.398438 878.878906 C 1354.9375 903.683594 1358.414062 929.535156 1369.335938 952.976562 C 1373.019531 960.730469 1376.128906 968.996094 1381.964844 975.460938 C 1384.105469 977.59375 1384.582031 980.652344 1385.484375 983.453125 C 1403.050781 998.074219 1420.875 1013.890625 1430.726562 1034.992188 C 1437.742188 1051.492188 1438.480469 1069.683594 1442.660156 1086.957031 C 1446.894531 1105.980469 1451.773438 1124.871094 1456.191406 1143.855469 C 1463.152344 1152.234375 1461.109375 1163.90625 1464.792969 1173.613281 C 1466.875 1178.824219 1467.039062 1185.4375 1471.917969 1189.042969 C 1482.859375 1197.972656 1490.277344 1211.179688 1492.027344 1225.226562 C 1493.71875 1239.941406 1488.382812 1254.449219 1490.386719 1269.164062 C 1492.710938 1291.039062 1500 1314.09375 1490.699219 1335.359375 C 1483.980469 1349.851562 1474.019531 1365.304688 1457.886719 1370.183594 C 1448.515625 1373.351562 1436.417969 1371.195312 1430.910156 1362.355469 C 1423.34375 1350.699219 1423.710938 1336.136719 1424.578125 1322.820312 C 1425.992188 1308.179688 1428.003906 1293.523438 1427.117188 1278.773438 C 1425.074219 1279.105469 1423.050781 1279.382812 1421.117188 1279.992188 C 1417.707031 1286.121094 1415.847656 1292.972656 1413.289062 1299.472656 C 1409.382812 1310.851562 1404.339844 1321.9375 1402.058594 1333.796875 C 1403.289062 1337.367188 1407.304688 1340.496094 1405.832031 1344.640625 C 1404.871094 1348.472656 1400.527344 1349.210938 1397.398438 1350.347656 C 1394.582031 1354.898438 1391.78125 1359.628906 1390.566406 1364.894531 C 1391.191406 1367.953125 1394.636719 1371.359375 1392.128906 1374.378906 C 1388.910156 1377.859375 1382.941406 1376.847656 1380.03125 1380.824219 C 1376.167969 1384.414062 1375.042969 1389.605469 1373.367188 1394.375 C 1365.871094 1403.308594 1347.992188 1403.214844 1343.777344 1391.027344 C 1339.503906 1377.214844 1343.554688 1362.6875 1345.160156 1348.730469 C 1348.140625 1334.550781 1345.34375 1320.171875 1344.164062 1305.972656 C 1343.113281 1295.84375 1343.113281 1285.570312 1340.792969 1275.644531 C 1334.898438 1268.351562 1325.363281 1263.472656 1322.25 1254.101562 C 1320.535156 1249.570312 1324.753906 1246.660156 1327.535156 1243.953125 C 1319.285156 1230.953125 1310.628906 1218.121094 1299.859375 1207.070312 C 1295.585938 1197.9375 1286.859375 1192.414062 1279.933594 1185.507812 C 1259.183594 1166.835938 1241.082031 1145.328125 1225.890625 1121.925781 C 1218.339844 1110.214844 1209.941406 1098.90625 1199.632812 1089.496094 C 1194.273438 1089.496094 1188.382812 1090.859375 1183.832031 1087.179688 C 1171.421875 1078.46875 1162.289062 1065.503906 1156.597656 1051.566406 C 1151.644531 1040.058594 1153.597656 1026.984375 1149.160156 1015.328125 C 1145.625 1004.996094 1137.816406 997.097656 1131.792969 988.238281 C 1129.472656 985.054688 1127.429688 981.574219 1124.539062 978.902344 C 1119.640625 975.917969 1113.417969 974.628906 1110.105469 969.546875 C 1099.183594 953.769531 1096.347656 934.304688 1088.449219 917.105469 C 1084.269531 903.757812 1079.574219 890.515625 1076.40625 876.871094 C 1074.15625 867.296875 1081.324219 858.808594 1080.457031 849.269531 C 1080.417969 829.53125 1079.074219 809.679688 1075.171875 790.308594 C 1071.875 775.097656 1070.679688 759.28125 1074.175781 743.996094 C 1066.921875 737.292969 1062.890625 726.410156 1066.40625 716.835938 C 1056.960938 695.035156 1049.703125 672.347656 1040.183594 650.566406 C 1036.503906 642.425781 1029.523438 636.238281 1026.449219 627.789062 C 1018.144531 607.347656 1022.414062 584.644531 1016.746094 563.613281 C 1013.28125 550.558594 1011.144531 536.601562 1003.0625 525.386719 C 996.636719 515.019531 989.96875 502.644531 993.136719 490.125 C 995.605469 475.558594 993.246094 460.734375 993.800781 446.058594 C 994.535156 434.21875 989.324219 423.449219 985.292969 412.675781 C 970.449219 405.015625 957.785156 392.601562 951.117188 377.171875 C 945.980469 365.71875 943.878906 353.140625 938.132812 341.945312 C 934.617188 335.300781 931.671875 328.359375 929.738281 321.082031 C 928.191406 315.101562 922.390625 311.378906 921.175781 305.25 C 917.695312 291.566406 910.976562 279.023438 907.015625 265.492188 C 895.820312 232.457031 893.71875 197.359375 887.84375 163.203125 C 886.632812 160.015625 883.261719 158.210938 881.789062 155.15625 C 880.683594 152.207031 880.425781 149.042969 879.929688 145.964844 C 874.257812 140.257812 869.617188 133.484375 867.039062 125.820312 C 864.570312 119.394531 863.671875 111.789062 858.144531 107.039062 C 848.734375 98.769531 837.648438 91.8125 830.761719 81.113281 C 827.632812 77.707031 831.1875 71.40625 835.734375 73.691406 C 847.058594 78.828125 855.328125 90.816406 868.289062 91.867188 C 860.648438 76.914062 852.402344 62.183594 846.324219 46.53125 C 844.648438 41.359375 852.511719 36.847656 855.789062 41.503906 C 864.976562 53.878906 870.316406 69.164062 881.769531 79.898438 C 881.789062 69.089844 877.753906 58.832031 876.261719 48.1875 C 874.992188 39.996094 871.773438 31.671875 873.429688 23.332031 C 875.195312 18.304688 882.707031 20.015625 883.851562 24.710938 C 889.355469 40.160156 893.09375 56.199219 897.457031 72 C 900.660156 72.84375 902.171875 69.234375 902.78125 66.734375 C 905.449219 54.246094 905.765625 41.339844 908.835938 28.964844 C 909.722656 23.882812 917.75 21.601562 918.96875 27.710938 C 922.390625 44.285156 918.046875 61.28125 918.949219 78.019531 C 919.976562 84.925781 922.851562 91.574219 926.550781 97.464844 C 930.878906 103.945312 940.621094 102.640625 945.574219 97.59375 C 952.386719 91.222656 962.089844 87.226562 971.390625 89.84375 C 974.960938 90.558594 976.894531 95.675781 973.894531 98.128906 C 968.371094 101.992188 962.035156 104.773438 957.191406 109.617188 C 952.550781 113.484375 950.03125 119.082031 946.441406 123.796875 C 941.507812 129.429688 935.574219 134.328125 932.003906 141.03125 C 931.726562 147.957031 931.558594 155.191406 934.304688 161.710938 C 940.070312 176.550781 943.164062 192.699219 952.496094 205.921875 C 962.421875 220.414062 972.679688 235.238281 976.949219 252.546875 C 980.5625 263.027344 980.46875 275.507812 988.664062 283.851562 C 992.988281 288.363281 997.058594 293.09375 1000.90625 298.027344 C 1006.746094 294.660156 1013.246094 292.707031 1019.875 291.566406 C 1021.015625 285.230469 1020.609375 277.421875 1025.417969 272.597656 C 1030.628906 271.9375 1035.820312 273.152344 1040.921875 274.109375 C 1043.832031 265.914062 1046.371094 257.609375 1048.601562 249.214844 C 1044.199219 246.25 1039.945312 241.941406 1040.976562 236.121094 C 1044.878906 230.636719 1048.492188 224.648438 1053.832031 220.394531 C 1056.148438 220.339844 1058.472656 220.394531 1060.808594 220.5625 C 1071.894531 202.496094 1088.960938 188.152344 1109.21875 181.542969 C 1104.429688 168.910156 1102.167969 154.824219 1093.457031 144.125 C 1091.046875 140.515625 1089.039062 136.28125 1084.800781 134.511719 C 1074.621094 129.503906 1064.675781 124.074219 1054.789062 118.511719 C 1046.722656 114.019531 1037.070312 114.773438 1028.601562 111.699219 C 1026.652344 108.957031 1027.757812 104.941406 1030.59375 103.285156 C 1037.222656 99.160156 1045.65625 98.183594 1053.054688 100.816406 C 1059.132812 102.933594 1066.445312 102.195312 1071.453125 97.945312 C 1078.46875 89.121094 1077.566406 76.769531 1073.71875 66.765625 C 1069.316406 55.703125 1063.9375 44.984375 1060.460938 33.550781 C 1059.59375 30.34375 1058.507812 26.074219 1061.730469 23.773438 C 1064.011719 22.058594 1067.089844 23.402344 1068.523438 25.613281 C 1076.3125 35.539062 1079.792969 48.28125 1088.207031 57.78125 C 1089.242188 58.1875 1091.285156 58.980469 1092.316406 59.382812 C 1091.101562 44.027344 1086.972656 28.910156 1087.453125 13.425781 Z M 1045.136719 279.414062 C 1047.238281 279.414062 1049.390625 279.5625 1051.507812 279.230469 C 1055.304688 271.679688 1056.332031 263.082031 1059.738281 255.347656 C 1057.972656 253.761719 1056.222656 252.199219 1054.492188 250.632812 C 1050.976562 260.097656 1048.414062 269.875 1045.136719 279.414062 Z M 1029.875 281.863281 C 1034.402344 283.867188 1038.933594 285.96875 1043.796875 287.109375 C 1042.503906 286.246094 1039.925781 284.53125 1038.636719 283.664062 C 1039.339844 283.167969 1040.757812 282.15625 1041.472656 281.660156 C 1037.609375 279.488281 1033.554688 279.191406 1029.875 281.863281 Z M 1026.539062 287.535156 C 1027.128906 294.164062 1035.046875 291.710938 1039.539062 292.910156 C 1035.453125 290.554688 1031.015625 288.914062 1026.539062 287.535156 Z M 1247.214844 941.0625 C 1247.25 955.316406 1248.042969 969.585938 1250.214844 983.710938 C 1252.128906 996.121094 1253.730469 1008.773438 1258.519531 1020.484375 C 1262.292969 1025.050781 1264.484375 1030.886719 1269.292969 1034.605469 C 1283.210938 1047.035156 1296.949219 1059.871094 1308.347656 1074.730469 C 1315.085938 1083.605469 1322.65625 1092.40625 1325.636719 1103.402344 C 1328.472656 1112.808594 1327.203125 1123.34375 1332.34375 1132.054688 C 1337.550781 1141.40625 1342.820312 1150.761719 1348.140625 1160.078125 C 1350.496094 1164.460938 1354.992188 1167.277344 1357.070312 1171.882812 C 1361.046875 1179.597656 1366.222656 1186.628906 1370.9375 1193.90625 C 1379 1193.980469 1382.148438 1201.546875 1385.425781 1207.550781 C 1396.585938 1209.519531 1408.316406 1209.335938 1418.832031 1214.25 C 1417.632812 1197.882812 1413.804688 1181.511719 1405.648438 1167.167969 C 1403.253906 1154.683594 1394.746094 1144.816406 1388.871094 1133.859375 C 1379.757812 1117.523438 1369.410156 1101.964844 1359.355469 1086.21875 C 1352.667969 1076.074219 1349.925781 1063.476562 1341.144531 1054.75 C 1336.335938 1049.667969 1328.863281 1048.820312 1323.722656 1044.179688 C 1315.511719 1037.128906 1304.851562 1032.835938 1298.570312 1023.6875 C 1292.84375 1016.285156 1289.804688 1007.390625 1286.695312 998.714844 C 1285.292969 993.800781 1279.289062 992.550781 1277.449219 987.945312 C 1274.007812 979.585938 1266.21875 974.355469 1261.375 966.953125 C 1255.5 958.980469 1251.980469 949.644531 1247.214844 941.0625 Z M 1247.214844 941.0625 " fill-opacity="1" fill-rule="evenodd"/><path fill="#000000" d="M 18.46875 208.886719 C 37.050781 193.199219 62.902344 186.882812 86.730469 191.265625 C 112.046875 195.355469 135.339844 212 146.167969 235.460938 C 150.054688 243.453125 153.679688 253.191406 149.078125 261.679688 C 145.304688 267.460938 145.578125 274.773438 141.527344 280.40625 C 138.269531 285.542969 138.269531 292.230469 133.941406 296.738281 C 125.546875 305.820312 119.488281 316.648438 112.453125 326.738281 C 106.15625 335.1875 110.886719 345.960938 113.242188 355 C 117.515625 368.257812 122.027344 381.464844 126.15625 394.777344 C 129.707031 407.019531 137.921875 417.078125 142.5625 428.84375 C 147.402344 439.78125 150.847656 451.492188 157.550781 461.472656 C 160.882812 466.828125 167.75 466.535156 173.109375 465.136719 C 184.453125 462.449219 196.070312 461.214844 207.726562 461.195312 C 211.390625 455.027344 216.527344 449.835938 219.546875 443.277344 C 222.570312 436.171875 229.269531 431.808594 233.15625 425.308594 C 237.207031 418.382812 244.316406 414.238281 250.59375 409.597656 C 257.019531 405.050781 265.34375 407.355469 272.488281 405.179688 C 279.042969 403.484375 285.785156 399.914062 292.652344 402.382812 C 302.875 405.273438 313.203125 408.050781 323.769531 409.378906 C 331.558594 410.6875 338.261719 404.921875 345.960938 405.015625 C 353.859375 404.8125 361.300781 407.796875 368.589844 410.464844 C 367.929688 404.5 370.265625 396.527344 364.796875 392.269531 C 358.261719 390.15625 351.023438 391.296875 344.578125 389.066406 C 341.539062 385.699219 339.351562 381.703125 336.976562 377.890625 C 333.605469 373.820312 337.96875 368.554688 335.796875 364.097656 C 331.578125 352.570312 328.191406 340.640625 327.769531 328.300781 C 327.804688 322.964844 325.152344 318.339844 323.183594 313.570312 C 325.707031 287.199219 340.457031 261.902344 363.066406 247.742188 C 388.21875 231.113281 421.605469 226.859375 449.429688 239.269531 C 469.460938 247.429688 484.839844 264.386719 493.144531 284.144531 C 498.445312 284.070312 501.964844 287.480469 502.792969 292.5625 C 504.652344 293.664062 507.652344 293.664062 508.613281 295.949219 C 510.988281 301.269531 512.589844 306.90625 514.503906 312.410156 C 511.59375 315.835938 507.726562 318.136719 504.265625 320.898438 C 502.351562 328.320312 502.554688 336.128906 501.464844 343.714844 C 509.789062 343.308594 518.128906 342.90625 526.457031 343.417969 C 529.199219 343.050781 529.085938 346.625 529.582031 348.355469 C 531.90625 365.773438 531.390625 384.113281 525.222656 400.726562 C 516.527344 405.9375 505.296875 402.695312 495.628906 403.027344 C 495.316406 405.75 494.984375 408.492188 494.671875 411.21875 C 502.882812 412.527344 510.949219 414.699219 519.199219 415.933594 C 528.332031 417.277344 537.574219 415.714844 546.746094 416.394531 C 557.371094 417.1875 566.082031 424.164062 576.246094 426.574219 C 580.703125 427.773438 585.65625 428.03125 589.449219 430.921875 C 595.78125 435.433594 598.839844 442.875 602.28125 449.578125 C 608.875 462.46875 612.449219 476.625 618.359375 489.828125 C 622.613281 481.449219 622.960938 471.875 622.464844 462.6875 C 621.691406 451.066406 621.175781 439.429688 621.542969 427.792969 C 621.453125 424.183594 623.457031 419.835938 627.601562 419.820312 C 630.273438 421.679688 631.414062 424.828125 632.039062 427.882812 C 634.527344 440.644531 636.496094 453.535156 638.945312 466.296875 C 638.855469 468.835938 643.84375 468.855469 643.550781 466.039062 C 645.667969 453.828125 647.671875 441.605469 649.554688 429.355469 C 650.691406 424.902344 651.042969 419.066406 655.445312 416.484375 C 657.800781 414.71875 662.144531 417.445312 661.667969 420.390625 C 661.90625 430.242188 660.175781 440.019531 660.398438 449.890625 C 660.5625 458.25 657.785156 466.351562 658.113281 474.730469 C 667.429688 464.859375 669.421875 450.660156 675.882812 439.136719 C 677.6875 435.378906 683.929688 436.707031 684.113281 440.882812 C 684.023438 448.453125 680.304688 455.375 678.441406 462.59375 C 675.996094 471.855469 671.242188 480.308594 669.035156 489.644531 C 678.515625 486.71875 683.285156 477.289062 690.246094 470.992188 C 691.480469 471.636719 693.910156 472.90625 695.128906 473.53125 C 692.953125 485.667969 683.691406 494.394531 676.253906 503.527344 C 669.457031 514.078125 669.253906 527.394531 662.753906 538.164062 C 664.46875 544.09375 665.039062 550.226562 665.753906 556.359375 C 668.148438 568.050781 672.421875 579.230469 676.234375 590.515625 C 681.589844 606.261719 680.691406 623.21875 679.417969 639.554688 C 678.535156 650.894531 673.636719 661.316406 668.480469 671.300781 C 666.585938 675.570312 661.6875 677.652344 657.210938 677.355469 C 649.441406 677.152344 641.617188 676.769531 633.972656 675.351562 C 624.730469 673.214844 617.347656 666.695312 610.734375 660.25 C 599.171875 648.242188 588.636719 635.300781 577.386719 623.019531 C 569.984375 615.117188 564.3125 605.855469 557.667969 597.367188 C 555.273438 603.996094 552.546875 610.589844 551.460938 617.601562 C 550.707031 629.5 557.8125 640.476562 556.265625 652.480469 C 553.632812 675.664062 551.589844 698.972656 552.898438 722.324219 C 553.742188 733.5 547.445312 743.039062 541.757812 752.007812 C 541.425781 760.679688 545.917969 769.113281 543.929688 777.898438 C 543.304688 784.910156 537.410156 789.441406 532.695312 793.953125 C 534.851562 800.160156 535.570312 806.75 533.230469 813.03125 C 537.171875 822.660156 541.941406 832.128906 548.257812 840.449219 C 557.167969 854.074219 565.140625 868.292969 572.746094 882.671875 C 577.738281 884.734375 584.054688 884.882812 587.40625 889.761719 C 593.152344 897.679688 597.253906 906.683594 603.113281 914.5625 C 608.855469 922.171875 611.269531 931.636719 616.738281 939.425781 C 623.183594 948.539062 629.371094 958.242188 632.390625 969.105469 C 634.359375 975.386719 630.695312 981.296875 630.125 987.410156 C 631.359375 995.789062 635.886719 1003.171875 638.429688 1011.183594 C 642.148438 1020.886719 644.488281 1031.03125 648.117188 1040.753906 C 651.707031 1045.066406 656.625 1048.25 659.347656 1053.3125 C 665.128906 1063.683594 670.984375 1074.121094 675.148438 1085.28125 C 679.585938 1096.882812 679.492188 1109.625 678.054688 1121.777344 C 677.6875 1125 674.320312 1126.546875 672.328125 1128.699219 C 672.179688 1150.484375 674.667969 1172.121094 678.441406 1193.539062 C 684.539062 1230.160156 686.03125 1267.304688 687.777344 1304.332031 C 687.960938 1313.132812 688.441406 1322.046875 691.976562 1330.167969 C 692.089844 1346.757812 695.144531 1363.074219 699.25 1379.113281 C 702.675781 1379.757812 707.609375 1378.890625 709.304688 1382.851562 C 712.105469 1390.601562 709.710938 1399.144531 711.957031 1406.992188 C 721.625 1422.441406 738.121094 1431.113281 752.925781 1440.816406 C 762.816406 1446.136719 771.398438 1453.964844 782.371094 1457.167969 C 791.136719 1460.152344 801.394531 1463.210938 805.921875 1472.082031 C 809.714844 1478.398438 804.359375 1485.269531 799.054688 1488.566406 C 795.277344 1491.457031 790.582031 1488.695312 786.40625 1488.769531 C 784.433594 1490.703125 782.703125 1492.890625 780.695312 1494.804688 C 775.191406 1495.855469 773.054688 1488.601562 767.65625 1489.410156 C 761.25 1488.140625 757.53125 1493.8125 752.871094 1496.960938 C 750.425781 1494.804688 748.269531 1492.414062 746.261719 1489.890625 C 741.769531 1489.320312 737.257812 1488.527344 732.726562 1488.785156 C 729.304688 1490.480469 726.027344 1494.863281 721.863281 1492.304688 C 720.445312 1490.222656 719.378906 1487.957031 718.21875 1485.785156 C 700.945312 1481.789062 683.394531 1479.230469 666.015625 1475.769531 C 662.957031 1478.457031 660.066406 1483.832031 655.277344 1481.402344 C 650.453125 1480.425781 651.230469 1472.804688 646.070312 1472.34375 C 640.824219 1470.132812 638.46875 1478.050781 633.234375 1476.816406 C 626.496094 1477.054688 627.898438 1468.917969 625.285156 1464.996094 C 616.535156 1454.777344 622.980469 1440.613281 626.570312 1429.511719 C 630.363281 1420.859375 628.246094 1409.773438 636.015625 1403.105469 C 635.0625 1381.007812 633.53125 1358.488281 626.292969 1337.441406 C 626.203125 1333.097656 626.535156 1328.714844 625.042969 1324.550781 C 621.082031 1311.164062 618.523438 1297.226562 612.003906 1284.761719 C 605.523438 1271.886719 596.261719 1260.050781 593.628906 1245.558594 C 591.179688 1230.863281 589.816406 1216.019531 588.382812 1201.195312 C 586.707031 1180.332031 584.199219 1159.507812 583.683594 1138.554688 C 581.695312 1136.695312 579.726562 1134.851562 577.773438 1133.027344 C 577.699219 1131.8125 577.554688 1129.402344 577.480469 1128.203125 C 572.453125 1122.515625 568.585938 1115.941406 564.222656 1109.753906 C 555.105469 1096.515625 543.964844 1084.859375 533.214844 1072.960938 C 513.066406 1050.148438 491.578125 1028.546875 471.339844 1005.808594 C 458.726562 992.085938 445.746094 978.683594 431.734375 966.382812 C 426.136719 982.382812 420.5 998.421875 416.414062 1014.902344 C 414.148438 1023.796875 412.488281 1032.910156 409.082031 1041.476562 C 406.375 1049.558594 397.371094 1053.957031 396.265625 1062.796875 C 392.84375 1081.65625 387.078125 1099.957031 381.222656 1118.167969 C 376.125 1132.496094 377.191406 1148.476562 369.972656 1162.140625 C 366.472656 1169.597656 360.175781 1175.160156 353.511719 1179.761719 C 347.691406 1183.648438 343.769531 1189.539062 338.6875 1194.21875 C 333.050781 1197.828125 325.613281 1196.980469 320.179688 1201.121094 C 315.707031 1204.769531 309.429688 1202.652344 304.714844 1205.746094 C 292.359375 1212.191406 279.632812 1217.824219 267.019531 1223.699219 C 249.601562 1231.800781 233.710938 1242.738281 216.898438 1251.945312 C 203.675781 1259.328125 189.941406 1265.757812 176.8125 1273.304688 C 173.828125 1274.910156 172.058594 1278.074219 169.058594 1279.660156 C 154.96875 1286.160156 144.933594 1298.476562 134.898438 1309.855469 C 135.933594 1313.835938 138.25 1318.328125 135.597656 1322.230469 C 132.894531 1327.921875 126.136719 1329.285156 120.8125 1331.367188 C 112.304688 1341.363281 104.460938 1351.953125 97.722656 1363.238281 C 85.644531 1383.570312 82.769531 1407.636719 72.496094 1428.777344 C 68.773438 1436.289062 64.519531 1445.660156 55.332031 1447.371094 C 43.863281 1449.710938 33.75 1440.542969 29.867188 1430.46875 C 28.613281 1426.03125 24.765625 1423.617188 21.910156 1420.378906 C 23.089844 1414.910156 23.476562 1409.332031 22.410156 1403.84375 C 22.390625 1400.066406 18.101562 1398.980469 16.039062 1396.476562 C 15.136719 1392.832031 18.191406 1390.144531 19.371094 1387.03125 C 20.125 1382.371094 20.253906 1377.65625 20.382812 1372.980469 C 18.78125 1371.101562 17.605469 1369.023438 16.847656 1366.738281 C 19.390625 1363.332031 22.558594 1360.3125 24.214844 1356.335938 C 32.296875 1338.710938 40.308594 1320.960938 45.738281 1302.308594 C 47.875 1296.800781 45.371094 1291.316406 44.488281 1285.863281 C 47.671875 1283.027344 51.191406 1280.246094 52.957031 1276.253906 C 55.039062 1272.511719 53.234375 1268.242188 53.714844 1264.28125 C 62.585938 1258.722656 71.574219 1251.929688 82.441406 1251.355469 C 90.964844 1250.398438 99.175781 1253.347656 107.316406 1255.296875 C 114.902344 1249.917969 121.253906 1243.070312 128.566406 1237.363281 C 133.097656 1233.953125 135.15625 1228.15625 140.039062 1225.171875 C 144.84375 1222.1875 148.527344 1217.824219 152.136719 1213.570312 C 160.84375 1203.222656 170.476562 1193.667969 178.429688 1182.710938 C 185.90625 1172.582031 193.566406 1162.140625 204.285156 1155.179688 C 223.621094 1142.878906 247.351562 1140.007812 266.484375 1127.339844 C 279.652344 1108.796875 286.28125 1085.613281 284.714844 1062.925781 C 281.363281 1015.933594 295.453125 969.828125 293.921875 922.90625 C 293.574219 907.714844 290.3125 892.78125 289.777344 877.609375 C 288.839844 855.457031 290.203125 832.808594 297.421875 811.6875 C 300.625 802.039062 306.519531 793.679688 311.859375 785.132812 C 309.980469 782.1875 307.699219 779.351562 306.90625 775.890625 C 306.371094 771.726562 309.226562 768.285156 310.957031 764.804688 C 309.90625 762.28125 308.765625 759.796875 308.027344 757.179688 C 309.335938 747.367188 314.839844 737.773438 312.394531 727.699219 C 310.089844 714.277344 308.910156 700.671875 306.519531 687.246094 C 305.523438 680.542969 304.050781 673.636719 305.742188 666.898438 C 306.960938 660.234375 309.816406 653.84375 310.035156 647.007812 C 305.613281 629.113281 291.804688 615.707031 285.820312 598.433594 C 281.125 585.140625 275.121094 572.339844 266.339844 561.203125 C 260.738281 559.730469 255.585938 557.058594 250.132812 555.21875 C 241.480469 554.074219 233.140625 557.792969 224.539062 558.128906 C 209.015625 559.652344 194.707031 552.34375 180.546875 547.171875 C 164.03125 539.878906 146.851562 534.261719 130.277344 527.042969 C 123.097656 523.765625 114.386719 522.070312 109.804688 514.964844 C 95.753906 498.078125 92.953125 475.667969 86.433594 455.429688 C 75.738281 419.949219 74.300781 382.546875 64.191406 346.9375 C 63.234375 343.273438 63.214844 339.425781 62.347656 335.757812 C 60.398438 330.125 56.511719 325.484375 53.695312 320.328125 C 48.300781 311.121094 45.335938 300.792969 40.34375 291.398438 C 37.417969 285.140625 30.402344 282.894531 25.652344 278.382812 C 13.9375 267.921875 5.15625 253.707031 2.265625 238.183594 C 0 225.828125 9.886719 216.125 18.46875 208.886719 Z M 488.632812 331.765625 C 490.859375 335.945312 493.402344 339.941406 496.164062 343.789062 C 497.453125 336.679688 498.261719 329.480469 498.242188 322.242188 C 494.820312 325.171875 491.578125 328.320312 488.632812 331.765625 Z M 502.570312 349.421875 C 502.71875 351.042969 502.902344 352.683594 503.085938 354.320312 C 505.148438 354.394531 507.210938 354.488281 509.292969 354.597656 C 509.257812 352.773438 509.21875 350.953125 509.183594 349.148438 C 506.972656 349.222656 504.761719 349.292969 502.570312 349.421875 Z M 514.265625 348.757812 C 514.410156 349.917969 514.722656 352.242188 514.890625 353.398438 C 518.609375 353.363281 523.027344 353.84375 523.785156 349.09375 C 520.597656 348.90625 517.433594 348.816406 514.265625 348.757812 Z M 496.753906 353.75 C 499.441406 352.296875 499.40625 350.878906 496.640625 349.515625 C 493.824219 350.988281 493.859375 352.40625 496.753906 353.75 Z M 516.65625 359.164062 C 517.359375 370.949219 516.769531 382.769531 516.824219 394.554688 C 519.714844 397.261719 522.109375 393.433594 522.402344 391.019531 C 525.054688 380.433594 525.128906 369.4375 525.167969 358.613281 C 522.328125 358.777344 519.492188 358.960938 516.65625 359.164062 Z M 503.65625 361.132812 C 503.621094 370.691406 505.09375 380.191406 504.871094 389.785156 C 507.027344 390.742188 509.21875 391.703125 511.445312 392.601562 C 512.847656 382.109375 512.054688 371.484375 511.90625 360.929688 C 509.144531 360.96875 506.402344 361.042969 503.65625 361.132812 Z M 498.371094 368.113281 C 497.417969 374.226562 492.296875 383.101562 499.570312 386.933594 C 499.808594 380.632812 499.3125 374.335938 498.371094 368.113281 Z M 496.367188 393.027344 C 496.070312 394.039062 495.484375 396.066406 495.167969 397.097656 C 499.40625 397.242188 503.640625 397.351562 507.894531 397.59375 C 505.703125 397.296875 503.511719 396.984375 501.355469 396.691406 C 499.699219 395.421875 498.117188 394.113281 496.367188 393.027344 Z M 496.367188 393.027344 " fill-opacity="1" fill-rule="evenodd"/></svg>
