<svg xmlns="http://www.w3.org/2000/svg" xmlns:xlink="http://www.w3.org/1999/xlink" width="2000" zoomAndPan="magnify" viewBox="0 0 1500 1499.999933" height="2000" preserveAspectRatio="xMidYMid meet" version="1.0"><path fill="#000000" d="M 520.390625 579.722656 C 549.707031 570.28125 580.230469 570.90625 607.367188 586.347656 C 610.828125 588.316406 623.808594 598.988281 624.890625 599.097656 C 628.777344 599.472656 630.738281 596.109375 633.515625 594.429688 C 656.042969 580.796875 674.902344 573.234375 701.835938 577.628906 C 759.855469 587.097656 809.222656 606.554688 856.015625 642.011719 C 876.863281 657.804688 891.828125 676.265625 914.914062 690.574219 C 963.6875 720.808594 1002.945312 716.511719 1038.996094 769.34375 C 1043.007812 775.226562 1047.511719 786.570312 1051.234375 790.90625 C 1057.78125 798.523438 1068.988281 806.847656 1076.554688 815.089844 C 1125.976562 868.917969 1157.828125 929.527344 1201.015625 986.417969 C 1208.78125 996.648438 1230.65625 1023.371094 1241.375 1028.160156 C 1260.253906 1036.59375 1284.40625 1036.210938 1305 1045.441406 C 1342.292969 1062.148438 1360.1875 1101.398438 1392.40625 1123.445312 C 1406.226562 1132.902344 1410.570312 1127.246094 1422.191406 1131.097656 C 1452.203125 1141.039062 1460.148438 1183.0625 1471.828125 1208.226562 C 1485.910156 1238.554688 1500.011719 1250.214844 1493.449219 1287.335938 C 1490.925781 1301.609375 1487.15625 1321.042969 1472.023438 1326.277344 C 1443.980469 1335.984375 1428.972656 1303.789062 1419.898438 1283.066406 C 1399.515625 1236.503906 1400.519531 1206.699219 1358.550781 1170.570312 C 1333.636719 1149.128906 1295.523438 1152.65625 1267.136719 1136.40625 C 1257.507812 1130.890625 1252.851562 1124.609375 1240.664062 1123.027344 C 1210.472656 1119.113281 1172.386719 1118.414062 1147.152344 1098.203125 C 1121.429688 1077.605469 1098.917969 1044.191406 1072.941406 1022.699219 C 1037.125 990.5 999.484375 955.796875 957.476562 931.695312 C 946.679688 925.5 949.453125 930.410156 943.589844 938.140625 C 925.308594 962.21875 897.789062 980.964844 882.925781 1006.664062 C 875.238281 1019.964844 870.789062 1031.808594 875.710938 1047.21875 C 877.371094 1052.421875 898.527344 1067.589844 903.8125 1072.238281 C 914.289062 1081.449219 925.757812 1091.121094 935.859375 1100.558594 C 978.679688 1140.550781 996.585938 1191.683594 1040.886719 1230.960938 C 1067.429688 1254.5 1087.476562 1272.089844 1105.125 1304.355469 C 1113.648438 1319.941406 1118.527344 1328.660156 1098.855469 1337.144531 C 1087.660156 1341.972656 1074.597656 1343.429688 1062.921875 1347.101562 C 1055.796875 1349.339844 1049.125 1353.023438 1042.078125 1355.234375 C 1022.96875 1361.222656 996.246094 1360.945312 976.289062 1359.5 C 962.578125 1358.507812 939.453125 1352.753906 953.320312 1335.324219 C 962.941406 1323.234375 977.359375 1321.652344 990.265625 1315.234375 C 992.3125 1307.921875 996.710938 1297.691406 996.285156 1290.113281 C 996.121094 1287.175781 994.476562 1283.601562 993.507812 1280.726562 C 988.015625 1264.351562 974.449219 1254.625 961.085938 1244.328125 C 910.617188 1205.445312 860.035156 1179.503906 818.710938 1128.320312 C 809.183594 1116.515625 801.175781 1101.140625 791.542969 1090.296875 C 780.507812 1077.871094 770.578125 1074.617188 760.957031 1058.105469 C 737.007812 1017.019531 750.054688 984.269531 757.972656 942.117188 C 762.25 919.34375 764.984375 896.210938 770.402344 873.671875 C 770.445312 872.445312 754.882812 871.585938 752.835938 871.808594 C 746.246094 872.542969 724.484375 891.390625 717.152344 896.496094 C 695.558594 911.515625 673.808594 923.605469 651.210938 936.804688 C 631.945312 948.066406 613.675781 960.9375 592.773438 969.179688 L 595.273438 994.359375 C 596.542969 1064.148438 560.824219 1126.585938 530.632812 1186.863281 C 522.960938 1202.183594 503.148438 1239.941406 501.160156 1255.171875 C 496.023438 1294.546875 530.59375 1307.367188 552.417969 1332.917969 C 562.660156 1344.90625 578.117188 1368.894531 553.296875 1373.671875 C 536.707031 1376.871094 498.894531 1375.523438 485.335938 1364.953125 C 478.566406 1359.675781 474.03125 1351.207031 467.15625 1345.707031 C 453.6875 1334.933594 435.636719 1332.789062 424.355469 1318.480469 C 421.394531 1314.730469 421.003906 1313.257812 421.460938 1308.324219 C 422.175781 1300.585938 427.238281 1286.0625 429.261719 1277.46875 C 433.445312 1259.675781 435.257812 1255.90625 442.105469 1239.613281 C 453.222656 1213.179688 462.863281 1176.976562 466.925781 1148.546875 C 469.507812 1130.453125 464.96875 1115.15625 467.570312 1098.492188 C 470.691406 1078.535156 481.851562 1061.789062 486.035156 1043.316406 C 489.183594 1029.40625 486.832031 1023.519531 476.28125 1014.304688 C 455.824219 996.4375 432.960938 987.515625 410.582031 973.75 C 400.601562 967.609375 391.59375 959.902344 381.511719 953.929688 C 381.097656 955.976562 382.695312 956.890625 383.675781 958.394531 C 408.007812 995.652344 450.453125 1045.71875 430.855469 1093.183594 C 418.089844 1124.101562 375.753906 1166.351562 351.332031 1189.925781 C 336.917969 1203.839844 307.972656 1221.863281 310.238281 1244.242188 C 311.5625 1257.277344 330.90625 1274.089844 339.859375 1283.429688 C 356.109375 1300.382812 390.128906 1331.011719 397.777344 1352.273438 C 400.058594 1358.621094 398.464844 1362.453125 393.472656 1367.242188 C 379.644531 1380.53125 347.460938 1378.75 330.792969 1372.15625 C 304.578125 1361.785156 297.941406 1341.683594 278.871094 1325.070312 C 257.40625 1306.378906 212.3125 1294.054688 223.863281 1256.855469 C 231.484375 1232.308594 251.121094 1211.609375 261.3125 1186.863281 C 270.9375 1163.492188 273.898438 1137.289062 286.792969 1115.765625 C 291.710938 1107.558594 310.179688 1086.890625 311.273438 1079.789062 C 311.789062 1076.40625 305.375 1068.601562 302.984375 1065.609375 C 293.429688 1053.671875 280.316406 1043.476562 269.167969 1033.015625 C 230.351562 996.589844 190.992188 964.300781 158.785156 921.246094 C 155.980469 917.503906 143.496094 896.96875 142.226562 896.152344 C 141.910156 895.949219 140.425781 897.085938 139.550781 896.910156 C 136.457031 896.273438 116.394531 861.519531 114.019531 856.148438 C 105.730469 837.40625 102.460938 814.40625 103.730469 793.992188 C 104.367188 783.808594 108.644531 770.703125 108.671875 761.414062 C 108.691406 755.105469 103.449219 747.769531 102.648438 740.777344 C 100.109375 718.578125 107.972656 699.355469 112.582031 678.515625 C 117.679688 655.472656 123.214844 632.171875 125.472656 608.722656 C 101.804688 616.160156 77.5625 622.511719 52.40625 620.796875 C 44.101562 620.230469 26.0625 617.429688 18.21875 615.132812 C 1.027344 610.109375 0.0117188 584.589844 4.101562 570.089844 C 23.148438 539.25 34.660156 497.46875 56.65625 469.328125 C 63.335938 460.785156 71.839844 453.828125 79.003906 445.796875 C 82.714844 441.632812 91.160156 432.109375 91.691406 427.097656 C 92.941406 415.386719 91.664062 408.097656 95.347656 395.75 C 104.683594 364.523438 127.5 339.460938 154.550781 322.140625 C 184.644531 302.871094 221.007812 303.5625 254.695312 312.394531 C 280.144531 319.066406 305 330.050781 330.773438 335.933594 C 330.328125 330.195312 333.382812 325.109375 334.292969 319.527344 C 340.46875 281.511719 345.953125 241.144531 377.300781 214.042969 C 419.429688 177.621094 488.1875 184.3125 523.984375 226.71875 C 545.347656 252.027344 551.03125 278.523438 546.824219 311.054688 C 545.335938 322.539062 541.351562 334.851562 537.425781 345.617188 C 550.847656 352.40625 551.855469 360.839844 545.96875 375.386719 C 537.351562 396.667969 522.511719 417.542969 512.082031 438.136719 L 512.460938 439.71875 C 516.886719 445.238281 522.542969 450.035156 527.046875 455.410156 C 544.710938 476.484375 547.082031 520.402344 538.835938 545.695312 C 534.679688 558.441406 527.96875 568.929688 520.382812 579.75 Z M 515.207031 345.726562 C 514.191406 346.019531 502.578125 357.492188 501.757812 358.921875 C 500.480469 361.144531 498.328125 370.296875 498.605469 372.671875 C 498.996094 375.980469 511.320312 384.148438 514.726562 387.25 C 519.183594 391.304688 522.425781 394.957031 525.824219 399.863281 C 530.886719 390.207031 547.707031 367.472656 540.960938 356.984375 C 538.046875 352.453125 519.5625 344.480469 515.203125 345.730469 Z M 521.28125 405.6875 C 520.195312 398.804688 503.253906 384.695312 499.519531 382.375 C 498.566406 381.785156 497.683594 381.328125 496.242188 380.574219 L 492.046875 393.246094 Z M 487.808594 399.582031 L 480.550781 406.519531 C 480.542969 407.726562 495.410156 414.214844 497.234375 414.476562 L 501.007812 405.414062 L 487.800781 399.585938 Z M 519.183594 411.960938 L 505.785156 407.027344 L 502.09375 416.347656 C 506.199219 417.882812 511.105469 419.75 515.027344 420.082031 Z M 495.414062 419.785156 L 483.394531 414.636719 C 483.671875 416.386719 492.171875 422.8125 493.601562 423.378906 C 494.707031 422.015625 494.96875 420.714844 495.417969 419.785156 Z M 508.191406 433.550781 L 511.941406 425.851562 L 499.964844 421.679688 L 497.648438 426.765625 C 499.902344 428.347656 504.398438 431.765625 508.191406 433.550781 Z M 102.535156 543.507812 L 120.636719 541.695312 L 131.496094 523.597656 C 129.851562 521.074219 128.734375 522.28125 126.765625 523.679688 C 118.359375 529.664062 110.449219 536.894531 102.535156 543.511719 Z M 341.660156 706.464844 C 361.261719 701.789062 368.941406 682.308594 371.835938 664.226562 L 356.363281 683.148438 Z M 438.261719 693.199219 C 436.378906 694.761719 434.300781 697.238281 433.539062 698.550781 C 425.296875 712.757812 426.496094 722.878906 415.828125 737.765625 C 414.140625 740.117188 412.085938 742.164062 409.273438 744.40625 L 456.375 783.726562 C 453.378906 776.902344 456.484375 768.160156 455.75 761.839844 C 454.957031 754.96875 444.777344 735.214844 442.234375 726.046875 C 439.277344 715.394531 437.773438 704.25 438.261719 693.199219 Z M 486.582031 803.039062 L 474.5 801.839844 C 476.511719 804.074219 482.945312 813.980469 484.105469 811.746094 C 484.738281 810.527344 485.488281 808.691406 485.777344 807.652344 C 486.285156 805.828125 486.675781 804.972656 486.578125 803.042969 Z M 492.757812 803.175781 C 489.492188 814.015625 488.335938 817.269531 495.613281 825.992188 C 497.15625 827.839844 505.578125 837.167969 506.761719 837.78125 C 515.964844 842.601562 537.304688 831.914062 545.738281 826.570312 C 537.460938 812.898438 520.558594 810.914062 506.457031 806.703125 C 501.867188 805.328125 499.261719 804.390625 492.757812 803.175781 Z M 537.640625 881.148438 C 541.800781 884.230469 562.09375 882.859375 567.46875 880.871094 C 576.417969 877.554688 605.828125 847.554688 609.632812 838.519531 C 610.761719 835.84375 611.375 833.773438 610.960938 830.804688 C 590.636719 843.640625 575.566406 859.457031 550.035156 861.035156 C 539.945312 861.660156 531.402344 860.015625 521.597656 858.574219 L 537.636719 881.15625 Z M 555.152344 833.914062 C 550.066406 830.558594 544.496094 835.1875 539.789062 837.113281 C 533.144531 839.832031 527.113281 842.214844 520.394531 844.675781 C 525.054688 851.277344 538.664062 843.128906 544.574219 839.878906 C 547.6875 838.167969 552.949219 836.671875 555.152344 833.914062 Z M 583.191406 841.667969 C 575.070312 842.863281 566.6875 838.46875 563.125 837.425781 L 533.679688 852.515625 C 550.699219 856.015625 569.789062 853.257812 583.195312 841.671875 Z M 517.789062 850.15625 C 518.882812 849.039062 514.625 844.347656 511.738281 845.191406 C 512.808594 847.324219 514.253906 850.15625 517.789062 850.15625 Z M 517.789062 850.15625 " fill-opacity="1" fill-rule="nonzero"/></svg>
